<?xml version="1.0" encoding="utf-8" standalone="no"?>
<!DOCTYPE svg PUBLIC "-//W3C//DTD SVG 1.1//EN"
  "http://www.w3.org/Graphics/SVG/1.1/DTD/svg11.dtd">
<svg xmlns:xlink="http://www.w3.org/1999/xlink" width="1097.28pt" height="365.76pt" viewBox="0 0 1097.28 365.76" xmlns="http://www.w3.org/2000/svg" version="1.1">
 <metadata>
  <rdf:RDF xmlns:dc="http://purl.org/dc/elements/1.1/" xmlns:cc="http://creativecommons.org/ns#" xmlns:rdf="http://www.w3.org/1999/02/22-rdf-syntax-ns#">
   <cc:Work>
    <dc:type rdf:resource="http://purl.org/dc/dcmitype/StillImage"/>
    <dc:date>2023-08-23T16:01:16.024108</dc:date>
    <dc:format>image/svg+xml</dc:format>
    <dc:creator>
     <cc:Agent>
      <dc:title>Matplotlib v3.5.1, https://matplotlib.org/</dc:title>
     </cc:Agent>
    </dc:creator>
   </cc:Work>
  </rdf:RDF>
 </metadata>
 <defs>
  <style type="text/css">*{stroke-linejoin: round; stroke-linecap: butt}</style>
 </defs>
 <g id="figure_1">
  <g id="patch_1">
   <path d="M 0 365.76 
L 1097.28 365.76 
L 1097.28 0 
L 0 0 
L 0 365.76 
z
" style="fill: none"/>
  </g>
  <g id="axes_1">
   <g id="patch_2">
    <path d="M 137.16 320.04 
L 987.552 320.04 
L 987.552 43.8912 
L 137.16 43.8912 
L 137.16 320.04 
z
" style="fill: none"/>
   </g>
   <g id="PolyCollection_1">
    <path d="M 137.16 596.1888 
L 137.16 231.863647 
L 137.16 231.863647 
L 173.285843 231.863647 
L 173.285843 226.774411 
L 211.396623 226.774411 
L 211.396623 224.252626 
L 251.095352 224.252626 
L 251.095352 224.041144 
L 364.936557 224.041144 
L 364.936557 222.694074 
L 424.48465 222.694074 
L 424.48465 215.340508 
L 476.092998 215.340508 
L 476.092998 215.039614 
L 547.55071 215.039614 
L 547.55071 212.333936 
L 674.797794 212.333936 
L 674.797794 212.198349 
L 702.586905 212.198349 
L 702.586905 211.597943 
L 788.336159 211.597943 
L 788.336159 207.67299 
L 834.783672 207.67299 
L 834.783672 202.780426 
L 862.572782 202.780426 
L 862.572782 183.692748 
L 881.628172 183.692748 
L 881.628172 170.691446 
L 901.477536 170.691446 
L 901.477536 169.871085 
L 933.23652 169.871085 
L 933.23652 163.477922 
L 972.935248 163.477922 
L 972.935248 596.1888 
L 972.935248 596.1888 
L 933.23652 596.1888 
L 933.23652 596.1888 
L 901.477536 596.1888 
L 901.477536 596.1888 
L 881.628172 596.1888 
L 881.628172 596.1888 
L 862.572782 596.1888 
L 862.572782 596.1888 
L 834.783672 596.1888 
L 834.783672 596.1888 
L 788.336159 596.1888 
L 788.336159 596.1888 
L 702.586905 596.1888 
L 702.586905 596.1888 
L 674.797794 596.1888 
L 674.797794 596.1888 
L 547.55071 596.1888 
L 547.55071 596.1888 
L 476.092998 596.1888 
L 476.092998 596.1888 
L 424.48465 596.1888 
L 424.48465 596.1888 
L 364.936557 596.1888 
L 364.936557 596.1888 
L 251.095352 596.1888 
L 251.095352 596.1888 
L 211.396623 596.1888 
L 211.396623 596.1888 
L 173.285843 596.1888 
L 173.285843 596.1888 
L 137.16 596.1888 
L 137.16 596.1888 
z
" clip-path="url(#pca5a59ea0a)" style="fill: #8dd3c7; fill-opacity: 0.5; stroke: #8dd3c7; stroke-opacity: 0.5"/>
   </g>
   <g id="PolyCollection_2">
    <path d="M 137.16 596.1888 
L 137.16 148.824666 
L 137.16 148.824666 
L 169.649888 148.824666 
L 169.649888 144.875057 
L 197.633079 144.875057 
L 197.633079 142.283746 
L 249.655097 142.283746 
L 249.655097 142.231681 
L 278.115716 142.231681 
L 278.115716 141.906306 
L 391.971973 141.906306 
L 391.971973 141.759117 
L 431.869956 141.759117 
L 431.869956 141.232154 
L 471.902799 141.232154 
L 471.902799 139.488036 
L 510.359654 139.488036 
L 510.359654 139.459026 
L 529.621506 139.459026 
L 529.621506 136.60117 
L 550.270795 136.60117 
L 550.270795 136.54663 
L 636.891032 136.54663 
L 636.891032 134.838697 
L 708.978979 134.838697 
L 708.978979 131.309386 
L 746.721556 131.309386 
L 746.721556 130.479432 
L 794.649376 130.479432 
L 794.649376 130.144474 
L 925.968133 130.144474 
L 925.968133 122.136839 
L 988.389284 122.136839 
L 988.389284 596.1888 
L 988.389284 596.1888 
L 925.968133 596.1888 
L 925.968133 596.1888 
L 794.649376 596.1888 
L 794.649376 596.1888 
L 746.721556 596.1888 
L 746.721556 596.1888 
L 708.978979 596.1888 
L 708.978979 596.1888 
L 636.891032 596.1888 
L 636.891032 596.1888 
L 550.270795 596.1888 
L 550.270795 596.1888 
L 529.621506 596.1888 
L 529.621506 596.1888 
L 510.359654 596.1888 
L 510.359654 596.1888 
L 471.902799 596.1888 
L 471.902799 596.1888 
L 431.869956 596.1888 
L 431.869956 596.1888 
L 391.971973 596.1888 
L 391.971973 596.1888 
L 278.115716 596.1888 
L 278.115716 596.1888 
L 249.655097 596.1888 
L 249.655097 596.1888 
L 197.633079 596.1888 
L 197.633079 596.1888 
L 169.649888 596.1888 
L 169.649888 596.1888 
L 137.16 596.1888 
L 137.16 596.1888 
z
" clip-path="url(#pca5a59ea0a)" style="fill: #ffffb3; fill-opacity: 0.5; stroke: #ffffb3; stroke-opacity: 0.5"/>
   </g>
   <g id="PolyCollection_3">
    <path d="M 137.16 596.1888 
L 137.16 236.230793 
L 137.16 236.230793 
L 173.285843 236.230793 
L 173.285843 229.530044 
L 211.396623 229.530044 
L 211.396623 227.00826 
L 251.095352 227.00826 
L 251.095352 225.449707 
L 310.643445 225.449707 
L 310.643445 221.164341 
L 362.251793 221.164341 
L 362.251793 217.795248 
L 433.709505 217.795248 
L 433.709505 217.341492 
L 549.933697 217.341492 
L 549.933697 214.353577 
L 635.682952 214.353577 
L 635.682952 205.09506 
L 663.472062 205.09506 
L 663.472062 196.835825 
L 691.946418 196.835825 
L 691.946418 194.21838 
L 822.464737 194.21838 
L 822.464737 190.406197 
L 862.163466 190.406197 
L 862.163466 189.66172 
L 909.803193 189.66172 
L 909.803193 188.458676 
L 928.858583 188.458676 
L 928.858583 175.058591 
L 948.707948 175.058591 
L 948.707948 161.221066 
L 981.168843 161.221066 
L 981.168843 596.1888 
L 981.168843 596.1888 
L 948.707948 596.1888 
L 948.707948 596.1888 
L 928.858583 596.1888 
L 928.858583 596.1888 
L 909.803193 596.1888 
L 909.803193 596.1888 
L 862.163466 596.1888 
L 862.163466 596.1888 
L 822.464737 596.1888 
L 822.464737 596.1888 
L 691.946418 596.1888 
L 691.946418 596.1888 
L 663.472062 596.1888 
L 663.472062 596.1888 
L 635.682952 596.1888 
L 635.682952 596.1888 
L 549.933697 596.1888 
L 549.933697 596.1888 
L 433.709505 596.1888 
L 433.709505 596.1888 
L 362.251793 596.1888 
L 362.251793 596.1888 
L 310.643445 596.1888 
L 310.643445 596.1888 
L 251.095352 596.1888 
L 251.095352 596.1888 
L 211.396623 596.1888 
L 211.396623 596.1888 
L 173.285843 596.1888 
L 173.285843 596.1888 
L 137.16 596.1888 
L 137.16 596.1888 
z
" clip-path="url(#pca5a59ea0a)" style="fill: #bebada; fill-opacity: 0.5; stroke: #bebada; stroke-opacity: 0.5"/>
   </g>
   <g id="PolyCollection_4">
    <path d="M 137.16 596.1888 
L 137.16 236.700536 
L 137.16 236.700536 
L 173.285843 236.700536 
L 173.285843 231.611299 
L 211.396623 231.611299 
L 211.396623 229.089515 
L 251.095352 229.089515 
L 251.095352 227.530962 
L 310.643445 227.530962 
L 310.643445 224.720353 
L 362.251793 224.720353 
L 362.251793 219.876503 
L 433.709505 219.876503 
L 433.709505 217.062112 
L 549.933697 217.062112 
L 549.933697 216.434832 
L 635.682952 216.434832 
L 635.682952 207.617315 
L 663.472062 207.617315 
L 663.472062 196.436711 
L 691.946418 196.436711 
L 691.946418 193.819266 
L 822.464737 193.819266 
L 822.464737 189.262606 
L 870.104464 189.262606 
L 870.104464 188.059562 
L 889.159854 188.059562 
L 889.159854 175.528334 
L 909.009219 175.528334 
L 909.009219 166.451105 
L 948.707948 166.451105 
L 948.707948 160.821952 
L 981.168843 160.821952 
L 981.168843 596.1888 
L 981.168843 596.1888 
L 948.707948 596.1888 
L 948.707948 596.1888 
L 909.009219 596.1888 
L 909.009219 596.1888 
L 889.159854 596.1888 
L 889.159854 596.1888 
L 870.104464 596.1888 
L 870.104464 596.1888 
L 822.464737 596.1888 
L 822.464737 596.1888 
L 691.946418 596.1888 
L 691.946418 596.1888 
L 663.472062 596.1888 
L 663.472062 596.1888 
L 635.682952 596.1888 
L 635.682952 596.1888 
L 549.933697 596.1888 
L 549.933697 596.1888 
L 433.709505 596.1888 
L 433.709505 596.1888 
L 362.251793 596.1888 
L 362.251793 596.1888 
L 310.643445 596.1888 
L 310.643445 596.1888 
L 251.095352 596.1888 
L 251.095352 596.1888 
L 211.396623 596.1888 
L 211.396623 596.1888 
L 173.285843 596.1888 
L 173.285843 596.1888 
L 137.16 596.1888 
L 137.16 596.1888 
z
" clip-path="url(#pca5a59ea0a)" style="fill: #fb8072; fill-opacity: 0.5; stroke: #fb8072; stroke-opacity: 0.5"/>
   </g>
   <g id="matplotlib.axis_1">
    <g id="xtick_1">
     <g id="line2d_1">
      <defs>
       <path id="m55e22d2ee1" d="M 0 0 
L 0 3.5 
" style="stroke: #000000; stroke-width: 0.8"/>
      </defs>
      <g>
       <use xlink:href="#m55e22d2ee1" x="137.16" y="320.04" style="stroke: #000000; stroke-width: 0.8"/>
      </g>
     </g>
     <g id="text_1">
      <!-- 0.0% -->
      <g transform="translate(134.516806 369.99838)rotate(-70)scale(0.18 -0.18)">
       <defs>
        <path id="ArialMT-30" d="M 266 2259 
Q 266 3072 433 3567 
Q 600 4063 929 4331 
Q 1259 4600 1759 4600 
Q 2128 4600 2406 4451 
Q 2684 4303 2865 4023 
Q 3047 3744 3150 3342 
Q 3253 2941 3253 2259 
Q 3253 1453 3087 958 
Q 2922 463 2592 192 
Q 2263 -78 1759 -78 
Q 1097 -78 719 397 
Q 266 969 266 2259 
z
M 844 2259 
Q 844 1131 1108 757 
Q 1372 384 1759 384 
Q 2147 384 2411 759 
Q 2675 1134 2675 2259 
Q 2675 3391 2411 3762 
Q 2147 4134 1753 4134 
Q 1366 4134 1134 3806 
Q 844 3388 844 2259 
z
" transform="scale(0.015625)"/>
        <path id="ArialMT-2e" d="M 581 0 
L 581 641 
L 1222 641 
L 1222 0 
L 581 0 
z
" transform="scale(0.015625)"/>
        <path id="ArialMT-25" d="M 372 3481 
Q 372 3972 619 4315 
Q 866 4659 1334 4659 
Q 1766 4659 2048 4351 
Q 2331 4044 2331 3447 
Q 2331 2866 2045 2552 
Q 1759 2238 1341 2238 
Q 925 2238 648 2547 
Q 372 2856 372 3481 
z
M 1350 4272 
Q 1141 4272 1002 4090 
Q 863 3909 863 3425 
Q 863 2984 1003 2804 
Q 1144 2625 1350 2625 
Q 1563 2625 1702 2806 
Q 1841 2988 1841 3469 
Q 1841 3913 1700 4092 
Q 1559 4272 1350 4272 
z
M 1353 -169 
L 3859 4659 
L 4316 4659 
L 1819 -169 
L 1353 -169 
z
M 3334 1075 
Q 3334 1569 3581 1911 
Q 3828 2253 4300 2253 
Q 4731 2253 5014 1945 
Q 5297 1638 5297 1041 
Q 5297 459 5011 145 
Q 4725 -169 4303 -169 
Q 3888 -169 3611 142 
Q 3334 453 3334 1075 
z
M 4316 1866 
Q 4103 1866 3964 1684 
Q 3825 1503 3825 1019 
Q 3825 581 3965 400 
Q 4106 219 4313 219 
Q 4528 219 4667 400 
Q 4806 581 4806 1063 
Q 4806 1506 4665 1686 
Q 4525 1866 4316 1866 
z
" transform="scale(0.015625)"/>
       </defs>
       <use xlink:href="#ArialMT-30"/>
       <use xlink:href="#ArialMT-2e" x="55.615234"/>
       <use xlink:href="#ArialMT-30" x="83.398438"/>
       <use xlink:href="#ArialMT-25" x="139.013672"/>
      </g>
     </g>
    </g>
    <g id="xtick_2">
     <g id="line2d_2">
      <g>
       <use xlink:href="#m55e22d2ee1" x="307.2384" y="320.04" style="stroke: #000000; stroke-width: 0.8"/>
      </g>
     </g>
     <g id="text_2">
      <!-- 20.0% -->
      <g transform="translate(302.883448 379.404409)rotate(-70)scale(0.18 -0.18)">
       <defs>
        <path id="ArialMT-32" d="M 3222 541 
L 3222 0 
L 194 0 
Q 188 203 259 391 
Q 375 700 629 1000 
Q 884 1300 1366 1694 
Q 2113 2306 2375 2664 
Q 2638 3022 2638 3341 
Q 2638 3675 2398 3904 
Q 2159 4134 1775 4134 
Q 1369 4134 1125 3890 
Q 881 3647 878 3216 
L 300 3275 
Q 359 3922 746 4261 
Q 1134 4600 1788 4600 
Q 2447 4600 2831 4234 
Q 3216 3869 3216 3328 
Q 3216 3053 3103 2787 
Q 2991 2522 2730 2228 
Q 2469 1934 1863 1422 
Q 1356 997 1212 845 
Q 1069 694 975 541 
L 3222 541 
z
" transform="scale(0.015625)"/>
       </defs>
       <use xlink:href="#ArialMT-32"/>
       <use xlink:href="#ArialMT-30" x="55.615234"/>
       <use xlink:href="#ArialMT-2e" x="111.230469"/>
       <use xlink:href="#ArialMT-30" x="139.013672"/>
       <use xlink:href="#ArialMT-25" x="194.628906"/>
      </g>
     </g>
    </g>
    <g id="xtick_3">
     <g id="line2d_3">
      <g>
       <use xlink:href="#m55e22d2ee1" x="477.3168" y="320.04" style="stroke: #000000; stroke-width: 0.8"/>
      </g>
     </g>
     <g id="text_3">
      <!-- 40.0% -->
      <g transform="translate(472.961848 379.404409)rotate(-70)scale(0.18 -0.18)">
       <defs>
        <path id="ArialMT-34" d="M 2069 0 
L 2069 1097 
L 81 1097 
L 81 1613 
L 2172 4581 
L 2631 4581 
L 2631 1613 
L 3250 1613 
L 3250 1097 
L 2631 1097 
L 2631 0 
L 2069 0 
z
M 2069 1613 
L 2069 3678 
L 634 1613 
L 2069 1613 
z
" transform="scale(0.015625)"/>
       </defs>
       <use xlink:href="#ArialMT-34"/>
       <use xlink:href="#ArialMT-30" x="55.615234"/>
       <use xlink:href="#ArialMT-2e" x="111.230469"/>
       <use xlink:href="#ArialMT-30" x="139.013672"/>
       <use xlink:href="#ArialMT-25" x="194.628906"/>
      </g>
     </g>
    </g>
    <g id="xtick_4">
     <g id="line2d_4">
      <g>
       <use xlink:href="#m55e22d2ee1" x="647.3952" y="320.04" style="stroke: #000000; stroke-width: 0.8"/>
      </g>
     </g>
     <g id="text_4">
      <!-- 60.0% -->
      <g transform="translate(643.040248 379.404409)rotate(-70)scale(0.18 -0.18)">
       <defs>
        <path id="ArialMT-36" d="M 3184 3459 
L 2625 3416 
Q 2550 3747 2413 3897 
Q 2184 4138 1850 4138 
Q 1581 4138 1378 3988 
Q 1113 3794 959 3422 
Q 806 3050 800 2363 
Q 1003 2672 1297 2822 
Q 1591 2972 1913 2972 
Q 2475 2972 2870 2558 
Q 3266 2144 3266 1488 
Q 3266 1056 3080 686 
Q 2894 316 2569 119 
Q 2244 -78 1831 -78 
Q 1128 -78 684 439 
Q 241 956 241 2144 
Q 241 3472 731 4075 
Q 1159 4600 1884 4600 
Q 2425 4600 2770 4297 
Q 3116 3994 3184 3459 
z
M 888 1484 
Q 888 1194 1011 928 
Q 1134 663 1356 523 
Q 1578 384 1822 384 
Q 2178 384 2434 671 
Q 2691 959 2691 1453 
Q 2691 1928 2437 2201 
Q 2184 2475 1800 2475 
Q 1419 2475 1153 2201 
Q 888 1928 888 1484 
z
" transform="scale(0.015625)"/>
       </defs>
       <use xlink:href="#ArialMT-36"/>
       <use xlink:href="#ArialMT-30" x="55.615234"/>
       <use xlink:href="#ArialMT-2e" x="111.230469"/>
       <use xlink:href="#ArialMT-30" x="139.013672"/>
       <use xlink:href="#ArialMT-25" x="194.628906"/>
      </g>
     </g>
    </g>
    <g id="xtick_5">
     <g id="line2d_5">
      <g>
       <use xlink:href="#m55e22d2ee1" x="817.4736" y="320.04" style="stroke: #000000; stroke-width: 0.8"/>
      </g>
     </g>
     <g id="text_5">
      <!-- 80.0% -->
      <g transform="translate(813.118648 379.404409)rotate(-70)scale(0.18 -0.18)">
       <defs>
        <path id="ArialMT-38" d="M 1131 2484 
Q 781 2613 612 2850 
Q 444 3088 444 3419 
Q 444 3919 803 4259 
Q 1163 4600 1759 4600 
Q 2359 4600 2725 4251 
Q 3091 3903 3091 3403 
Q 3091 3084 2923 2848 
Q 2756 2613 2416 2484 
Q 2838 2347 3058 2040 
Q 3278 1734 3278 1309 
Q 3278 722 2862 322 
Q 2447 -78 1769 -78 
Q 1091 -78 675 323 
Q 259 725 259 1325 
Q 259 1772 486 2073 
Q 713 2375 1131 2484 
z
M 1019 3438 
Q 1019 3113 1228 2906 
Q 1438 2700 1772 2700 
Q 2097 2700 2305 2904 
Q 2513 3109 2513 3406 
Q 2513 3716 2298 3927 
Q 2084 4138 1766 4138 
Q 1444 4138 1231 3931 
Q 1019 3725 1019 3438 
z
M 838 1322 
Q 838 1081 952 856 
Q 1066 631 1291 507 
Q 1516 384 1775 384 
Q 2178 384 2440 643 
Q 2703 903 2703 1303 
Q 2703 1709 2433 1975 
Q 2163 2241 1756 2241 
Q 1359 2241 1098 1978 
Q 838 1716 838 1322 
z
" transform="scale(0.015625)"/>
       </defs>
       <use xlink:href="#ArialMT-38"/>
       <use xlink:href="#ArialMT-30" x="55.615234"/>
       <use xlink:href="#ArialMT-2e" x="111.230469"/>
       <use xlink:href="#ArialMT-30" x="139.013672"/>
       <use xlink:href="#ArialMT-25" x="194.628906"/>
      </g>
     </g>
    </g>
    <g id="xtick_6">
     <g id="line2d_6">
      <g>
       <use xlink:href="#m55e22d2ee1" x="987.552" y="320.04" style="stroke: #000000; stroke-width: 0.8"/>
      </g>
     </g>
     <g id="text_6">
      <!-- 100.0% -->
      <g transform="translate(981.485291 388.810439)rotate(-70)scale(0.18 -0.18)">
       <defs>
        <path id="ArialMT-31" d="M 2384 0 
L 1822 0 
L 1822 3584 
Q 1619 3391 1289 3197 
Q 959 3003 697 2906 
L 697 3450 
Q 1169 3672 1522 3987 
Q 1875 4303 2022 4600 
L 2384 4600 
L 2384 0 
z
" transform="scale(0.015625)"/>
       </defs>
       <use xlink:href="#ArialMT-31"/>
       <use xlink:href="#ArialMT-30" x="55.615234"/>
       <use xlink:href="#ArialMT-30" x="111.230469"/>
       <use xlink:href="#ArialMT-2e" x="166.845703"/>
       <use xlink:href="#ArialMT-30" x="194.628906"/>
       <use xlink:href="#ArialMT-25" x="250.244141"/>
      </g>
     </g>
    </g>
    <g id="text_7">
     <!-- Cummulative emission reduction  -->
     <g transform="translate(429.811312 406.918078)scale(0.18 -0.18)">
      <defs>
       <path id="ArialMT-43" d="M 3763 1606 
L 4369 1453 
Q 4178 706 3683 314 
Q 3188 -78 2472 -78 
Q 1731 -78 1267 223 
Q 803 525 561 1097 
Q 319 1669 319 2325 
Q 319 3041 592 3573 
Q 866 4106 1370 4382 
Q 1875 4659 2481 4659 
Q 3169 4659 3637 4309 
Q 4106 3959 4291 3325 
L 3694 3184 
Q 3534 3684 3231 3912 
Q 2928 4141 2469 4141 
Q 1941 4141 1586 3887 
Q 1231 3634 1087 3207 
Q 944 2781 944 2328 
Q 944 1744 1114 1308 
Q 1284 872 1643 656 
Q 2003 441 2422 441 
Q 2931 441 3284 734 
Q 3638 1028 3763 1606 
z
" transform="scale(0.015625)"/>
       <path id="ArialMT-75" d="M 2597 0 
L 2597 488 
Q 2209 -75 1544 -75 
Q 1250 -75 995 37 
Q 741 150 617 320 
Q 494 491 444 738 
Q 409 903 409 1263 
L 409 3319 
L 972 3319 
L 972 1478 
Q 972 1038 1006 884 
Q 1059 663 1231 536 
Q 1403 409 1656 409 
Q 1909 409 2131 539 
Q 2353 669 2445 892 
Q 2538 1116 2538 1541 
L 2538 3319 
L 3100 3319 
L 3100 0 
L 2597 0 
z
" transform="scale(0.015625)"/>
       <path id="ArialMT-6d" d="M 422 0 
L 422 3319 
L 925 3319 
L 925 2853 
Q 1081 3097 1340 3245 
Q 1600 3394 1931 3394 
Q 2300 3394 2536 3241 
Q 2772 3088 2869 2813 
Q 3263 3394 3894 3394 
Q 4388 3394 4653 3120 
Q 4919 2847 4919 2278 
L 4919 0 
L 4359 0 
L 4359 2091 
Q 4359 2428 4304 2576 
Q 4250 2725 4106 2815 
Q 3963 2906 3769 2906 
Q 3419 2906 3187 2673 
Q 2956 2441 2956 1928 
L 2956 0 
L 2394 0 
L 2394 2156 
Q 2394 2531 2256 2718 
Q 2119 2906 1806 2906 
Q 1569 2906 1367 2781 
Q 1166 2656 1075 2415 
Q 984 2175 984 1722 
L 984 0 
L 422 0 
z
" transform="scale(0.015625)"/>
       <path id="ArialMT-6c" d="M 409 0 
L 409 4581 
L 972 4581 
L 972 0 
L 409 0 
z
" transform="scale(0.015625)"/>
       <path id="ArialMT-61" d="M 2588 409 
Q 2275 144 1986 34 
Q 1697 -75 1366 -75 
Q 819 -75 525 192 
Q 231 459 231 875 
Q 231 1119 342 1320 
Q 453 1522 633 1644 
Q 813 1766 1038 1828 
Q 1203 1872 1538 1913 
Q 2219 1994 2541 2106 
Q 2544 2222 2544 2253 
Q 2544 2597 2384 2738 
Q 2169 2928 1744 2928 
Q 1347 2928 1158 2789 
Q 969 2650 878 2297 
L 328 2372 
Q 403 2725 575 2942 
Q 747 3159 1072 3276 
Q 1397 3394 1825 3394 
Q 2250 3394 2515 3294 
Q 2781 3194 2906 3042 
Q 3031 2891 3081 2659 
Q 3109 2516 3109 2141 
L 3109 1391 
Q 3109 606 3145 398 
Q 3181 191 3288 0 
L 2700 0 
Q 2613 175 2588 409 
z
M 2541 1666 
Q 2234 1541 1622 1453 
Q 1275 1403 1131 1340 
Q 988 1278 909 1158 
Q 831 1038 831 891 
Q 831 666 1001 516 
Q 1172 366 1500 366 
Q 1825 366 2078 508 
Q 2331 650 2450 897 
Q 2541 1088 2541 1459 
L 2541 1666 
z
" transform="scale(0.015625)"/>
       <path id="ArialMT-74" d="M 1650 503 
L 1731 6 
Q 1494 -44 1306 -44 
Q 1000 -44 831 53 
Q 663 150 594 308 
Q 525 466 525 972 
L 525 2881 
L 113 2881 
L 113 3319 
L 525 3319 
L 525 4141 
L 1084 4478 
L 1084 3319 
L 1650 3319 
L 1650 2881 
L 1084 2881 
L 1084 941 
Q 1084 700 1114 631 
Q 1144 563 1211 522 
Q 1278 481 1403 481 
Q 1497 481 1650 503 
z
" transform="scale(0.015625)"/>
       <path id="ArialMT-69" d="M 425 3934 
L 425 4581 
L 988 4581 
L 988 3934 
L 425 3934 
z
M 425 0 
L 425 3319 
L 988 3319 
L 988 0 
L 425 0 
z
" transform="scale(0.015625)"/>
       <path id="ArialMT-76" d="M 1344 0 
L 81 3319 
L 675 3319 
L 1388 1331 
Q 1503 1009 1600 663 
Q 1675 925 1809 1294 
L 2547 3319 
L 3125 3319 
L 1869 0 
L 1344 0 
z
" transform="scale(0.015625)"/>
       <path id="ArialMT-65" d="M 2694 1069 
L 3275 997 
Q 3138 488 2766 206 
Q 2394 -75 1816 -75 
Q 1088 -75 661 373 
Q 234 822 234 1631 
Q 234 2469 665 2931 
Q 1097 3394 1784 3394 
Q 2450 3394 2872 2941 
Q 3294 2488 3294 1666 
Q 3294 1616 3291 1516 
L 816 1516 
Q 847 969 1125 678 
Q 1403 388 1819 388 
Q 2128 388 2347 550 
Q 2566 713 2694 1069 
z
M 847 1978 
L 2700 1978 
Q 2663 2397 2488 2606 
Q 2219 2931 1791 2931 
Q 1403 2931 1139 2672 
Q 875 2413 847 1978 
z
" transform="scale(0.015625)"/>
       <path id="ArialMT-20" transform="scale(0.015625)"/>
       <path id="ArialMT-73" d="M 197 991 
L 753 1078 
Q 800 744 1014 566 
Q 1228 388 1613 388 
Q 2000 388 2187 545 
Q 2375 703 2375 916 
Q 2375 1106 2209 1216 
Q 2094 1291 1634 1406 
Q 1016 1563 777 1677 
Q 538 1791 414 1992 
Q 291 2194 291 2438 
Q 291 2659 392 2848 
Q 494 3038 669 3163 
Q 800 3259 1026 3326 
Q 1253 3394 1513 3394 
Q 1903 3394 2198 3281 
Q 2494 3169 2634 2976 
Q 2775 2784 2828 2463 
L 2278 2388 
Q 2241 2644 2061 2787 
Q 1881 2931 1553 2931 
Q 1166 2931 1000 2803 
Q 834 2675 834 2503 
Q 834 2394 903 2306 
Q 972 2216 1119 2156 
Q 1203 2125 1616 2013 
Q 2213 1853 2448 1751 
Q 2684 1650 2818 1456 
Q 2953 1263 2953 975 
Q 2953 694 2789 445 
Q 2625 197 2315 61 
Q 2006 -75 1616 -75 
Q 969 -75 630 194 
Q 291 463 197 991 
z
" transform="scale(0.015625)"/>
       <path id="ArialMT-6f" d="M 213 1659 
Q 213 2581 725 3025 
Q 1153 3394 1769 3394 
Q 2453 3394 2887 2945 
Q 3322 2497 3322 1706 
Q 3322 1066 3130 698 
Q 2938 331 2570 128 
Q 2203 -75 1769 -75 
Q 1072 -75 642 372 
Q 213 819 213 1659 
z
M 791 1659 
Q 791 1022 1069 705 
Q 1347 388 1769 388 
Q 2188 388 2466 706 
Q 2744 1025 2744 1678 
Q 2744 2294 2464 2611 
Q 2184 2928 1769 2928 
Q 1347 2928 1069 2612 
Q 791 2297 791 1659 
z
" transform="scale(0.015625)"/>
       <path id="ArialMT-6e" d="M 422 0 
L 422 3319 
L 928 3319 
L 928 2847 
Q 1294 3394 1984 3394 
Q 2284 3394 2536 3286 
Q 2788 3178 2913 3003 
Q 3038 2828 3088 2588 
Q 3119 2431 3119 2041 
L 3119 0 
L 2556 0 
L 2556 2019 
Q 2556 2363 2490 2533 
Q 2425 2703 2258 2804 
Q 2091 2906 1866 2906 
Q 1506 2906 1245 2678 
Q 984 2450 984 1813 
L 984 0 
L 422 0 
z
" transform="scale(0.015625)"/>
       <path id="ArialMT-72" d="M 416 0 
L 416 3319 
L 922 3319 
L 922 2816 
Q 1116 3169 1280 3281 
Q 1444 3394 1641 3394 
Q 1925 3394 2219 3213 
L 2025 2691 
Q 1819 2813 1613 2813 
Q 1428 2813 1281 2702 
Q 1134 2591 1072 2394 
Q 978 2094 978 1738 
L 978 0 
L 416 0 
z
" transform="scale(0.015625)"/>
       <path id="ArialMT-64" d="M 2575 0 
L 2575 419 
Q 2259 -75 1647 -75 
Q 1250 -75 917 144 
Q 584 363 401 755 
Q 219 1147 219 1656 
Q 219 2153 384 2558 
Q 550 2963 881 3178 
Q 1213 3394 1622 3394 
Q 1922 3394 2156 3267 
Q 2391 3141 2538 2938 
L 2538 4581 
L 3097 4581 
L 3097 0 
L 2575 0 
z
M 797 1656 
Q 797 1019 1065 703 
Q 1334 388 1700 388 
Q 2069 388 2326 689 
Q 2584 991 2584 1609 
Q 2584 2291 2321 2609 
Q 2059 2928 1675 2928 
Q 1300 2928 1048 2622 
Q 797 2316 797 1656 
z
" transform="scale(0.015625)"/>
       <path id="ArialMT-63" d="M 2588 1216 
L 3141 1144 
Q 3050 572 2676 248 
Q 2303 -75 1759 -75 
Q 1078 -75 664 370 
Q 250 816 250 1647 
Q 250 2184 428 2587 
Q 606 2991 970 3192 
Q 1334 3394 1763 3394 
Q 2303 3394 2647 3120 
Q 2991 2847 3088 2344 
L 2541 2259 
Q 2463 2594 2264 2762 
Q 2066 2931 1784 2931 
Q 1359 2931 1093 2626 
Q 828 2322 828 1663 
Q 828 994 1084 691 
Q 1341 388 1753 388 
Q 2084 388 2306 591 
Q 2528 794 2588 1216 
z
" transform="scale(0.015625)"/>
      </defs>
      <use xlink:href="#ArialMT-43"/>
      <use xlink:href="#ArialMT-75" x="72.216797"/>
      <use xlink:href="#ArialMT-6d" x="127.832031"/>
      <use xlink:href="#ArialMT-6d" x="211.132812"/>
      <use xlink:href="#ArialMT-75" x="294.433594"/>
      <use xlink:href="#ArialMT-6c" x="350.048828"/>
      <use xlink:href="#ArialMT-61" x="372.265625"/>
      <use xlink:href="#ArialMT-74" x="427.880859"/>
      <use xlink:href="#ArialMT-69" x="455.664062"/>
      <use xlink:href="#ArialMT-76" x="477.880859"/>
      <use xlink:href="#ArialMT-65" x="527.880859"/>
      <use xlink:href="#ArialMT-20" x="583.496094"/>
      <use xlink:href="#ArialMT-65" x="611.279297"/>
      <use xlink:href="#ArialMT-6d" x="666.894531"/>
      <use xlink:href="#ArialMT-69" x="750.195312"/>
      <use xlink:href="#ArialMT-73" x="772.412109"/>
      <use xlink:href="#ArialMT-73" x="822.412109"/>
      <use xlink:href="#ArialMT-69" x="872.412109"/>
      <use xlink:href="#ArialMT-6f" x="894.628906"/>
      <use xlink:href="#ArialMT-6e" x="950.244141"/>
      <use xlink:href="#ArialMT-20" x="1005.859375"/>
      <use xlink:href="#ArialMT-72" x="1033.642578"/>
      <use xlink:href="#ArialMT-65" x="1066.943359"/>
      <use xlink:href="#ArialMT-64" x="1122.558594"/>
      <use xlink:href="#ArialMT-75" x="1178.173828"/>
      <use xlink:href="#ArialMT-63" x="1233.789062"/>
      <use xlink:href="#ArialMT-74" x="1283.789062"/>
      <use xlink:href="#ArialMT-69" x="1311.572266"/>
      <use xlink:href="#ArialMT-6f" x="1333.789062"/>
      <use xlink:href="#ArialMT-6e" x="1389.404297"/>
      <use xlink:href="#ArialMT-20" x="1445.019531"/>
     </g>
    </g>
   </g>
   <g id="matplotlib.axis_2">
    <g id="ytick_1">
     <g id="line2d_7">
      <defs>
       <path id="m94a1ee193f" d="M 0 0 
L -3.5 0 
" style="stroke: #000000; stroke-width: 0.8"/>
      </defs>
      <g>
       <use xlink:href="#m94a1ee193f" x="137.16" y="320.04" style="stroke: #000000; stroke-width: 0.8"/>
      </g>
     </g>
     <g id="text_8">
      <!-- 60 -->
      <g transform="translate(110.140625 326.482031)scale(0.18 -0.18)">
       <use xlink:href="#ArialMT-36"/>
       <use xlink:href="#ArialMT-30" x="55.615234"/>
      </g>
     </g>
    </g>
    <g id="ytick_2">
     <g id="line2d_8">
      <g>
       <use xlink:href="#m94a1ee193f" x="137.16" y="274.0152" style="stroke: #000000; stroke-width: 0.8"/>
      </g>
     </g>
     <g id="text_9">
      <!-- 70 -->
      <g transform="translate(110.140625 280.457231)scale(0.18 -0.18)">
       <defs>
        <path id="ArialMT-37" d="M 303 3981 
L 303 4522 
L 3269 4522 
L 3269 4084 
Q 2831 3619 2401 2847 
Q 1972 2075 1738 1259 
Q 1569 684 1522 0 
L 944 0 
Q 953 541 1156 1306 
Q 1359 2072 1739 2783 
Q 2119 3494 2547 3981 
L 303 3981 
z
" transform="scale(0.015625)"/>
       </defs>
       <use xlink:href="#ArialMT-37"/>
       <use xlink:href="#ArialMT-30" x="55.615234"/>
      </g>
     </g>
    </g>
    <g id="ytick_3">
     <g id="line2d_9">
      <g>
       <use xlink:href="#m94a1ee193f" x="137.16" y="227.9904" style="stroke: #000000; stroke-width: 0.8"/>
      </g>
     </g>
     <g id="text_10">
      <!-- 80 -->
      <g transform="translate(110.140625 234.432431)scale(0.18 -0.18)">
       <use xlink:href="#ArialMT-38"/>
       <use xlink:href="#ArialMT-30" x="55.615234"/>
      </g>
     </g>
    </g>
    <g id="ytick_4">
     <g id="line2d_10">
      <g>
       <use xlink:href="#m94a1ee193f" x="137.16" y="181.9656" style="stroke: #000000; stroke-width: 0.8"/>
      </g>
     </g>
     <g id="text_11">
      <!-- 90 -->
      <g transform="translate(110.140625 188.407631)scale(0.18 -0.18)">
       <defs>
        <path id="ArialMT-39" d="M 350 1059 
L 891 1109 
Q 959 728 1153 556 
Q 1347 384 1650 384 
Q 1909 384 2104 503 
Q 2300 622 2425 820 
Q 2550 1019 2634 1356 
Q 2719 1694 2719 2044 
Q 2719 2081 2716 2156 
Q 2547 1888 2255 1720 
Q 1963 1553 1622 1553 
Q 1053 1553 659 1965 
Q 266 2378 266 3053 
Q 266 3750 677 4175 
Q 1088 4600 1706 4600 
Q 2153 4600 2523 4359 
Q 2894 4119 3086 3673 
Q 3278 3228 3278 2384 
Q 3278 1506 3087 986 
Q 2897 466 2520 194 
Q 2144 -78 1638 -78 
Q 1100 -78 759 220 
Q 419 519 350 1059 
z
M 2653 3081 
Q 2653 3566 2395 3850 
Q 2138 4134 1775 4134 
Q 1400 4134 1122 3828 
Q 844 3522 844 3034 
Q 844 2597 1108 2323 
Q 1372 2050 1759 2050 
Q 2150 2050 2401 2323 
Q 2653 2597 2653 3081 
z
" transform="scale(0.015625)"/>
       </defs>
       <use xlink:href="#ArialMT-39"/>
       <use xlink:href="#ArialMT-30" x="55.615234"/>
      </g>
     </g>
    </g>
    <g id="ytick_5">
     <g id="line2d_11">
      <g>
       <use xlink:href="#m94a1ee193f" x="137.16" y="135.9408" style="stroke: #000000; stroke-width: 0.8"/>
      </g>
     </g>
     <g id="text_12">
      <!-- 100 -->
      <g transform="translate(100.130938 142.382831)scale(0.18 -0.18)">
       <use xlink:href="#ArialMT-31"/>
       <use xlink:href="#ArialMT-30" x="55.615234"/>
       <use xlink:href="#ArialMT-30" x="111.230469"/>
      </g>
     </g>
    </g>
    <g id="ytick_6">
     <g id="line2d_12">
      <g>
       <use xlink:href="#m94a1ee193f" x="137.16" y="89.916" style="stroke: #000000; stroke-width: 0.8"/>
      </g>
     </g>
     <g id="text_13">
      <!-- 110 -->
      <g transform="translate(101.458438 96.358031)scale(0.18 -0.18)">
       <use xlink:href="#ArialMT-31"/>
       <use xlink:href="#ArialMT-31" x="48.240234"/>
       <use xlink:href="#ArialMT-30" x="103.855469"/>
      </g>
     </g>
    </g>
    <g id="ytick_7">
     <g id="line2d_13">
      <g>
       <use xlink:href="#m94a1ee193f" x="137.16" y="43.8912" style="stroke: #000000; stroke-width: 0.8"/>
      </g>
     </g>
     <g id="text_14">
      <!-- 120 -->
      <g transform="translate(100.130938 50.333231)scale(0.18 -0.18)">
       <use xlink:href="#ArialMT-31"/>
       <use xlink:href="#ArialMT-32" x="55.615234"/>
       <use xlink:href="#ArialMT-30" x="111.230469"/>
      </g>
     </g>
    </g>
    <g id="text_15">
     <!-- Added cost of cement in [$€/t_{cement}$] -->
     <g transform="translate(92.530937 322.4556)rotate(-90)scale(0.18 -0.18)">
      <defs>
       <path id="ArialMT-41" d="M -9 0 
L 1750 4581 
L 2403 4581 
L 4278 0 
L 3588 0 
L 3053 1388 
L 1138 1388 
L 634 0 
L -9 0 
z
M 1313 1881 
L 2866 1881 
L 2388 3150 
Q 2169 3728 2063 4100 
Q 1975 3659 1816 3225 
L 1313 1881 
z
" transform="scale(0.015625)"/>
       <path id="ArialMT-66" d="M 556 0 
L 556 2881 
L 59 2881 
L 59 3319 
L 556 3319 
L 556 3672 
Q 556 4006 616 4169 
Q 697 4388 901 4523 
Q 1106 4659 1475 4659 
Q 1713 4659 2000 4603 
L 1916 4113 
Q 1741 4144 1584 4144 
Q 1328 4144 1222 4034 
Q 1116 3925 1116 3625 
L 1116 3319 
L 1763 3319 
L 1763 2881 
L 1116 2881 
L 1116 0 
L 556 0 
z
" transform="scale(0.015625)"/>
       <path id="ArialMT-5b" d="M 434 -1272 
L 434 4581 
L 1675 4581 
L 1675 4116 
L 997 4116 
L 997 -806 
L 1675 -806 
L 1675 -1272 
L 434 -1272 
z
" transform="scale(0.015625)"/>
       <path id="DejaVuSans-20ac" d="M 3647 4306 
L 3647 3641 
Q 3363 3969 3098 4109 
Q 2834 4250 2516 4250 
Q 2025 4250 1709 3937 
Q 1394 3625 1294 3041 
L 3097 3041 
L 2925 2656 
L 1244 2656 
Q 1238 2581 1236 2509 
Q 1234 2438 1234 2328 
Q 1234 2228 1236 2156 
Q 1238 2084 1244 2009 
L 2638 2009 
L 2463 1625 
L 1294 1625 
Q 1394 1041 1709 725 
Q 2025 409 2516 409 
Q 2834 409 3098 550 
Q 3363 691 3647 1019 
L 3647 359 
Q 3369 134 3080 21 
Q 2791 -91 2491 -91 
Q 1750 -91 1267 362 
Q 784 816 659 1625 
L 0 1625 
L 172 2009 
L 606 2009 
Q 606 2081 604 2154 
Q 603 2228 603 2328 
Q 603 2438 604 2511 
Q 606 2584 606 2656 
L 0 2656 
L 172 3041 
L 659 3041 
Q 784 3844 1268 4297 
Q 1753 4750 2491 4750 
Q 2797 4750 3086 4639 
Q 3375 4528 3647 4306 
z
" transform="scale(0.015625)"/>
       <path id="DejaVuSans-2f" d="M 1625 4666 
L 2156 4666 
L 531 -594 
L 0 -594 
L 1625 4666 
z
" transform="scale(0.015625)"/>
       <path id="DejaVuSans-Oblique-74" d="M 2706 3500 
L 2619 3053 
L 1472 3053 
L 1100 1153 
Q 1081 1047 1072 975 
Q 1063 903 1063 863 
Q 1063 663 1183 572 
Q 1303 481 1569 481 
L 2150 481 
L 2053 0 
L 1503 0 
Q 991 0 739 200 
Q 488 400 488 806 
Q 488 878 497 964 
Q 506 1050 525 1153 
L 897 3053 
L 409 3053 
L 500 3500 
L 978 3500 
L 1172 4494 
L 1747 4494 
L 1556 3500 
L 2706 3500 
z
" transform="scale(0.015625)"/>
       <path id="DejaVuSans-Oblique-63" d="M 3431 3366 
L 3316 2797 
Q 3109 2947 2876 3022 
Q 2644 3097 2394 3097 
Q 2119 3097 1870 3000 
Q 1622 2903 1453 2725 
Q 1184 2453 1037 2087 
Q 891 1722 891 1331 
Q 891 859 1127 628 
Q 1363 397 1844 397 
Q 2081 397 2348 469 
Q 2616 541 2906 684 
L 2797 116 
Q 2547 13 2283 -39 
Q 2019 -91 1741 -91 
Q 1044 -91 669 257 
Q 294 606 294 1253 
Q 294 1797 489 2255 
Q 684 2713 1069 3078 
Q 1331 3328 1684 3456 
Q 2038 3584 2456 3584 
Q 2700 3584 2940 3529 
Q 3181 3475 3431 3366 
z
" transform="scale(0.015625)"/>
       <path id="DejaVuSans-Oblique-65" d="M 3078 2063 
Q 3088 2113 3092 2166 
Q 3097 2219 3097 2272 
Q 3097 2653 2873 2875 
Q 2650 3097 2266 3097 
Q 1838 3097 1509 2826 
Q 1181 2556 1013 2059 
L 3078 2063 
z
M 3578 1613 
L 903 1613 
Q 884 1494 878 1425 
Q 872 1356 872 1306 
Q 872 872 1139 634 
Q 1406 397 1894 397 
Q 2269 397 2603 481 
Q 2938 566 3225 728 
L 3116 159 
Q 2806 34 2476 -28 
Q 2147 -91 1806 -91 
Q 1078 -91 686 257 
Q 294 606 294 1247 
Q 294 1794 489 2264 
Q 684 2734 1063 3103 
Q 1306 3334 1642 3459 
Q 1978 3584 2356 3584 
Q 2950 3584 3301 3228 
Q 3653 2872 3653 2272 
Q 3653 2128 3634 1964 
Q 3616 1800 3578 1613 
z
" transform="scale(0.015625)"/>
       <path id="DejaVuSans-Oblique-6d" d="M 5747 2113 
L 5338 0 
L 4763 0 
L 5166 2094 
Q 5191 2228 5203 2325 
Q 5216 2422 5216 2491 
Q 5216 2772 5059 2928 
Q 4903 3084 4622 3084 
Q 4203 3084 3875 2770 
Q 3547 2456 3450 1953 
L 3066 0 
L 2491 0 
L 2900 2094 
Q 2925 2209 2937 2307 
Q 2950 2406 2950 2484 
Q 2950 2769 2794 2926 
Q 2638 3084 2363 3084 
Q 1938 3084 1609 2770 
Q 1281 2456 1184 1953 
L 800 0 
L 225 0 
L 909 3500 
L 1484 3500 
L 1375 2956 
Q 1609 3263 1923 3423 
Q 2238 3584 2597 3584 
Q 2978 3584 3223 3384 
Q 3469 3184 3519 2828 
Q 3781 3197 4126 3390 
Q 4472 3584 4856 3584 
Q 5306 3584 5551 3325 
Q 5797 3066 5797 2591 
Q 5797 2488 5784 2364 
Q 5772 2241 5747 2113 
z
" transform="scale(0.015625)"/>
       <path id="DejaVuSans-Oblique-6e" d="M 3566 2113 
L 3156 0 
L 2578 0 
L 2988 2091 
Q 3016 2238 3031 2350 
Q 3047 2463 3047 2528 
Q 3047 2791 2881 2937 
Q 2716 3084 2419 3084 
Q 1956 3084 1622 2776 
Q 1288 2469 1184 1941 
L 800 0 
L 225 0 
L 903 3500 
L 1478 3500 
L 1363 2950 
Q 1603 3253 1940 3418 
Q 2278 3584 2650 3584 
Q 3113 3584 3367 3334 
Q 3622 3084 3622 2631 
Q 3622 2519 3608 2391 
Q 3594 2263 3566 2113 
z
" transform="scale(0.015625)"/>
       <path id="ArialMT-5d" d="M 1363 -1272 
L 122 -1272 
L 122 -806 
L 800 -806 
L 800 4116 
L 122 4116 
L 122 4581 
L 1363 4581 
L 1363 -1272 
z
" transform="scale(0.015625)"/>
      </defs>
      <use xlink:href="#ArialMT-41" transform="translate(0 0.78125)"/>
      <use xlink:href="#ArialMT-64" transform="translate(66.699219 0.78125)"/>
      <use xlink:href="#ArialMT-64" transform="translate(122.314453 0.78125)"/>
      <use xlink:href="#ArialMT-65" transform="translate(177.929688 0.78125)"/>
      <use xlink:href="#ArialMT-64" transform="translate(233.544922 0.78125)"/>
      <use xlink:href="#ArialMT-20" transform="translate(289.160156 0.78125)"/>
      <use xlink:href="#ArialMT-63" transform="translate(316.943359 0.78125)"/>
      <use xlink:href="#ArialMT-6f" transform="translate(366.943359 0.78125)"/>
      <use xlink:href="#ArialMT-73" transform="translate(422.558594 0.78125)"/>
      <use xlink:href="#ArialMT-74" transform="translate(472.558594 0.78125)"/>
      <use xlink:href="#ArialMT-20" transform="translate(500.341797 0.78125)"/>
      <use xlink:href="#ArialMT-6f" transform="translate(528.125 0.78125)"/>
      <use xlink:href="#ArialMT-66" transform="translate(583.740234 0.78125)"/>
      <use xlink:href="#ArialMT-20" transform="translate(611.523438 0.78125)"/>
      <use xlink:href="#ArialMT-63" transform="translate(639.306641 0.78125)"/>
      <use xlink:href="#ArialMT-65" transform="translate(689.306641 0.78125)"/>
      <use xlink:href="#ArialMT-6d" transform="translate(744.921875 0.78125)"/>
      <use xlink:href="#ArialMT-65" transform="translate(828.222656 0.78125)"/>
      <use xlink:href="#ArialMT-6e" transform="translate(883.837891 0.78125)"/>
      <use xlink:href="#ArialMT-74" transform="translate(939.453125 0.78125)"/>
      <use xlink:href="#ArialMT-20" transform="translate(967.236328 0.78125)"/>
      <use xlink:href="#ArialMT-69" transform="translate(995.019531 0.78125)"/>
      <use xlink:href="#ArialMT-6e" transform="translate(1017.236328 0.78125)"/>
      <use xlink:href="#ArialMT-20" transform="translate(1072.851562 0.78125)"/>
      <use xlink:href="#ArialMT-5b" transform="translate(1100.634766 0.78125)"/>
      <use xlink:href="#DejaVuSans-20ac" transform="translate(1128.417969 0.78125)"/>
      <use xlink:href="#DejaVuSans-2f" transform="translate(1192.041016 0.78125)"/>
      <use xlink:href="#DejaVuSans-Oblique-74" transform="translate(1225.732422 0.78125)"/>
      <use xlink:href="#DejaVuSans-Oblique-63" transform="translate(1264.941406 -15.625)scale(0.7)"/>
      <use xlink:href="#DejaVuSans-Oblique-65" transform="translate(1303.427734 -15.625)scale(0.7)"/>
      <use xlink:href="#DejaVuSans-Oblique-6d" transform="translate(1346.494141 -15.625)scale(0.7)"/>
      <use xlink:href="#DejaVuSans-Oblique-65" transform="translate(1414.682617 -15.625)scale(0.7)"/>
      <use xlink:href="#DejaVuSans-Oblique-6e" transform="translate(1457.749023 -15.625)scale(0.7)"/>
      <use xlink:href="#DejaVuSans-Oblique-74" transform="translate(1502.114258 -15.625)scale(0.7)"/>
      <use xlink:href="#ArialMT-5d" transform="translate(1532.294922 0.78125)"/>
     </g>
    </g>
   </g>
   <g id="line2d_14">
    <path d="M 137.16 231.863647 
L 137.16 231.863647 
L 173.285843 231.863647 
L 173.285843 226.774411 
L 211.396623 226.774411 
L 211.396623 224.252626 
L 251.095352 224.252626 
L 251.095352 224.041144 
L 364.936557 224.041144 
L 364.936557 222.694074 
L 424.48465 222.694074 
L 424.48465 215.340508 
L 476.092998 215.340508 
L 476.092998 215.039614 
L 547.55071 215.039614 
L 547.55071 212.333936 
L 674.797794 212.333936 
L 674.797794 212.198349 
L 702.586905 212.198349 
L 702.586905 211.597943 
L 788.336159 211.597943 
L 788.336159 207.67299 
L 834.783672 207.67299 
L 834.783672 202.780426 
L 862.572782 202.780426 
L 862.572782 183.692748 
L 881.628172 183.692748 
L 881.628172 170.691446 
L 901.477536 170.691446 
L 901.477536 169.871085 
L 933.23652 169.871085 
L 933.23652 163.477922 
L 972.935248 163.477922 
" clip-path="url(#pca5a59ea0a)" style="fill: none; stroke: #8dd3c7; stroke-width: 4; stroke-linecap: square"/>
   </g>
   <g id="line2d_15">
    <path d="M 137.16 148.824666 
L 137.16 148.824666 
L 169.649888 148.824666 
L 169.649888 144.875057 
L 197.633079 144.875057 
L 197.633079 142.283746 
L 249.655097 142.283746 
L 249.655097 142.231681 
L 278.115716 142.231681 
L 278.115716 141.906306 
L 391.971973 141.906306 
L 391.971973 141.759117 
L 431.869956 141.759117 
L 431.869956 141.232154 
L 471.902799 141.232154 
L 471.902799 139.488036 
L 510.359654 139.488036 
L 510.359654 139.459026 
L 529.621506 139.459026 
L 529.621506 136.60117 
L 550.270795 136.60117 
L 550.270795 136.54663 
L 636.891032 136.54663 
L 636.891032 134.838697 
L 708.978979 134.838697 
L 708.978979 131.309386 
L 746.721556 131.309386 
L 746.721556 130.479432 
L 794.649376 130.479432 
L 794.649376 130.144474 
L 925.968133 130.144474 
L 925.968133 122.136839 
L 988.389284 122.136839 
" clip-path="url(#pca5a59ea0a)" style="fill: none; stroke: #ffffb3; stroke-width: 4; stroke-linecap: square"/>
   </g>
   <g id="line2d_16">
    <path d="M 137.16 236.230793 
L 137.16 236.230793 
L 173.285843 236.230793 
L 173.285843 229.530044 
L 211.396623 229.530044 
L 211.396623 227.00826 
L 251.095352 227.00826 
L 251.095352 225.449707 
L 310.643445 225.449707 
L 310.643445 221.164341 
L 362.251793 221.164341 
L 362.251793 217.795248 
L 433.709505 217.795248 
L 433.709505 217.341492 
L 549.933697 217.341492 
L 549.933697 214.353577 
L 635.682952 214.353577 
L 635.682952 205.09506 
L 663.472062 205.09506 
L 663.472062 196.835825 
L 691.946418 196.835825 
L 691.946418 194.21838 
L 822.464737 194.21838 
L 822.464737 190.406197 
L 862.163466 190.406197 
L 862.163466 189.66172 
L 909.803193 189.66172 
L 909.803193 188.458676 
L 928.858583 188.458676 
L 928.858583 175.058591 
L 948.707948 175.058591 
L 948.707948 161.221066 
L 981.168843 161.221066 
" clip-path="url(#pca5a59ea0a)" style="fill: none; stroke: #bebada; stroke-width: 4; stroke-linecap: square"/>
   </g>
   <g id="line2d_17">
    <path d="M 137.16 236.700536 
L 137.16 236.700536 
L 173.285843 236.700536 
L 173.285843 231.611299 
L 211.396623 231.611299 
L 211.396623 229.089515 
L 251.095352 229.089515 
L 251.095352 227.530962 
L 310.643445 227.530962 
L 310.643445 224.720353 
L 362.251793 224.720353 
L 362.251793 219.876503 
L 433.709505 219.876503 
L 433.709505 217.062112 
L 549.933697 217.062112 
L 549.933697 216.434832 
L 635.682952 216.434832 
L 635.682952 207.617315 
L 663.472062 207.617315 
L 663.472062 196.436711 
L 691.946418 196.436711 
L 691.946418 193.819266 
L 822.464737 193.819266 
L 822.464737 189.262606 
L 870.104464 189.262606 
L 870.104464 188.059562 
L 889.159854 188.059562 
L 889.159854 175.528334 
L 909.009219 175.528334 
L 909.009219 166.451105 
L 948.707948 166.451105 
L 948.707948 160.821952 
L 981.168843 160.821952 
" clip-path="url(#pca5a59ea0a)" style="fill: none; stroke: #fb8072; stroke-width: 4; stroke-linecap: square"/>
   </g>
   <g id="patch_3">
    <path d="M 137.16 320.04 
L 137.16 43.8912 
" style="fill: none; stroke: #000000; stroke-width: 0.8; stroke-linejoin: miter; stroke-linecap: square"/>
   </g>
   <g id="patch_4">
    <path d="M 987.552 320.04 
L 987.552 43.8912 
" style="fill: none; stroke: #000000; stroke-width: 0.8; stroke-linejoin: miter; stroke-linecap: square"/>
   </g>
   <g id="patch_5">
    <path d="M 137.16 320.04 
L 987.552 320.04 
" style="fill: none; stroke: #000000; stroke-width: 0.8; stroke-linejoin: miter; stroke-linecap: square"/>
   </g>
   <g id="patch_6">
    <path d="M 137.16 43.8912 
L 987.552 43.8912 
" style="fill: none; stroke: #000000; stroke-width: 0.8; stroke-linejoin: miter; stroke-linecap: square"/>
   </g>
   <g id="legend_1">
    <g id="patch_7">
     <path d="M 802.682625 122.09745 
L 979.152 122.09745 
Q 981.552 122.09745 981.552 119.69745 
L 981.552 52.2912 
Q 981.552 49.8912 979.152 49.8912 
L 802.682625 49.8912 
Q 800.282625 49.8912 800.282625 52.2912 
L 800.282625 119.69745 
Q 800.282625 122.09745 802.682625 122.09745 
z
" style="fill: #ffffff; opacity: 0.8; stroke: #cccccc; stroke-linejoin: miter"/>
    </g>
    <g id="line2d_18">
     <path d="M 805.082625 59.080575 
L 805.082625 59.080575 
L 817.082625 59.080575 
L 817.082625 59.080575 
L 829.082625 59.080575 
" style="fill: none; stroke: #8dd3c7; stroke-width: 4; stroke-linecap: square"/>
    </g>
    <g id="text_16">
     <!-- UK_no_clay_no_biomass -->
     <g transform="translate(838.682625 63.280575)scale(0.12 -0.12)">
      <defs>
       <path id="ArialMT-55" d="M 3500 4581 
L 4106 4581 
L 4106 1934 
Q 4106 1244 3950 837 
Q 3794 431 3386 176 
Q 2978 -78 2316 -78 
Q 1672 -78 1262 144 
Q 853 366 678 786 
Q 503 1206 503 1934 
L 503 4581 
L 1109 4581 
L 1109 1938 
Q 1109 1341 1220 1058 
Q 1331 775 1601 622 
Q 1872 469 2263 469 
Q 2931 469 3215 772 
Q 3500 1075 3500 1938 
L 3500 4581 
z
" transform="scale(0.015625)"/>
       <path id="ArialMT-4b" d="M 469 0 
L 469 4581 
L 1075 4581 
L 1075 2309 
L 3350 4581 
L 4172 4581 
L 2250 2725 
L 4256 0 
L 3456 0 
L 1825 2319 
L 1075 1588 
L 1075 0 
L 469 0 
z
" transform="scale(0.015625)"/>
       <path id="ArialMT-5f" d="M -97 -1272 
L -97 -866 
L 3631 -866 
L 3631 -1272 
L -97 -1272 
z
" transform="scale(0.015625)"/>
       <path id="ArialMT-79" d="M 397 -1278 
L 334 -750 
Q 519 -800 656 -800 
Q 844 -800 956 -737 
Q 1069 -675 1141 -563 
Q 1194 -478 1313 -144 
Q 1328 -97 1363 -6 
L 103 3319 
L 709 3319 
L 1400 1397 
Q 1534 1031 1641 628 
Q 1738 1016 1872 1384 
L 2581 3319 
L 3144 3319 
L 1881 -56 
Q 1678 -603 1566 -809 
Q 1416 -1088 1222 -1217 
Q 1028 -1347 759 -1347 
Q 597 -1347 397 -1278 
z
" transform="scale(0.015625)"/>
       <path id="ArialMT-62" d="M 941 0 
L 419 0 
L 419 4581 
L 981 4581 
L 981 2947 
Q 1338 3394 1891 3394 
Q 2197 3394 2470 3270 
Q 2744 3147 2920 2923 
Q 3097 2700 3197 2384 
Q 3297 2069 3297 1709 
Q 3297 856 2875 390 
Q 2453 -75 1863 -75 
Q 1275 -75 941 416 
L 941 0 
z
M 934 1684 
Q 934 1088 1097 822 
Q 1363 388 1816 388 
Q 2184 388 2453 708 
Q 2722 1028 2722 1663 
Q 2722 2313 2464 2622 
Q 2206 2931 1841 2931 
Q 1472 2931 1203 2611 
Q 934 2291 934 1684 
z
" transform="scale(0.015625)"/>
      </defs>
      <use xlink:href="#ArialMT-55"/>
      <use xlink:href="#ArialMT-4b" x="72.216797"/>
      <use xlink:href="#ArialMT-5f" x="138.916016"/>
      <use xlink:href="#ArialMT-6e" x="194.53125"/>
      <use xlink:href="#ArialMT-6f" x="250.146484"/>
      <use xlink:href="#ArialMT-5f" x="305.761719"/>
      <use xlink:href="#ArialMT-63" x="361.376953"/>
      <use xlink:href="#ArialMT-6c" x="411.376953"/>
      <use xlink:href="#ArialMT-61" x="433.59375"/>
      <use xlink:href="#ArialMT-79" x="489.208984"/>
      <use xlink:href="#ArialMT-5f" x="539.208984"/>
      <use xlink:href="#ArialMT-6e" x="594.824219"/>
      <use xlink:href="#ArialMT-6f" x="650.439453"/>
      <use xlink:href="#ArialMT-5f" x="706.054688"/>
      <use xlink:href="#ArialMT-62" x="761.669922"/>
      <use xlink:href="#ArialMT-69" x="817.285156"/>
      <use xlink:href="#ArialMT-6f" x="839.501953"/>
      <use xlink:href="#ArialMT-6d" x="895.117188"/>
      <use xlink:href="#ArialMT-61" x="978.417969"/>
      <use xlink:href="#ArialMT-73" x="1034.033203"/>
      <use xlink:href="#ArialMT-73" x="1084.033203"/>
     </g>
    </g>
    <g id="line2d_19">
     <path d="M 805.082625 76.341825 
L 805.082625 76.341825 
L 817.082625 76.341825 
L 817.082625 76.341825 
L 829.082625 76.341825 
" style="fill: none; stroke: #ffffb3; stroke-width: 4; stroke-linecap: square"/>
    </g>
    <g id="text_17">
     <!-- UK_no_clay_no_CCS -->
     <g transform="translate(838.682625 80.541825)scale(0.12 -0.12)">
      <defs>
       <path id="ArialMT-53" d="M 288 1472 
L 859 1522 
Q 900 1178 1048 958 
Q 1197 738 1509 602 
Q 1822 466 2213 466 
Q 2559 466 2825 569 
Q 3091 672 3220 851 
Q 3350 1031 3350 1244 
Q 3350 1459 3225 1620 
Q 3100 1781 2813 1891 
Q 2628 1963 1997 2114 
Q 1366 2266 1113 2400 
Q 784 2572 623 2826 
Q 463 3081 463 3397 
Q 463 3744 659 4045 
Q 856 4347 1234 4503 
Q 1613 4659 2075 4659 
Q 2584 4659 2973 4495 
Q 3363 4331 3572 4012 
Q 3781 3694 3797 3291 
L 3216 3247 
Q 3169 3681 2898 3903 
Q 2628 4125 2100 4125 
Q 1550 4125 1298 3923 
Q 1047 3722 1047 3438 
Q 1047 3191 1225 3031 
Q 1400 2872 2139 2705 
Q 2878 2538 3153 2413 
Q 3553 2228 3743 1945 
Q 3934 1663 3934 1294 
Q 3934 928 3725 604 
Q 3516 281 3123 101 
Q 2731 -78 2241 -78 
Q 1619 -78 1198 103 
Q 778 284 539 648 
Q 300 1013 288 1472 
z
" transform="scale(0.015625)"/>
      </defs>
      <use xlink:href="#ArialMT-55"/>
      <use xlink:href="#ArialMT-4b" x="72.216797"/>
      <use xlink:href="#ArialMT-5f" x="138.916016"/>
      <use xlink:href="#ArialMT-6e" x="194.53125"/>
      <use xlink:href="#ArialMT-6f" x="250.146484"/>
      <use xlink:href="#ArialMT-5f" x="305.761719"/>
      <use xlink:href="#ArialMT-63" x="361.376953"/>
      <use xlink:href="#ArialMT-6c" x="411.376953"/>
      <use xlink:href="#ArialMT-61" x="433.59375"/>
      <use xlink:href="#ArialMT-79" x="489.208984"/>
      <use xlink:href="#ArialMT-5f" x="539.208984"/>
      <use xlink:href="#ArialMT-6e" x="594.824219"/>
      <use xlink:href="#ArialMT-6f" x="650.439453"/>
      <use xlink:href="#ArialMT-5f" x="706.054688"/>
      <use xlink:href="#ArialMT-43" x="761.669922"/>
      <use xlink:href="#ArialMT-43" x="833.886719"/>
      <use xlink:href="#ArialMT-53" x="906.103516"/>
     </g>
    </g>
    <g id="line2d_20">
     <path d="M 805.082625 93.456825 
L 805.082625 93.456825 
L 817.082625 93.456825 
L 817.082625 93.456825 
L 829.082625 93.456825 
" style="fill: none; stroke: #bebada; stroke-width: 4; stroke-linecap: square"/>
    </g>
    <g id="text_18">
     <!-- UK_no_clay_w_trunklines -->
     <g transform="translate(838.682625 97.656825)scale(0.12 -0.12)">
      <defs>
       <path id="ArialMT-77" d="M 1034 0 
L 19 3319 
L 600 3319 
L 1128 1403 
L 1325 691 
Q 1338 744 1497 1375 
L 2025 3319 
L 2603 3319 
L 3100 1394 
L 3266 759 
L 3456 1400 
L 4025 3319 
L 4572 3319 
L 3534 0 
L 2950 0 
L 2422 1988 
L 2294 2553 
L 1622 0 
L 1034 0 
z
" transform="scale(0.015625)"/>
       <path id="ArialMT-6b" d="M 425 0 
L 425 4581 
L 988 4581 
L 988 1969 
L 2319 3319 
L 3047 3319 
L 1778 2088 
L 3175 0 
L 2481 0 
L 1384 1697 
L 988 1316 
L 988 0 
L 425 0 
z
" transform="scale(0.015625)"/>
      </defs>
      <use xlink:href="#ArialMT-55"/>
      <use xlink:href="#ArialMT-4b" x="72.216797"/>
      <use xlink:href="#ArialMT-5f" x="138.916016"/>
      <use xlink:href="#ArialMT-6e" x="194.53125"/>
      <use xlink:href="#ArialMT-6f" x="250.146484"/>
      <use xlink:href="#ArialMT-5f" x="305.761719"/>
      <use xlink:href="#ArialMT-63" x="361.376953"/>
      <use xlink:href="#ArialMT-6c" x="411.376953"/>
      <use xlink:href="#ArialMT-61" x="433.59375"/>
      <use xlink:href="#ArialMT-79" x="489.208984"/>
      <use xlink:href="#ArialMT-5f" x="539.208984"/>
      <use xlink:href="#ArialMT-77" x="594.824219"/>
      <use xlink:href="#ArialMT-5f" x="667.041016"/>
      <use xlink:href="#ArialMT-74" x="722.65625"/>
      <use xlink:href="#ArialMT-72" x="750.439453"/>
      <use xlink:href="#ArialMT-75" x="783.740234"/>
      <use xlink:href="#ArialMT-6e" x="839.355469"/>
      <use xlink:href="#ArialMT-6b" x="894.970703"/>
      <use xlink:href="#ArialMT-6c" x="944.970703"/>
      <use xlink:href="#ArialMT-69" x="967.1875"/>
      <use xlink:href="#ArialMT-6e" x="989.404297"/>
      <use xlink:href="#ArialMT-65" x="1045.019531"/>
      <use xlink:href="#ArialMT-73" x="1100.634766"/>
     </g>
    </g>
    <g id="line2d_21">
     <path d="M 805.082625 110.571825 
L 805.082625 110.571825 
L 817.082625 110.571825 
L 817.082625 110.571825 
L 829.082625 110.571825 
" style="fill: none; stroke: #fb8072; stroke-width: 4; stroke-linecap: square"/>
    </g>
    <g id="text_19">
     <!-- UK_no_clay -->
     <g transform="translate(838.682625 114.771825)scale(0.12 -0.12)">
      <use xlink:href="#ArialMT-55"/>
      <use xlink:href="#ArialMT-4b" x="72.216797"/>
      <use xlink:href="#ArialMT-5f" x="138.916016"/>
      <use xlink:href="#ArialMT-6e" x="194.53125"/>
      <use xlink:href="#ArialMT-6f" x="250.146484"/>
      <use xlink:href="#ArialMT-5f" x="305.761719"/>
      <use xlink:href="#ArialMT-63" x="361.376953"/>
      <use xlink:href="#ArialMT-6c" x="411.376953"/>
      <use xlink:href="#ArialMT-61" x="433.59375"/>
      <use xlink:href="#ArialMT-79" x="489.208984"/>
     </g>
    </g>
   </g>
  </g>
 </g>
 <defs>
  <clipPath id="pca5a59ea0a">
   <rect x="137.16" y="43.8912" width="850.392" height="276.1488"/>
  </clipPath>
 </defs>
</svg>
