<?xml version="1.0" encoding="utf-8" standalone="no"?>
<!DOCTYPE svg PUBLIC "-//W3C//DTD SVG 1.1//EN"
  "http://www.w3.org/Graphics/SVG/1.1/DTD/svg11.dtd">
<svg xmlns:xlink="http://www.w3.org/1999/xlink" width="1097.28pt" height="914.4pt" viewBox="0 0 1097.28 914.4" xmlns="http://www.w3.org/2000/svg" version="1.1">
 <metadata>
  <rdf:RDF xmlns:dc="http://purl.org/dc/elements/1.1/" xmlns:cc="http://creativecommons.org/ns#" xmlns:rdf="http://www.w3.org/1999/02/22-rdf-syntax-ns#">
   <cc:Work>
    <dc:type rdf:resource="http://purl.org/dc/dcmitype/StillImage"/>
    <dc:date>2024-01-24T15:41:34.160895</dc:date>
    <dc:format>image/svg+xml</dc:format>
    <dc:creator>
     <cc:Agent>
      <dc:title>Matplotlib v3.5.1, https://matplotlib.org/</dc:title>
     </cc:Agent>
    </dc:creator>
   </cc:Work>
  </rdf:RDF>
 </metadata>
 <defs>
  <style type="text/css">*{stroke-linejoin: round; stroke-linecap: butt}</style>
 </defs>
 <g id="figure_1">
  <g id="patch_1">
   <path d="M 0 914.4 
L 1097.28 914.4 
L 1097.28 0 
L 0 0 
L 0 914.4 
z
" style="fill: none"/>
  </g>
  <g id="axes_1">
   <g id="patch_2">
    <path d="M 95.7455 802.482388 
L 1058.951152 802.482388 
L 1058.951152 19.44 
L 95.7455 19.44 
L 95.7455 802.482388 
z
" style="fill: none"/>
   </g>
   <g id="PolyCollection_1">
    <defs>
     <path id="m9858f6b052" d="M 95.7455 -528.166461 
L 95.7455 -738.351522 
L 95.7455 -738.351522 
L 1058.951152 -738.351522 
L 1058.951152 -528.166461 
L 1058.951152 -528.166461 
L 95.7455 -528.166461 
L 95.7455 -528.166461 
z
" style="stroke: #000000; stroke-opacity: 0.08"/>
    </defs>
    <g clip-path="url(#p07caf70c17)">
     <use xlink:href="#m9858f6b052" x="0" y="914.4" style="fill-opacity: 0.08; stroke: #000000; stroke-opacity: 0.08"/>
    </g>
   </g>
   <g id="matplotlib.axis_1">
    <g id="xtick_1">
     <g id="line2d_1">
      <defs>
       <path id="m97e1c306ce" d="M 0 0 
L 0 3.5 
" style="stroke: #000000; stroke-width: 0.8"/>
      </defs>
      <g>
       <use xlink:href="#m97e1c306ce" x="95.7455" y="802.482388" style="stroke: #000000; stroke-width: 0.8"/>
      </g>
     </g>
     <g id="text_1">
      <!-- 0.0% -->
      <g transform="translate(93.102306 852.440767)rotate(-70)scale(0.18 -0.18)">
       <defs>
        <path id="ArialMT-30" d="M 266 2259 
Q 266 3072 433 3567 
Q 600 4063 929 4331 
Q 1259 4600 1759 4600 
Q 2128 4600 2406 4451 
Q 2684 4303 2865 4023 
Q 3047 3744 3150 3342 
Q 3253 2941 3253 2259 
Q 3253 1453 3087 958 
Q 2922 463 2592 192 
Q 2263 -78 1759 -78 
Q 1097 -78 719 397 
Q 266 969 266 2259 
z
M 844 2259 
Q 844 1131 1108 757 
Q 1372 384 1759 384 
Q 2147 384 2411 759 
Q 2675 1134 2675 2259 
Q 2675 3391 2411 3762 
Q 2147 4134 1753 4134 
Q 1366 4134 1134 3806 
Q 844 3388 844 2259 
z
" transform="scale(0.015625)"/>
        <path id="ArialMT-2e" d="M 581 0 
L 581 641 
L 1222 641 
L 1222 0 
L 581 0 
z
" transform="scale(0.015625)"/>
        <path id="ArialMT-25" d="M 372 3481 
Q 372 3972 619 4315 
Q 866 4659 1334 4659 
Q 1766 4659 2048 4351 
Q 2331 4044 2331 3447 
Q 2331 2866 2045 2552 
Q 1759 2238 1341 2238 
Q 925 2238 648 2547 
Q 372 2856 372 3481 
z
M 1350 4272 
Q 1141 4272 1002 4090 
Q 863 3909 863 3425 
Q 863 2984 1003 2804 
Q 1144 2625 1350 2625 
Q 1563 2625 1702 2806 
Q 1841 2988 1841 3469 
Q 1841 3913 1700 4092 
Q 1559 4272 1350 4272 
z
M 1353 -169 
L 3859 4659 
L 4316 4659 
L 1819 -169 
L 1353 -169 
z
M 3334 1075 
Q 3334 1569 3581 1911 
Q 3828 2253 4300 2253 
Q 4731 2253 5014 1945 
Q 5297 1638 5297 1041 
Q 5297 459 5011 145 
Q 4725 -169 4303 -169 
Q 3888 -169 3611 142 
Q 3334 453 3334 1075 
z
M 4316 1866 
Q 4103 1866 3964 1684 
Q 3825 1503 3825 1019 
Q 3825 581 3965 400 
Q 4106 219 4313 219 
Q 4528 219 4667 400 
Q 4806 581 4806 1063 
Q 4806 1506 4665 1686 
Q 4525 1866 4316 1866 
z
" transform="scale(0.015625)"/>
       </defs>
       <use xlink:href="#ArialMT-30"/>
       <use xlink:href="#ArialMT-2e" x="55.615234"/>
       <use xlink:href="#ArialMT-30" x="83.398438"/>
       <use xlink:href="#ArialMT-25" x="139.013672"/>
      </g>
     </g>
    </g>
    <g id="xtick_2">
     <g id="line2d_2">
      <g>
       <use xlink:href="#m97e1c306ce" x="288.38663" y="802.482388" style="stroke: #000000; stroke-width: 0.8"/>
      </g>
     </g>
     <g id="text_2">
      <!-- 20.0% -->
      <g transform="translate(284.031679 861.846797)rotate(-70)scale(0.18 -0.18)">
       <defs>
        <path id="ArialMT-32" d="M 3222 541 
L 3222 0 
L 194 0 
Q 188 203 259 391 
Q 375 700 629 1000 
Q 884 1300 1366 1694 
Q 2113 2306 2375 2664 
Q 2638 3022 2638 3341 
Q 2638 3675 2398 3904 
Q 2159 4134 1775 4134 
Q 1369 4134 1125 3890 
Q 881 3647 878 3216 
L 300 3275 
Q 359 3922 746 4261 
Q 1134 4600 1788 4600 
Q 2447 4600 2831 4234 
Q 3216 3869 3216 3328 
Q 3216 3053 3103 2787 
Q 2991 2522 2730 2228 
Q 2469 1934 1863 1422 
Q 1356 997 1212 845 
Q 1069 694 975 541 
L 3222 541 
z
" transform="scale(0.015625)"/>
       </defs>
       <use xlink:href="#ArialMT-32"/>
       <use xlink:href="#ArialMT-30" x="55.615234"/>
       <use xlink:href="#ArialMT-2e" x="111.230469"/>
       <use xlink:href="#ArialMT-30" x="139.013672"/>
       <use xlink:href="#ArialMT-25" x="194.628906"/>
      </g>
     </g>
    </g>
    <g id="xtick_3">
     <g id="line2d_3">
      <g>
       <use xlink:href="#m97e1c306ce" x="481.027761" y="802.482388" style="stroke: #000000; stroke-width: 0.8"/>
      </g>
     </g>
     <g id="text_3">
      <!-- 40.0% -->
      <g transform="translate(476.672809 861.846797)rotate(-70)scale(0.18 -0.18)">
       <defs>
        <path id="ArialMT-34" d="M 2069 0 
L 2069 1097 
L 81 1097 
L 81 1613 
L 2172 4581 
L 2631 4581 
L 2631 1613 
L 3250 1613 
L 3250 1097 
L 2631 1097 
L 2631 0 
L 2069 0 
z
M 2069 1613 
L 2069 3678 
L 634 1613 
L 2069 1613 
z
" transform="scale(0.015625)"/>
       </defs>
       <use xlink:href="#ArialMT-34"/>
       <use xlink:href="#ArialMT-30" x="55.615234"/>
       <use xlink:href="#ArialMT-2e" x="111.230469"/>
       <use xlink:href="#ArialMT-30" x="139.013672"/>
       <use xlink:href="#ArialMT-25" x="194.628906"/>
      </g>
     </g>
    </g>
    <g id="xtick_4">
     <g id="line2d_4">
      <g>
       <use xlink:href="#m97e1c306ce" x="673.668891" y="802.482388" style="stroke: #000000; stroke-width: 0.8"/>
      </g>
     </g>
     <g id="text_4">
      <!-- 60.0% -->
      <g transform="translate(669.313939 861.846797)rotate(-70)scale(0.18 -0.18)">
       <defs>
        <path id="ArialMT-36" d="M 3184 3459 
L 2625 3416 
Q 2550 3747 2413 3897 
Q 2184 4138 1850 4138 
Q 1581 4138 1378 3988 
Q 1113 3794 959 3422 
Q 806 3050 800 2363 
Q 1003 2672 1297 2822 
Q 1591 2972 1913 2972 
Q 2475 2972 2870 2558 
Q 3266 2144 3266 1488 
Q 3266 1056 3080 686 
Q 2894 316 2569 119 
Q 2244 -78 1831 -78 
Q 1128 -78 684 439 
Q 241 956 241 2144 
Q 241 3472 731 4075 
Q 1159 4600 1884 4600 
Q 2425 4600 2770 4297 
Q 3116 3994 3184 3459 
z
M 888 1484 
Q 888 1194 1011 928 
Q 1134 663 1356 523 
Q 1578 384 1822 384 
Q 2178 384 2434 671 
Q 2691 959 2691 1453 
Q 2691 1928 2437 2201 
Q 2184 2475 1800 2475 
Q 1419 2475 1153 2201 
Q 888 1928 888 1484 
z
" transform="scale(0.015625)"/>
       </defs>
       <use xlink:href="#ArialMT-36"/>
       <use xlink:href="#ArialMT-30" x="55.615234"/>
       <use xlink:href="#ArialMT-2e" x="111.230469"/>
       <use xlink:href="#ArialMT-30" x="139.013672"/>
       <use xlink:href="#ArialMT-25" x="194.628906"/>
      </g>
     </g>
    </g>
    <g id="xtick_5">
     <g id="line2d_5">
      <g>
       <use xlink:href="#m97e1c306ce" x="866.310022" y="802.482388" style="stroke: #000000; stroke-width: 0.8"/>
      </g>
     </g>
     <g id="text_5">
      <!-- 80.0% -->
      <g transform="translate(861.95507 861.846797)rotate(-70)scale(0.18 -0.18)">
       <defs>
        <path id="ArialMT-38" d="M 1131 2484 
Q 781 2613 612 2850 
Q 444 3088 444 3419 
Q 444 3919 803 4259 
Q 1163 4600 1759 4600 
Q 2359 4600 2725 4251 
Q 3091 3903 3091 3403 
Q 3091 3084 2923 2848 
Q 2756 2613 2416 2484 
Q 2838 2347 3058 2040 
Q 3278 1734 3278 1309 
Q 3278 722 2862 322 
Q 2447 -78 1769 -78 
Q 1091 -78 675 323 
Q 259 725 259 1325 
Q 259 1772 486 2073 
Q 713 2375 1131 2484 
z
M 1019 3438 
Q 1019 3113 1228 2906 
Q 1438 2700 1772 2700 
Q 2097 2700 2305 2904 
Q 2513 3109 2513 3406 
Q 2513 3716 2298 3927 
Q 2084 4138 1766 4138 
Q 1444 4138 1231 3931 
Q 1019 3725 1019 3438 
z
M 838 1322 
Q 838 1081 952 856 
Q 1066 631 1291 507 
Q 1516 384 1775 384 
Q 2178 384 2440 643 
Q 2703 903 2703 1303 
Q 2703 1709 2433 1975 
Q 2163 2241 1756 2241 
Q 1359 2241 1098 1978 
Q 838 1716 838 1322 
z
" transform="scale(0.015625)"/>
       </defs>
       <use xlink:href="#ArialMT-38"/>
       <use xlink:href="#ArialMT-30" x="55.615234"/>
       <use xlink:href="#ArialMT-2e" x="111.230469"/>
       <use xlink:href="#ArialMT-30" x="139.013672"/>
       <use xlink:href="#ArialMT-25" x="194.628906"/>
      </g>
     </g>
    </g>
    <g id="xtick_6">
     <g id="line2d_6">
      <g>
       <use xlink:href="#m97e1c306ce" x="1058.951152" y="802.482388" style="stroke: #000000; stroke-width: 0.8"/>
      </g>
     </g>
     <g id="text_6">
      <!-- 100.0% -->
      <g transform="translate(1052.884443 871.252826)rotate(-70)scale(0.18 -0.18)">
       <defs>
        <path id="ArialMT-31" d="M 2384 0 
L 1822 0 
L 1822 3584 
Q 1619 3391 1289 3197 
Q 959 3003 697 2906 
L 697 3450 
Q 1169 3672 1522 3987 
Q 1875 4303 2022 4600 
L 2384 4600 
L 2384 0 
z
" transform="scale(0.015625)"/>
       </defs>
       <use xlink:href="#ArialMT-31"/>
       <use xlink:href="#ArialMT-30" x="55.615234"/>
       <use xlink:href="#ArialMT-30" x="111.230469"/>
       <use xlink:href="#ArialMT-2e" x="166.845703"/>
       <use xlink:href="#ArialMT-30" x="194.628906"/>
       <use xlink:href="#ArialMT-25" x="250.244141"/>
      </g>
     </g>
    </g>
    <g id="text_7">
     <!-- Cummulative emission reduction  -->
     <g transform="translate(444.803639 889.360466)scale(0.18 -0.18)">
      <defs>
       <path id="ArialMT-43" d="M 3763 1606 
L 4369 1453 
Q 4178 706 3683 314 
Q 3188 -78 2472 -78 
Q 1731 -78 1267 223 
Q 803 525 561 1097 
Q 319 1669 319 2325 
Q 319 3041 592 3573 
Q 866 4106 1370 4382 
Q 1875 4659 2481 4659 
Q 3169 4659 3637 4309 
Q 4106 3959 4291 3325 
L 3694 3184 
Q 3534 3684 3231 3912 
Q 2928 4141 2469 4141 
Q 1941 4141 1586 3887 
Q 1231 3634 1087 3207 
Q 944 2781 944 2328 
Q 944 1744 1114 1308 
Q 1284 872 1643 656 
Q 2003 441 2422 441 
Q 2931 441 3284 734 
Q 3638 1028 3763 1606 
z
" transform="scale(0.015625)"/>
       <path id="ArialMT-75" d="M 2597 0 
L 2597 488 
Q 2209 -75 1544 -75 
Q 1250 -75 995 37 
Q 741 150 617 320 
Q 494 491 444 738 
Q 409 903 409 1263 
L 409 3319 
L 972 3319 
L 972 1478 
Q 972 1038 1006 884 
Q 1059 663 1231 536 
Q 1403 409 1656 409 
Q 1909 409 2131 539 
Q 2353 669 2445 892 
Q 2538 1116 2538 1541 
L 2538 3319 
L 3100 3319 
L 3100 0 
L 2597 0 
z
" transform="scale(0.015625)"/>
       <path id="ArialMT-6d" d="M 422 0 
L 422 3319 
L 925 3319 
L 925 2853 
Q 1081 3097 1340 3245 
Q 1600 3394 1931 3394 
Q 2300 3394 2536 3241 
Q 2772 3088 2869 2813 
Q 3263 3394 3894 3394 
Q 4388 3394 4653 3120 
Q 4919 2847 4919 2278 
L 4919 0 
L 4359 0 
L 4359 2091 
Q 4359 2428 4304 2576 
Q 4250 2725 4106 2815 
Q 3963 2906 3769 2906 
Q 3419 2906 3187 2673 
Q 2956 2441 2956 1928 
L 2956 0 
L 2394 0 
L 2394 2156 
Q 2394 2531 2256 2718 
Q 2119 2906 1806 2906 
Q 1569 2906 1367 2781 
Q 1166 2656 1075 2415 
Q 984 2175 984 1722 
L 984 0 
L 422 0 
z
" transform="scale(0.015625)"/>
       <path id="ArialMT-6c" d="M 409 0 
L 409 4581 
L 972 4581 
L 972 0 
L 409 0 
z
" transform="scale(0.015625)"/>
       <path id="ArialMT-61" d="M 2588 409 
Q 2275 144 1986 34 
Q 1697 -75 1366 -75 
Q 819 -75 525 192 
Q 231 459 231 875 
Q 231 1119 342 1320 
Q 453 1522 633 1644 
Q 813 1766 1038 1828 
Q 1203 1872 1538 1913 
Q 2219 1994 2541 2106 
Q 2544 2222 2544 2253 
Q 2544 2597 2384 2738 
Q 2169 2928 1744 2928 
Q 1347 2928 1158 2789 
Q 969 2650 878 2297 
L 328 2372 
Q 403 2725 575 2942 
Q 747 3159 1072 3276 
Q 1397 3394 1825 3394 
Q 2250 3394 2515 3294 
Q 2781 3194 2906 3042 
Q 3031 2891 3081 2659 
Q 3109 2516 3109 2141 
L 3109 1391 
Q 3109 606 3145 398 
Q 3181 191 3288 0 
L 2700 0 
Q 2613 175 2588 409 
z
M 2541 1666 
Q 2234 1541 1622 1453 
Q 1275 1403 1131 1340 
Q 988 1278 909 1158 
Q 831 1038 831 891 
Q 831 666 1001 516 
Q 1172 366 1500 366 
Q 1825 366 2078 508 
Q 2331 650 2450 897 
Q 2541 1088 2541 1459 
L 2541 1666 
z
" transform="scale(0.015625)"/>
       <path id="ArialMT-74" d="M 1650 503 
L 1731 6 
Q 1494 -44 1306 -44 
Q 1000 -44 831 53 
Q 663 150 594 308 
Q 525 466 525 972 
L 525 2881 
L 113 2881 
L 113 3319 
L 525 3319 
L 525 4141 
L 1084 4478 
L 1084 3319 
L 1650 3319 
L 1650 2881 
L 1084 2881 
L 1084 941 
Q 1084 700 1114 631 
Q 1144 563 1211 522 
Q 1278 481 1403 481 
Q 1497 481 1650 503 
z
" transform="scale(0.015625)"/>
       <path id="ArialMT-69" d="M 425 3934 
L 425 4581 
L 988 4581 
L 988 3934 
L 425 3934 
z
M 425 0 
L 425 3319 
L 988 3319 
L 988 0 
L 425 0 
z
" transform="scale(0.015625)"/>
       <path id="ArialMT-76" d="M 1344 0 
L 81 3319 
L 675 3319 
L 1388 1331 
Q 1503 1009 1600 663 
Q 1675 925 1809 1294 
L 2547 3319 
L 3125 3319 
L 1869 0 
L 1344 0 
z
" transform="scale(0.015625)"/>
       <path id="ArialMT-65" d="M 2694 1069 
L 3275 997 
Q 3138 488 2766 206 
Q 2394 -75 1816 -75 
Q 1088 -75 661 373 
Q 234 822 234 1631 
Q 234 2469 665 2931 
Q 1097 3394 1784 3394 
Q 2450 3394 2872 2941 
Q 3294 2488 3294 1666 
Q 3294 1616 3291 1516 
L 816 1516 
Q 847 969 1125 678 
Q 1403 388 1819 388 
Q 2128 388 2347 550 
Q 2566 713 2694 1069 
z
M 847 1978 
L 2700 1978 
Q 2663 2397 2488 2606 
Q 2219 2931 1791 2931 
Q 1403 2931 1139 2672 
Q 875 2413 847 1978 
z
" transform="scale(0.015625)"/>
       <path id="ArialMT-20" transform="scale(0.015625)"/>
       <path id="ArialMT-73" d="M 197 991 
L 753 1078 
Q 800 744 1014 566 
Q 1228 388 1613 388 
Q 2000 388 2187 545 
Q 2375 703 2375 916 
Q 2375 1106 2209 1216 
Q 2094 1291 1634 1406 
Q 1016 1563 777 1677 
Q 538 1791 414 1992 
Q 291 2194 291 2438 
Q 291 2659 392 2848 
Q 494 3038 669 3163 
Q 800 3259 1026 3326 
Q 1253 3394 1513 3394 
Q 1903 3394 2198 3281 
Q 2494 3169 2634 2976 
Q 2775 2784 2828 2463 
L 2278 2388 
Q 2241 2644 2061 2787 
Q 1881 2931 1553 2931 
Q 1166 2931 1000 2803 
Q 834 2675 834 2503 
Q 834 2394 903 2306 
Q 972 2216 1119 2156 
Q 1203 2125 1616 2013 
Q 2213 1853 2448 1751 
Q 2684 1650 2818 1456 
Q 2953 1263 2953 975 
Q 2953 694 2789 445 
Q 2625 197 2315 61 
Q 2006 -75 1616 -75 
Q 969 -75 630 194 
Q 291 463 197 991 
z
" transform="scale(0.015625)"/>
       <path id="ArialMT-6f" d="M 213 1659 
Q 213 2581 725 3025 
Q 1153 3394 1769 3394 
Q 2453 3394 2887 2945 
Q 3322 2497 3322 1706 
Q 3322 1066 3130 698 
Q 2938 331 2570 128 
Q 2203 -75 1769 -75 
Q 1072 -75 642 372 
Q 213 819 213 1659 
z
M 791 1659 
Q 791 1022 1069 705 
Q 1347 388 1769 388 
Q 2188 388 2466 706 
Q 2744 1025 2744 1678 
Q 2744 2294 2464 2611 
Q 2184 2928 1769 2928 
Q 1347 2928 1069 2612 
Q 791 2297 791 1659 
z
" transform="scale(0.015625)"/>
       <path id="ArialMT-6e" d="M 422 0 
L 422 3319 
L 928 3319 
L 928 2847 
Q 1294 3394 1984 3394 
Q 2284 3394 2536 3286 
Q 2788 3178 2913 3003 
Q 3038 2828 3088 2588 
Q 3119 2431 3119 2041 
L 3119 0 
L 2556 0 
L 2556 2019 
Q 2556 2363 2490 2533 
Q 2425 2703 2258 2804 
Q 2091 2906 1866 2906 
Q 1506 2906 1245 2678 
Q 984 2450 984 1813 
L 984 0 
L 422 0 
z
" transform="scale(0.015625)"/>
       <path id="ArialMT-72" d="M 416 0 
L 416 3319 
L 922 3319 
L 922 2816 
Q 1116 3169 1280 3281 
Q 1444 3394 1641 3394 
Q 1925 3394 2219 3213 
L 2025 2691 
Q 1819 2813 1613 2813 
Q 1428 2813 1281 2702 
Q 1134 2591 1072 2394 
Q 978 2094 978 1738 
L 978 0 
L 416 0 
z
" transform="scale(0.015625)"/>
       <path id="ArialMT-64" d="M 2575 0 
L 2575 419 
Q 2259 -75 1647 -75 
Q 1250 -75 917 144 
Q 584 363 401 755 
Q 219 1147 219 1656 
Q 219 2153 384 2558 
Q 550 2963 881 3178 
Q 1213 3394 1622 3394 
Q 1922 3394 2156 3267 
Q 2391 3141 2538 2938 
L 2538 4581 
L 3097 4581 
L 3097 0 
L 2575 0 
z
M 797 1656 
Q 797 1019 1065 703 
Q 1334 388 1700 388 
Q 2069 388 2326 689 
Q 2584 991 2584 1609 
Q 2584 2291 2321 2609 
Q 2059 2928 1675 2928 
Q 1300 2928 1048 2622 
Q 797 2316 797 1656 
z
" transform="scale(0.015625)"/>
       <path id="ArialMT-63" d="M 2588 1216 
L 3141 1144 
Q 3050 572 2676 248 
Q 2303 -75 1759 -75 
Q 1078 -75 664 370 
Q 250 816 250 1647 
Q 250 2184 428 2587 
Q 606 2991 970 3192 
Q 1334 3394 1763 3394 
Q 2303 3394 2647 3120 
Q 2991 2847 3088 2344 
L 2541 2259 
Q 2463 2594 2264 2762 
Q 2066 2931 1784 2931 
Q 1359 2931 1093 2626 
Q 828 2322 828 1663 
Q 828 994 1084 691 
Q 1341 388 1753 388 
Q 2084 388 2306 591 
Q 2528 794 2588 1216 
z
" transform="scale(0.015625)"/>
      </defs>
      <use xlink:href="#ArialMT-43"/>
      <use xlink:href="#ArialMT-75" x="72.216797"/>
      <use xlink:href="#ArialMT-6d" x="127.832031"/>
      <use xlink:href="#ArialMT-6d" x="211.132812"/>
      <use xlink:href="#ArialMT-75" x="294.433594"/>
      <use xlink:href="#ArialMT-6c" x="350.048828"/>
      <use xlink:href="#ArialMT-61" x="372.265625"/>
      <use xlink:href="#ArialMT-74" x="427.880859"/>
      <use xlink:href="#ArialMT-69" x="455.664062"/>
      <use xlink:href="#ArialMT-76" x="477.880859"/>
      <use xlink:href="#ArialMT-65" x="527.880859"/>
      <use xlink:href="#ArialMT-20" x="583.496094"/>
      <use xlink:href="#ArialMT-65" x="611.279297"/>
      <use xlink:href="#ArialMT-6d" x="666.894531"/>
      <use xlink:href="#ArialMT-69" x="750.195312"/>
      <use xlink:href="#ArialMT-73" x="772.412109"/>
      <use xlink:href="#ArialMT-73" x="822.412109"/>
      <use xlink:href="#ArialMT-69" x="872.412109"/>
      <use xlink:href="#ArialMT-6f" x="894.628906"/>
      <use xlink:href="#ArialMT-6e" x="950.244141"/>
      <use xlink:href="#ArialMT-20" x="1005.859375"/>
      <use xlink:href="#ArialMT-72" x="1033.642578"/>
      <use xlink:href="#ArialMT-65" x="1066.943359"/>
      <use xlink:href="#ArialMT-64" x="1122.558594"/>
      <use xlink:href="#ArialMT-75" x="1178.173828"/>
      <use xlink:href="#ArialMT-63" x="1233.789062"/>
      <use xlink:href="#ArialMT-74" x="1283.789062"/>
      <use xlink:href="#ArialMT-69" x="1311.572266"/>
      <use xlink:href="#ArialMT-6f" x="1333.789062"/>
      <use xlink:href="#ArialMT-6e" x="1389.404297"/>
      <use xlink:href="#ArialMT-20" x="1445.019531"/>
     </g>
    </g>
   </g>
   <g id="matplotlib.axis_2">
    <g id="ytick_1">
     <g id="line2d_7">
      <defs>
       <path id="mba6560ab26" d="M 0 0 
L -3.5 0 
" style="stroke: #000000; stroke-width: 0.8"/>
      </defs>
      <g>
       <use xlink:href="#mba6560ab26" x="95.7455" y="802.482388" style="stroke: #000000; stroke-width: 0.8"/>
      </g>
     </g>
     <g id="text_8">
      <!-- 60 -->
      <g transform="translate(68.726125 808.924419)scale(0.18 -0.18)">
       <use xlink:href="#ArialMT-36"/>
       <use xlink:href="#ArialMT-30" x="55.615234"/>
      </g>
     </g>
    </g>
    <g id="ytick_2">
     <g id="line2d_8">
      <g>
       <use xlink:href="#mba6560ab26" x="95.7455" y="637.631359" style="stroke: #000000; stroke-width: 0.8"/>
      </g>
     </g>
     <g id="text_9">
      <!-- 80 -->
      <g transform="translate(68.726125 644.07339)scale(0.18 -0.18)">
       <use xlink:href="#ArialMT-38"/>
       <use xlink:href="#ArialMT-30" x="55.615234"/>
      </g>
     </g>
    </g>
    <g id="ytick_3">
     <g id="line2d_9">
      <g>
       <use xlink:href="#mba6560ab26" x="95.7455" y="472.78033" style="stroke: #000000; stroke-width: 0.8"/>
      </g>
     </g>
     <g id="text_10">
      <!-- 100 -->
      <g transform="translate(58.716437 479.222361)scale(0.18 -0.18)">
       <use xlink:href="#ArialMT-31"/>
       <use xlink:href="#ArialMT-30" x="55.615234"/>
       <use xlink:href="#ArialMT-30" x="111.230469"/>
      </g>
     </g>
    </g>
    <g id="ytick_4">
     <g id="line2d_10">
      <g>
       <use xlink:href="#mba6560ab26" x="95.7455" y="307.929301" style="stroke: #000000; stroke-width: 0.8"/>
      </g>
     </g>
     <g id="text_11">
      <!-- 120 -->
      <g transform="translate(58.716437 314.371332)scale(0.18 -0.18)">
       <use xlink:href="#ArialMT-31"/>
       <use xlink:href="#ArialMT-32" x="55.615234"/>
       <use xlink:href="#ArialMT-30" x="111.230469"/>
      </g>
     </g>
    </g>
    <g id="ytick_5">
     <g id="line2d_11">
      <g>
       <use xlink:href="#mba6560ab26" x="95.7455" y="143.078272" style="stroke: #000000; stroke-width: 0.8"/>
      </g>
     </g>
     <g id="text_12">
      <!-- 140 -->
      <g transform="translate(58.716437 149.520303)scale(0.18 -0.18)">
       <use xlink:href="#ArialMT-31"/>
       <use xlink:href="#ArialMT-34" x="55.615234"/>
       <use xlink:href="#ArialMT-30" x="111.230469"/>
      </g>
     </g>
    </g>
    <g id="text_13">
     <!-- Added cost of cement in [$€$ $t^{{-1}}_{cement}$] -->
     <g transform="translate(45.536437 546.321194)rotate(-90)scale(0.18 -0.18)">
      <defs>
       <path id="ArialMT-41" d="M -9 0 
L 1750 4581 
L 2403 4581 
L 4278 0 
L 3588 0 
L 3053 1388 
L 1138 1388 
L 634 0 
L -9 0 
z
M 1313 1881 
L 2866 1881 
L 2388 3150 
Q 2169 3728 2063 4100 
Q 1975 3659 1816 3225 
L 1313 1881 
z
" transform="scale(0.015625)"/>
       <path id="ArialMT-66" d="M 556 0 
L 556 2881 
L 59 2881 
L 59 3319 
L 556 3319 
L 556 3672 
Q 556 4006 616 4169 
Q 697 4388 901 4523 
Q 1106 4659 1475 4659 
Q 1713 4659 2000 4603 
L 1916 4113 
Q 1741 4144 1584 4144 
Q 1328 4144 1222 4034 
Q 1116 3925 1116 3625 
L 1116 3319 
L 1763 3319 
L 1763 2881 
L 1116 2881 
L 1116 0 
L 556 0 
z
" transform="scale(0.015625)"/>
       <path id="ArialMT-5b" d="M 434 -1272 
L 434 4581 
L 1675 4581 
L 1675 4116 
L 997 4116 
L 997 -806 
L 1675 -806 
L 1675 -1272 
L 434 -1272 
z
" transform="scale(0.015625)"/>
       <path id="ArialMT-20ac" d="M 2469 4141 
Q 1944 4141 1588 3888 
Q 1375 3738 1203 3463 
Q 1028 3178 997 2922 
L 3128 2922 
L 3044 2503 
L 947 2503 
Q 944 2438 944 2378 
Q 944 2138 947 2091 
L 2959 2091 
L 2872 1672 
L 1013 1672 
Q 1144 956 1644 656 
Q 2003 441 2422 441 
Q 3006 441 3334 747 
L 3334 103 
Q 2944 -78 2472 -78 
Q 1059 -78 563 1097 
Q 463 1334 391 1672 
L -88 1672 
L 0 2091 
L 328 2091 
Q 319 2222 319 2375 
Q 319 2438 322 2503 
L -88 2503 
L 0 2922 
L 363 2922 
Q 556 3941 1372 4384 
Q 1875 4659 2481 4659 
Q 3063 4659 3459 4406 
L 3334 3825 
Q 2953 4141 2469 4141 
z
" transform="scale(0.015625)"/>
       <path id="ArialMT-2212" d="M 3381 1997 
L 356 1997 
L 356 2522 
L 3381 2522 
L 3381 1997 
z
" transform="scale(0.015625)"/>
       <path id="ArialMT-5d" d="M 1363 -1272 
L 122 -1272 
L 122 -806 
L 800 -806 
L 800 4116 
L 122 4116 
L 122 4581 
L 1363 4581 
L 1363 -1272 
z
" transform="scale(0.015625)"/>
      </defs>
      <use xlink:href="#ArialMT-41" transform="translate(0 0.99375)"/>
      <use xlink:href="#ArialMT-64" transform="translate(66.699219 0.99375)"/>
      <use xlink:href="#ArialMT-64" transform="translate(122.314453 0.99375)"/>
      <use xlink:href="#ArialMT-65" transform="translate(177.929688 0.99375)"/>
      <use xlink:href="#ArialMT-64" transform="translate(233.544922 0.99375)"/>
      <use xlink:href="#ArialMT-20" transform="translate(289.160156 0.99375)"/>
      <use xlink:href="#ArialMT-63" transform="translate(316.943359 0.99375)"/>
      <use xlink:href="#ArialMT-6f" transform="translate(366.943359 0.99375)"/>
      <use xlink:href="#ArialMT-73" transform="translate(422.558594 0.99375)"/>
      <use xlink:href="#ArialMT-74" transform="translate(472.558594 0.99375)"/>
      <use xlink:href="#ArialMT-20" transform="translate(500.341797 0.99375)"/>
      <use xlink:href="#ArialMT-6f" transform="translate(528.125 0.99375)"/>
      <use xlink:href="#ArialMT-66" transform="translate(583.740234 0.99375)"/>
      <use xlink:href="#ArialMT-20" transform="translate(611.523438 0.99375)"/>
      <use xlink:href="#ArialMT-63" transform="translate(639.306641 0.99375)"/>
      <use xlink:href="#ArialMT-65" transform="translate(689.306641 0.99375)"/>
      <use xlink:href="#ArialMT-6d" transform="translate(744.921875 0.99375)"/>
      <use xlink:href="#ArialMT-65" transform="translate(828.222656 0.99375)"/>
      <use xlink:href="#ArialMT-6e" transform="translate(883.837891 0.99375)"/>
      <use xlink:href="#ArialMT-74" transform="translate(939.453125 0.99375)"/>
      <use xlink:href="#ArialMT-20" transform="translate(967.236328 0.99375)"/>
      <use xlink:href="#ArialMT-69" transform="translate(995.019531 0.99375)"/>
      <use xlink:href="#ArialMT-6e" transform="translate(1017.236328 0.99375)"/>
      <use xlink:href="#ArialMT-20" transform="translate(1072.851562 0.99375)"/>
      <use xlink:href="#ArialMT-5b" transform="translate(1100.634766 0.99375)"/>
      <use xlink:href="#ArialMT-20ac" transform="translate(1128.417969 0.99375)"/>
      <use xlink:href="#ArialMT-20" transform="translate(1184.033203 0.99375)"/>
      <use xlink:href="#ArialMT-74" transform="translate(1211.816406 0.99375)"/>
      <use xlink:href="#ArialMT-2212" transform="translate(1241.341953 70.6875)scale(0.7)"/>
      <use xlink:href="#ArialMT-31" transform="translate(1282.220859 70.6875)scale(0.7)"/>
      <use xlink:href="#ArialMT-63" transform="translate(1241.341953 -48.7875)scale(0.7)"/>
      <use xlink:href="#ArialMT-65" transform="translate(1276.341953 -48.7875)scale(0.7)"/>
      <use xlink:href="#ArialMT-6d" transform="translate(1315.272617 -48.7875)scale(0.7)"/>
      <use xlink:href="#ArialMT-65" transform="translate(1373.583164 -48.7875)scale(0.7)"/>
      <use xlink:href="#ArialMT-6e" transform="translate(1412.513828 -48.7875)scale(0.7)"/>
      <use xlink:href="#ArialMT-74" transform="translate(1451.444492 -48.7875)scale(0.7)"/>
      <use xlink:href="#ArialMT-5d" transform="translate(1475.870859 0.99375)"/>
     </g>
    </g>
   </g>
   <g id="line2d_12">
    <path d="M 95.7455 733.019627 
L 123.418699 733.019627 
L 151.092305 733.011239 
L 175.714068 732.877624 
L 204.416938 731.814485 
L 253.771969 731.135618 
L 281.53348 730.748553 
L 309.294131 730.596827 
L 337.060814 730.301872 
L 364.835683 726.435356 
L 410.754891 726.384035 
L 438.531671 726.257044 
L 466.220192 725.24339 
L 493.948429 721.936601 
L 520.591813 721.045597 
L 567.316691 718.028161 
L 620.393377 716.042833 
L 648.053427 715.308769 
L 675.703349 714.708573 
L 703.39556 703.728766 
L 721.724371 702.136445 
L 749.384533 702.078011 
L 777.061823 701.565452 
L 803.130637 700.120096 
L 830.811983 694.525635 
L 858.50106 693.643337 
L 884.823298 692.00211 
L 923.535764 690.464982 
L 970.204828 688.003666 
L 1002.791227 673.428227 
L 1039.202011 672.794234 
L 1058.951152 651.748697 
" clip-path="url(#p07caf70c17)" style="fill: none; stroke: #cec7b0; stroke-width: 4; stroke-linecap: square"/>
   </g>
   <g id="line2d_13">
    <path d="M 95.7455 731.68544 
L 123.418699 731.68544 
L 151.092305 731.588671 
L 175.714068 731.455056 
L 225.069098 729.71305 
L 270.988306 729.645813 
L 298.676827 728.505168 
L 326.451695 726.826934 
L 354.228476 726.648622 
L 381.989987 725.554579 
L 409.750637 725.402853 
L 437.517321 722.800579 
L 465.245558 722.742418 
L 491.888942 721.851413 
L 538.61382 721.289939 
L 591.690506 719.30461 
L 620.393377 715.533756 
L 648.043299 715.514389 
L 675.703349 713.886201 
L 703.39556 706.990543 
L 721.724371 705.398222 
L 749.384533 702.883827 
L 777.061823 702.371268 
L 803.130637 700.925913 
L 830.811983 695.331451 
L 858.50106 694.449154 
L 884.823298 692.00211 
L 923.535764 691.270799 
L 970.204828 688.809482 
L 1006.615613 676.056012 
L 1039.202011 674.234043 
L 1058.951152 652.554513 
" clip-path="url(#p07caf70c17)" style="fill: none; stroke-dasharray: 4,6.6; stroke-dashoffset: 0; stroke: #cec7b0; stroke-width: 4"/>
   </g>
   <g id="line2d_14">
    <path d="M 95.7455 661.715076 
L 142.297668 661.715076 
L 191.470038 661.582143 
L 237.219658 657.829924 
L 264.778127 656.343535 
L 292.326293 651.711469 
L 319.914292 651.381917 
L 372.795925 650.028343 
L 399.341467 648.087148 
L 426.90005 647.135455 
L 463.177227 646.054032 
L 490.805064 644.688446 
L 518.37691 642.382109 
L 545.949169 642.312717 
L 570.480771 642.237142 
L 598.056778 641.486829 
L 625.636912 639.788919 
L 653.297722 639.148211 
L 680.959409 639.001018 
L 708.626357 638.116928 
L 736.217544 637.245397 
L 763.804977 636.98123 
L 791.480252 636.717911 
L 811.157306 636.41716 
L 838.834526 636.391157 
L 864.808354 634.348616 
L 897.276027 633.338096 
L 935.847786 629.354755 
L 982.34744 627.697914 
L 1012.328382 592.757174 
L 1031.483636 589.660832 
L 1058.951152 575.395463 
" clip-path="url(#p07caf70c17)" style="fill: none; stroke-dasharray: 40,12; stroke-dashoffset: 20; stroke: #cec7b0; stroke-width: 4"/>
   </g>
   <g id="line2d_15">
    <path d="M 95.7455 640.611359 
L 122.951238 640.611359 
L 150.156977 640.372506 
L 177.362715 638.22873 
L 204.568453 638.160979 
L 228.773559 637.977099 
L 280.984571 627.019165 
L 308.190309 624.613345 
L 334.395837 617.710943 
L 352.399634 615.272788 
L 379.605372 609.881774 
L 424.814908 609.626954 
L 450.420309 607.637159 
L 496.430013 605.284401 
L 523.635752 595.779831 
L 562.064246 589.130076 
L 608.380741 588.981977 
L 635.586479 587.780758 
L 662.792217 587.698751 
L 690.305048 586.531778 
L 718.334075 580.57814 
L 767.579681 573.482464 
L 795.120708 568.290427 
L 822.326446 567.110857 
L 854.677691 566.560258 
L 882.523033 556.879951 
L 911.35073 552.334371 
L 940.865327 539.404124 
L 969.695509 538.493376 
L 1000.234904 532.964949 
L 1019.8894 523.40652 
L 1058.951152 481.604668 
" clip-path="url(#p07caf70c17)" style="fill: none; stroke-dasharray: 4,40; stroke-dashoffset: 0; stroke: #cec7b0; stroke-width: 4"/>
   </g>
   <g id="line2d_16">
    <path d="M 95.7455 474.228508 
L 127.796508 474.228508 
L 173.683431 472.138601 
L 211.755513 471.482225 
L 239.5366 471.348352 
L 266.794378 468.638278 
L 294.573659 468.002135 
L 331.268252 464.626647 
L 359.085318 461.540576 
L 384.760709 461.475265 
L 412.583135 460.623964 
L 439.865954 460.355246 
L 467.690673 460.231867 
L 495.520355 459.383094 
L 523.350487 459.306158 
L 551.180677 459.296223 
L 575.941745 459.222368 
L 603.228008 458.418065 
L 631.06477 458.172433 
L 658.358033 455.920592 
L 685.655648 454.480083 
L 713.017611 453.905895 
L 732.490517 452.364678 
L 781.281293 451.366895 
L 808.588519 450.450586 
L 862.171595 447.475952 
L 888.489909 445.867516 
L 915.814545 444.208303 
L 962.294354 439.963965 
L 992.29767 433.145824 
L 1011.485573 428.539518 
L 1058.951152 423.46943 
" clip-path="url(#p07caf70c17)" style="fill: none; stroke-dasharray: 12,40,4,40; stroke-dashoffset: 0; stroke: #cec7b0; stroke-width: 4"/>
   </g>
   <g id="line2d_17">
    <path d="M 95.7455 736.946504 
L 141.664707 736.946504 
L 191.019738 736.689622 
L 237.744616 732.864808 
L 265.404666 729.625787 
L 294.107537 729.247331 
L 318.7293 728.941763 
L 346.402905 728.935539 
L 374.076105 728.906772 
L 401.836755 727.304774 
L 429.598266 726.858662 
L 457.36495 726.354794 
L 485.057161 725.331658 
L 512.707083 724.501722 
L 531.035894 723.739337 
L 558.810763 723.445067 
L 586.587543 723.266755 
L 614.276064 723.238786 
L 667.35275 722.846175 
L 695.012912 717.592474 
L 722.74115 716.772082 
L 749.384533 715.71806 
L 785.795318 713.032963 
L 813.484395 711.642632 
L 839.806633 702.347906 
L 865.875447 695.4523 
L 904.587913 693.743377 
L 932.265203 692.541844 
L 978.934267 691.282061 
L 1006.615613 685.502027 
L 1039.202011 684.276179 
L 1058.951152 676.544997 
" clip-path="url(#p07caf70c17)" style="fill: none; stroke-dasharray: 20,4; stroke-dashoffset: 0; stroke: #cec7b0; stroke-width: 4"/>
   </g>
   <g id="line2d_18">
    <path d="M 95.7455 734.850313 
L 122.915199 734.850313 
L 152.752905 730.682912 
L 178.546737 727.423478 
L 206.889831 726.463383 
L 232.96217 725.611671 
L 258.87759 724.457031 
L 284.905277 723.938231 
L 322.108006 722.039582 
L 345.627916 721.683323 
L 383.110363 720.950274 
L 402.365576 717.939572 
L 444.263241 716.297288 
L 470.122226 715.791113 
L 512.287859 713.73418 
L 528.801539 713.54554 
L 541.165085 708.978803 
L 581.149211 705.567986 
L 607.307043 699.174665 
L 649.214762 698.331093 
L 665.489263 684.832213 
L 691.621783 678.12878 
L 720.622723 674.709834 
L 740.416973 670.4197 
L 774.144122 668.114905 
L 791.9812 653.476758 
L 817.93977 650.725205 
L 860.681643 649.407358 
L 906.815458 648.005621 
L 933.19914 641.956231 
L 964.138357 633.693892 
L 985.387243 623.619333 
L 1011.877031 610.780692 
L 1030.943861 608.779322 
L 1058.951152 593.529447 
" clip-path="url(#p07caf70c17)" style="fill: none; stroke: #ce8e89; stroke-width: 4; stroke-linecap: square"/>
   </g>
   <g id="line2d_19">
    <path d="M 95.7455 734.636637 
L 122.915199 734.636637 
L 152.752905 731.366596 
L 172.008118 727.642959 
L 197.80195 726.654168 
L 226.145045 725.694073 
L 252.217383 725.266284 
L 278.132804 724.687508 
L 304.16049 723.938231 
L 327.6804 721.913799 
L 364.883129 721.270272 
L 407.048762 719.705673 
L 444.531209 717.219262 
L 486.428874 715.097664 
L 512.287859 714.591489 
L 528.801539 712.345917 
L 541.165085 709.662487 
L 581.149211 706.25167 
L 607.281731 699.762378 
L 633.439563 698.829278 
L 675.347282 697.131469 
L 691.621783 683.632589 
L 720.622723 673.51021 
L 740.416973 666.688687 
L 774.144122 664.815779 
L 800.102691 645.320661 
L 817.93977 644.169308 
L 860.681643 644.002813 
L 888.688934 643.606159 
L 934.822749 642.601076 
L 961.206431 630.010096 
L 982.455317 621.282056 
L 1013.394533 613.503626 
L 1039.884322 610.435305 
L 1058.951152 609.28303 
" clip-path="url(#p07caf70c17)" style="fill: none; stroke-dasharray: 4,6.6; stroke-dashoffset: 0; stroke: #ce8e89; stroke-width: 4"/>
   </g>
   <g id="line2d_20">
    <path d="M 95.7455 641.338009 
L 114.599694 641.338009 
L 155.628136 639.65184 
L 192.057744 639.294758 
L 207.99528 633.797017 
L 220.102489 633.057599 
L 249.046511 625.978392 
L 274.536688 625.302107 
L 299.957767 624.128484 
L 345.136502 623.359598 
L 373.53792 622.412276 
L 403.844445 621.676559 
L 430.196021 618.840107 
L 455.816309 618.004589 
L 482.259206 615.660279 
L 506.2653 614.045477 
L 532.709266 613.879385 
L 549.597986 612.363499 
L 575.44406 612.141624 
L 605.915931 611.099218 
L 625.304934 609.925524 
L 653.06745 608.298255 
L 686.099946 608.238895 
L 728.989172 605.107219 
L 770.861591 603.803354 
L 809.168239 603.155301 
L 835.819832 599.239085 
L 878.922522 599.135127 
L 905.659454 598.119792 
L 946.517832 593.721245 
L 975.1988 592.433498 
L 996.011442 588.848908 
L 1014.319266 577.35631 
L 1032.999 568.751253 
L 1058.951152 567.266376 
" clip-path="url(#p07caf70c17)" style="fill: none; stroke-dasharray: 40,12; stroke-dashoffset: 20; stroke: #ce8e89; stroke-width: 4"/>
   </g>
   <g id="line2d_21">
    <path d="M 95.7455 656.902265 
L 123.24336 656.902265 
L 149.099102 651.99523 
L 179.339161 651.915776 
L 205.194902 638.224014 
L 231.329521 637.913642 
L 260.043839 637.50062 
L 298.062312 636.898608 
L 340.833603 634.27457 
L 378.538545 633.372951 
L 397.830906 626.948923 
L 440.300318 622.170558 
L 452.631518 621.404483 
L 478.902217 619.956723 
L 518.68028 619.729819 
L 544.887928 617.111026 
L 565.870857 611.825609 
L 591.726598 609.187313 
L 615.195656 603.903339 
L 633.81179 603.806147 
L 676.293988 600.426571 
L 702.149729 599.767245 
L 728.66398 593.694854 
L 748.155231 587.517245 
L 774.010973 586.030895 
L 802.850069 576.607963 
L 819.357966 574.742019 
L 836.860314 566.279012 
L 867.290533 565.268593 
L 909.105233 562.844814 
L 942.518807 556.034045 
L 958.728368 545.497435 
L 987.151747 538.52935 
L 1033.095411 530.59833 
L 1058.951152 522.377593 
" clip-path="url(#p07caf70c17)" style="fill: none; stroke-dasharray: 4,40; stroke-dashoffset: 0; stroke: #ce8e89; stroke-width: 4"/>
   </g>
   <g id="line2d_22">
    <path d="M 95.7455 656.060663 
L 123.088066 656.060663 
L 148.797787 650.645929 
L 174.920122 645.023566 
L 194.317489 642.917475 
L 218.024861 642.169986 
L 248.094139 639.330925 
L 274.081162 637.662049 
L 302.633316 637.249027 
L 328.343037 636.824462 
L 366.146801 635.918922 
L 408.676542 633.294884 
L 446.168545 633.121358 
L 488.398111 623.218474 
L 514.457751 620.286726 
L 554.773611 619.310267 
L 571.415827 617.645898 
L 597.125548 610.46137 
L 615.636547 608.950573 
L 641.346268 607.787762 
L 653.607828 605.617457 
L 695.850108 598.80921 
L 716.714535 595.919382 
L 743.079047 592.715168 
L 759.48655 592.198825 
L 778.867724 586.117694 
L 804.577445 578.681875 
L 833.253673 576.248545 
L 850.657176 571.3088 
L 880.91554 557.919574 
L 922.494093 550.746392 
L 949.197739 537.089526 
L 996.656349 533.692746 
L 1024.919207 533.385037 
L 1058.951152 529.41931 
" clip-path="url(#p07caf70c17)" style="fill: none; stroke-dasharray: 4,40; stroke-dashoffset: 0; stroke: #ce8e89; stroke-width: 4"/>
   </g>
   <g id="line2d_23">
    <path d="M 95.7455 506.017352 
L 114.528706 506.017352 
L 130.41881 496.913403 
L 159.148408 494.485852 
L 184.569822 487.495083 
L 210.728173 486.980866 
L 239.048848 484.461407 
L 269.305369 483.475409 
L 295.569886 482.935961 
L 321.824687 481.765332 
L 345.667876 481.320989 
L 373.196117 481.219716 
L 389.964293 480.171577 
L 407.412931 479.720568 
L 432.977581 479.404283 
L 463.234986 478.519028 
L 489.0482 472.903993 
L 531.637087 472.535608 
L 557.508758 471.831288 
L 603.488908 470.978821 
L 622.843561 470.446915 
L 660.908458 469.626528 
L 703.481579 468.823122 
L 741.256352 468.061516 
L 774.219119 467.155912 
L 800.703586 465.509034 
L 843.536036 465.399736 
L 870.109593 464.332244 
L 911.936268 463.659323 
L 924.488001 460.918062 
L 965.077997 459.922438 
L 993.588367 458.353851 
L 1014.357954 447.079277 
L 1033.021152 424.795582 
L 1058.951152 423.149293 
" clip-path="url(#p07caf70c17)" style="fill: none; stroke-dasharray: 12,40,4,40; stroke-dashoffset: 0; stroke: #ce8e89; stroke-width: 4"/>
   </g>
   <g id="line2d_24">
    <path d="M 95.7455 716.15612 
L 141.43055 716.15612 
L 185.313344 715.158927 
L 253.85669 712.917817 
L 313.22311 710.250597 
L 394.809062 703.827602 
L 436.63883 696.802682 
L 565.182277 677.454778 
L 665.015546 669.240673 
L 697.278788 667.707929 
L 751.360328 660.316509 
L 899.533465 659.713807 
L 931.691966 651.323962 
L 953.997209 648.119267 
L 1000.280959 630.032474 
L 1037.353652 607.565583 
L 1058.951152 603.915889 
" clip-path="url(#p07caf70c17)" style="fill: none; stroke: #a5ccc4; stroke-width: 4; stroke-linecap: square"/>
   </g>
   <g id="line2d_25">
    <path d="M 95.7455 716.935874 
L 141.43055 716.935874 
L 185.313344 715.93868 
L 253.85669 713.697571 
L 313.22311 711.03035 
L 394.809062 704.607356 
L 436.63883 697.582436 
L 565.182277 675.261929 
L 665.015546 670.020427 
L 697.278788 668.487683 
L 751.360328 658.12366 
L 899.533465 657.520958 
L 931.691966 649.131114 
L 953.997209 648.119267 
L 1000.280959 627.839625 
L 1037.353652 605.372735 
L 1058.951152 599.530192 
" clip-path="url(#p07caf70c17)" style="fill: none; stroke-dasharray: 4,6.6; stroke-dashoffset: 0; stroke: #a5ccc4; stroke-width: 4"/>
   </g>
   <g id="line2d_26">
    <path d="M 95.7455 632.94323 
L 175.151341 632.94323 
L 198.234734 619.084668 
L 295.43979 610.455428 
L 355.730236 601.357267 
L 392.490353 599.419254 
L 438.892837 598.706336 
L 508.518769 597.15009 
L 540.470028 595.264422 
L 585.052166 594.791312 
L 712.892849 593.926104 
L 745.709435 587.071155 
L 799.485061 575.583251 
L 946.824633 575.043055 
L 989.269725 573.42727 
L 1036.295892 570.121244 
L 1058.951152 550.173274 
" clip-path="url(#p07caf70c17)" style="fill: none; stroke-dasharray: 40,12; stroke-dashoffset: 20; stroke: #a5ccc4; stroke-width: 4"/>
   </g>
   <g id="line2d_27">
    <path d="M 95.7455 653.230285 
L 136.973287 653.230285 
L 180.466336 644.116004 
L 225.771596 639.599757 
L 293.729486 636.808554 
L 352.626324 631.775053 
L 434.175792 623.100233 
L 566.813975 618.059959 
L 664.673336 616.936567 
L 696.387018 601.145333 
L 728.882721 581.122063 
L 877.833746 576.434498 
L 932.201488 568.274004 
L 953.948013 566.119482 
L 976.600643 543.677387 
L 1021.905903 527.421035 
L 1058.951152 517.339823 
" clip-path="url(#p07caf70c17)" style="fill: none; stroke-dasharray: 4,40; stroke-dashoffset: 0; stroke: #a5ccc4; stroke-width: 4"/>
   </g>
   <g id="line2d_28">
    <path d="M 95.7455 644.567932 
L 137.37944 644.567932 
L 181.300959 635.453651 
L 227.052541 630.937404 
L 358.251081 630.558661 
L 426.878454 628.146202 
L 486.355511 614.976749 
L 568.70836 614.437881 
L 715.356769 609.5923 
L 747.382877 609.349477 
L 846.206294 608.274215 
L 899.735646 601.245041 
L 931.761753 592.48298 
L 953.722513 558.298981 
L 976.598304 535.015034 
L 1013.19957 533.545857 
L 1058.951152 522.096381 
" clip-path="url(#p07caf70c17)" style="fill: none; stroke-dasharray: 20,40; stroke-dashoffset: 0; stroke: #a5ccc4; stroke-width: 4"/>
   </g>
   <g id="line2d_29">
    <path d="M 95.7455 495.853962 
L 132.509324 495.853962 
L 164.17361 488.780633 
L 223.038951 484.13987 
L 255.243469 484.046628 
L 384.077136 483.463915 
L 429.223565 483.200315 
L 474.522595 482.256581 
L 518.038321 479.133051 
L 539.834005 479.081097 
L 563.19964 473.962982 
L 661.214479 473.865307 
L 742.785355 470.80658 
L 785.492841 464.485961 
L 839.725406 462.999601 
L 988.318707 462.399727 
L 1058.951152 448.058905 
" clip-path="url(#p07caf70c17)" style="fill: none; stroke-dasharray: 12,40,4,40; stroke-dashoffset: 0; stroke: #a5ccc4; stroke-width: 4"/>
   </g>
   <g id="line2d_30">
    <path d="M 95.7455 652.389025 
L 136.973287 652.389025 
L 180.466336 640.388697 
L 225.771596 635.87245 
L 293.729486 633.081248 
L 352.626324 625.406614 
L 434.175792 619.372927 
L 566.813975 618.560298 
L 664.673336 613.20926 
L 696.387018 596.628243 
L 728.882721 581.836834 
L 877.833746 577.149268 
L 923.139006 570.322055 
L 977.506748 568.988774 
L 999.253273 566.834252 
L 1021.905903 542.836127 
L 1058.951152 518.054593 
" clip-path="url(#p07caf70c17)" style="fill: none; stroke-dasharray: 20,4; stroke-dashoffset: 0; stroke: #a5ccc4; stroke-width: 4"/>
   </g>
   <g id="line2d_31">
    <path d="M 95.7455 718.905909 
L 141.43055 718.905909 
L 185.313344 716.665947 
L 244.679764 715.785817 
L 313.22311 715.667606 
L 394.809062 705.334623 
L 436.63883 699.206737 
L 468.797331 676.072858 
L 568.6306 670.747694 
L 600.893843 670.118136 
L 729.437289 668.027609 
L 783.518829 650.864055 
L 931.691966 650.781471 
L 953.997209 648.119267 
L 991.069902 623.429557 
L 1037.353652 622.982178 
L 1058.951152 525.345911 
" clip-path="url(#p07caf70c17)" style="fill: none; stroke-dasharray: 20,4; stroke-dashoffset: 0; stroke: #a5ccc4; stroke-width: 4"/>
   </g>
   <g id="line2d_32">
    <path d="M 95.7455 130.508381 
L 1058.951152 130.508381 
" clip-path="url(#p07caf70c17)" style="fill: none; stroke: #000000; stroke-width: 2; stroke-linecap: square"/>
   </g>
   <g id="patch_3">
    <path d="M 95.7455 802.482388 
L 95.7455 19.44 
" style="fill: none; stroke: #000000; stroke-width: 0.8; stroke-linejoin: miter; stroke-linecap: square"/>
   </g>
   <g id="patch_4">
    <path d="M 1058.951152 802.482388 
L 1058.951152 19.44 
" style="fill: none; stroke: #000000; stroke-width: 0.8; stroke-linejoin: miter; stroke-linecap: square"/>
   </g>
   <g id="patch_5">
    <path d="M 95.7455 802.482388 
L 1058.951152 802.482388 
" style="fill: none; stroke: #000000; stroke-width: 0.8; stroke-linejoin: miter; stroke-linecap: square"/>
   </g>
   <g id="patch_6">
    <path d="M 95.7455 19.44 
L 1058.951152 19.44 
" style="fill: none; stroke: #000000; stroke-width: 0.8; stroke-linejoin: miter; stroke-linecap: square"/>
   </g>
   <g id="legend_1">
    <g id="patch_7">
     <path d="M 783.643965 111.515625 
L 1046.351152 111.515625 
Q 1049.951152 111.515625 1049.951152 107.915625 
L 1049.951152 32.04 
Q 1049.951152 28.44 1046.351152 28.44 
L 783.643965 28.44 
Q 780.043965 28.44 780.043965 32.04 
L 780.043965 107.915625 
Q 780.043965 111.515625 783.643965 111.515625 
z
" style="fill: #ffffff; opacity: 0.8; stroke: #cccccc; stroke-linejoin: miter"/>
    </g>
    <g id="line2d_33">
     <path d="M 787.243965 42.443438 
L 805.243965 42.443438 
L 823.243965 42.443438 
" style="fill: none; stroke-dasharray: 20,4; stroke-dashoffset: 0; stroke: #cec7b0; stroke-width: 4"/>
    </g>
    <g id="text_14">
     <!-- Germany -->
     <g transform="translate(837.643965 48.743438)scale(0.18 -0.18)">
      <defs>
       <path id="ArialMT-47" d="M 2638 1797 
L 2638 2334 
L 4578 2338 
L 4578 638 
Q 4131 281 3656 101 
Q 3181 -78 2681 -78 
Q 2006 -78 1454 211 
Q 903 500 622 1047 
Q 341 1594 341 2269 
Q 341 2938 620 3517 
Q 900 4097 1425 4378 
Q 1950 4659 2634 4659 
Q 3131 4659 3532 4498 
Q 3934 4338 4162 4050 
Q 4391 3763 4509 3300 
L 3963 3150 
Q 3859 3500 3706 3700 
Q 3553 3900 3268 4020 
Q 2984 4141 2638 4141 
Q 2222 4141 1919 4014 
Q 1616 3888 1430 3681 
Q 1244 3475 1141 3228 
Q 966 2803 966 2306 
Q 966 1694 1177 1281 
Q 1388 869 1791 669 
Q 2194 469 2647 469 
Q 3041 469 3416 620 
Q 3791 772 3984 944 
L 3984 1797 
L 2638 1797 
z
" transform="scale(0.015625)"/>
       <path id="ArialMT-79" d="M 397 -1278 
L 334 -750 
Q 519 -800 656 -800 
Q 844 -800 956 -737 
Q 1069 -675 1141 -563 
Q 1194 -478 1313 -144 
Q 1328 -97 1363 -6 
L 103 3319 
L 709 3319 
L 1400 1397 
Q 1534 1031 1641 628 
Q 1738 1016 1872 1384 
L 2581 3319 
L 3144 3319 
L 1881 -56 
Q 1678 -603 1566 -809 
Q 1416 -1088 1222 -1217 
Q 1028 -1347 759 -1347 
Q 597 -1347 397 -1278 
z
" transform="scale(0.015625)"/>
      </defs>
      <use xlink:href="#ArialMT-47"/>
      <use xlink:href="#ArialMT-65" x="77.783203"/>
      <use xlink:href="#ArialMT-72" x="133.398438"/>
      <use xlink:href="#ArialMT-6d" x="166.699219"/>
      <use xlink:href="#ArialMT-61" x="250"/>
      <use xlink:href="#ArialMT-6e" x="305.615234"/>
      <use xlink:href="#ArialMT-79" x="361.230469"/>
     </g>
    </g>
    <g id="line2d_34">
     <path d="M 787.243965 68.335313 
L 805.243965 68.335313 
L 823.243965 68.335313 
" style="fill: none; stroke-dasharray: 12,40,4,40; stroke-dashoffset: 0; stroke: #ce8e89; stroke-width: 4"/>
    </g>
    <g id="text_15">
     <!-- Portugal &amp; Spain -->
     <g transform="translate(837.643965 74.635313)scale(0.18 -0.18)">
      <defs>
       <path id="ArialMT-50" d="M 494 0 
L 494 4581 
L 2222 4581 
Q 2678 4581 2919 4538 
Q 3256 4481 3484 4323 
Q 3713 4166 3852 3881 
Q 3991 3597 3991 3256 
Q 3991 2672 3619 2267 
Q 3247 1863 2275 1863 
L 1100 1863 
L 1100 0 
L 494 0 
z
M 1100 2403 
L 2284 2403 
Q 2872 2403 3119 2622 
Q 3366 2841 3366 3238 
Q 3366 3525 3220 3729 
Q 3075 3934 2838 4000 
Q 2684 4041 2272 4041 
L 1100 4041 
L 1100 2403 
z
" transform="scale(0.015625)"/>
       <path id="ArialMT-67" d="M 319 -275 
L 866 -356 
Q 900 -609 1056 -725 
Q 1266 -881 1628 -881 
Q 2019 -881 2231 -725 
Q 2444 -569 2519 -288 
Q 2563 -116 2559 434 
Q 2191 0 1641 0 
Q 956 0 581 494 
Q 206 988 206 1678 
Q 206 2153 378 2554 
Q 550 2956 876 3175 
Q 1203 3394 1644 3394 
Q 2231 3394 2613 2919 
L 2613 3319 
L 3131 3319 
L 3131 450 
Q 3131 -325 2973 -648 
Q 2816 -972 2473 -1159 
Q 2131 -1347 1631 -1347 
Q 1038 -1347 672 -1080 
Q 306 -813 319 -275 
z
M 784 1719 
Q 784 1066 1043 766 
Q 1303 466 1694 466 
Q 2081 466 2343 764 
Q 2606 1063 2606 1700 
Q 2606 2309 2336 2618 
Q 2066 2928 1684 2928 
Q 1309 2928 1046 2623 
Q 784 2319 784 1719 
z
" transform="scale(0.015625)"/>
       <path id="ArialMT-26" d="M 3041 541 
Q 2763 231 2434 76 
Q 2106 -78 1725 -78 
Q 1022 -78 609 397 
Q 275 784 275 1263 
Q 275 1688 548 2030 
Q 822 2372 1366 2631 
Q 1056 2988 953 3209 
Q 850 3431 850 3638 
Q 850 4050 1173 4354 
Q 1497 4659 1988 4659 
Q 2456 4659 2754 4371 
Q 3053 4084 3053 3681 
Q 3053 3028 2188 2566 
L 3009 1519 
Q 3150 1794 3228 2156 
L 3813 2031 
Q 3663 1431 3406 1044 
Q 3722 625 4122 341 
L 3744 -106 
Q 3403 113 3041 541 
z
M 1897 2928 
Q 2263 3144 2370 3306 
Q 2478 3469 2478 3666 
Q 2478 3900 2329 4048 
Q 2181 4197 1959 4197 
Q 1731 4197 1579 4050 
Q 1428 3903 1428 3691 
Q 1428 3584 1483 3467 
Q 1538 3350 1647 3219 
L 1897 2928 
z
M 2688 984 
L 1656 2263 
Q 1200 1991 1040 1758 
Q 881 1525 881 1297 
Q 881 1019 1103 719 
Q 1325 419 1731 419 
Q 1984 419 2254 576 
Q 2525 734 2688 984 
z
" transform="scale(0.015625)"/>
       <path id="ArialMT-53" d="M 288 1472 
L 859 1522 
Q 900 1178 1048 958 
Q 1197 738 1509 602 
Q 1822 466 2213 466 
Q 2559 466 2825 569 
Q 3091 672 3220 851 
Q 3350 1031 3350 1244 
Q 3350 1459 3225 1620 
Q 3100 1781 2813 1891 
Q 2628 1963 1997 2114 
Q 1366 2266 1113 2400 
Q 784 2572 623 2826 
Q 463 3081 463 3397 
Q 463 3744 659 4045 
Q 856 4347 1234 4503 
Q 1613 4659 2075 4659 
Q 2584 4659 2973 4495 
Q 3363 4331 3572 4012 
Q 3781 3694 3797 3291 
L 3216 3247 
Q 3169 3681 2898 3903 
Q 2628 4125 2100 4125 
Q 1550 4125 1298 3923 
Q 1047 3722 1047 3438 
Q 1047 3191 1225 3031 
Q 1400 2872 2139 2705 
Q 2878 2538 3153 2413 
Q 3553 2228 3743 1945 
Q 3934 1663 3934 1294 
Q 3934 928 3725 604 
Q 3516 281 3123 101 
Q 2731 -78 2241 -78 
Q 1619 -78 1198 103 
Q 778 284 539 648 
Q 300 1013 288 1472 
z
" transform="scale(0.015625)"/>
       <path id="ArialMT-70" d="M 422 -1272 
L 422 3319 
L 934 3319 
L 934 2888 
Q 1116 3141 1344 3267 
Q 1572 3394 1897 3394 
Q 2322 3394 2647 3175 
Q 2972 2956 3137 2557 
Q 3303 2159 3303 1684 
Q 3303 1175 3120 767 
Q 2938 359 2589 142 
Q 2241 -75 1856 -75 
Q 1575 -75 1351 44 
Q 1128 163 984 344 
L 984 -1272 
L 422 -1272 
z
M 931 1641 
Q 931 1000 1190 694 
Q 1450 388 1819 388 
Q 2194 388 2461 705 
Q 2728 1022 2728 1688 
Q 2728 2322 2467 2637 
Q 2206 2953 1844 2953 
Q 1484 2953 1207 2617 
Q 931 2281 931 1641 
z
" transform="scale(0.015625)"/>
      </defs>
      <use xlink:href="#ArialMT-50"/>
      <use xlink:href="#ArialMT-6f" x="66.699219"/>
      <use xlink:href="#ArialMT-72" x="122.314453"/>
      <use xlink:href="#ArialMT-74" x="155.615234"/>
      <use xlink:href="#ArialMT-75" x="183.398438"/>
      <use xlink:href="#ArialMT-67" x="239.013672"/>
      <use xlink:href="#ArialMT-61" x="294.628906"/>
      <use xlink:href="#ArialMT-6c" x="350.244141"/>
      <use xlink:href="#ArialMT-20" x="372.460938"/>
      <use xlink:href="#ArialMT-26" x="400.244141"/>
      <use xlink:href="#ArialMT-20" x="466.943359"/>
      <use xlink:href="#ArialMT-53" x="494.726562"/>
      <use xlink:href="#ArialMT-70" x="561.425781"/>
      <use xlink:href="#ArialMT-61" x="617.041016"/>
      <use xlink:href="#ArialMT-69" x="672.65625"/>
      <use xlink:href="#ArialMT-6e" x="694.873047"/>
     </g>
    </g>
    <g id="line2d_35">
     <path d="M 787.243965 94.227188 
L 805.243965 94.227188 
L 823.243965 94.227188 
" style="fill: none; stroke-dasharray: 20,4; stroke-dashoffset: 0; stroke: #a5ccc4; stroke-width: 4"/>
    </g>
    <g id="text_16">
     <!-- United Kingdom &amp; Ireland -->
     <g transform="translate(837.643965 100.527188)scale(0.18 -0.18)">
      <defs>
       <path id="ArialMT-55" d="M 3500 4581 
L 4106 4581 
L 4106 1934 
Q 4106 1244 3950 837 
Q 3794 431 3386 176 
Q 2978 -78 2316 -78 
Q 1672 -78 1262 144 
Q 853 366 678 786 
Q 503 1206 503 1934 
L 503 4581 
L 1109 4581 
L 1109 1938 
Q 1109 1341 1220 1058 
Q 1331 775 1601 622 
Q 1872 469 2263 469 
Q 2931 469 3215 772 
Q 3500 1075 3500 1938 
L 3500 4581 
z
" transform="scale(0.015625)"/>
       <path id="ArialMT-4b" d="M 469 0 
L 469 4581 
L 1075 4581 
L 1075 2309 
L 3350 4581 
L 4172 4581 
L 2250 2725 
L 4256 0 
L 3456 0 
L 1825 2319 
L 1075 1588 
L 1075 0 
L 469 0 
z
" transform="scale(0.015625)"/>
       <path id="ArialMT-49" d="M 597 0 
L 597 4581 
L 1203 4581 
L 1203 0 
L 597 0 
z
" transform="scale(0.015625)"/>
      </defs>
      <use xlink:href="#ArialMT-55"/>
      <use xlink:href="#ArialMT-6e" x="72.216797"/>
      <use xlink:href="#ArialMT-69" x="127.832031"/>
      <use xlink:href="#ArialMT-74" x="150.048828"/>
      <use xlink:href="#ArialMT-65" x="177.832031"/>
      <use xlink:href="#ArialMT-64" x="233.447266"/>
      <use xlink:href="#ArialMT-20" x="289.0625"/>
      <use xlink:href="#ArialMT-4b" x="316.845703"/>
      <use xlink:href="#ArialMT-69" x="383.544922"/>
      <use xlink:href="#ArialMT-6e" x="405.761719"/>
      <use xlink:href="#ArialMT-67" x="461.376953"/>
      <use xlink:href="#ArialMT-64" x="516.992188"/>
      <use xlink:href="#ArialMT-6f" x="572.607422"/>
      <use xlink:href="#ArialMT-6d" x="628.222656"/>
      <use xlink:href="#ArialMT-20" x="711.523438"/>
      <use xlink:href="#ArialMT-26" x="739.306641"/>
      <use xlink:href="#ArialMT-20" x="806.005859"/>
      <use xlink:href="#ArialMT-49" x="833.789062"/>
      <use xlink:href="#ArialMT-72" x="861.572266"/>
      <use xlink:href="#ArialMT-65" x="894.873047"/>
      <use xlink:href="#ArialMT-6c" x="950.488281"/>
      <use xlink:href="#ArialMT-61" x="972.705078"/>
      <use xlink:href="#ArialMT-6e" x="1028.320312"/>
      <use xlink:href="#ArialMT-64" x="1083.935547"/>
     </g>
    </g>
   </g>
  </g>
 </g>
 <defs>
  <clipPath id="p07caf70c17">
   <rect x="95.7455" y="19.44" width="963.205652" height="783.042388"/>
  </clipPath>
 </defs>
</svg>
