<?xml version="1.0" encoding="utf-8" standalone="no"?>
<!DOCTYPE svg PUBLIC "-//W3C//DTD SVG 1.1//EN"
  "http://www.w3.org/Graphics/SVG/1.1/DTD/svg11.dtd">
<svg xmlns:xlink="http://www.w3.org/1999/xlink" width="1097.28pt" height="914.4pt" viewBox="0 0 1097.28 914.4" xmlns="http://www.w3.org/2000/svg" version="1.1">
 <metadata>
  <rdf:RDF xmlns:dc="http://purl.org/dc/elements/1.1/" xmlns:cc="http://creativecommons.org/ns#" xmlns:rdf="http://www.w3.org/1999/02/22-rdf-syntax-ns#">
   <cc:Work>
    <dc:type rdf:resource="http://purl.org/dc/dcmitype/StillImage"/>
    <dc:date>2023-08-18T10:59:05.281219</dc:date>
    <dc:format>image/svg+xml</dc:format>
    <dc:creator>
     <cc:Agent>
      <dc:title>Matplotlib v3.5.1, https://matplotlib.org/</dc:title>
     </cc:Agent>
    </dc:creator>
   </cc:Work>
  </rdf:RDF>
 </metadata>
 <defs>
  <style type="text/css">*{stroke-linejoin: round; stroke-linecap: butt}</style>
 </defs>
 <g id="figure_1">
  <g id="patch_1">
   <path d="M 0 914.4 
L 1097.28 914.4 
L 1097.28 0 
L 0 0 
L 0 914.4 
z
" style="fill: none"/>
  </g>
  <g id="axes_1">
   <g id="patch_2">
    <path d="M 137.16 800.1 
L 987.552 800.1 
L 987.552 109.728 
L 137.16 109.728 
z
" style="fill: #ffffff"/>
   </g>
   <g id="patch_3">
    <path d="M 175.814182 800.1 
L 196.716314 800.1 
L 196.716314 606.951991 
L 175.814182 606.951991 
z
" clip-path="url(#p4871843f5f)" style="fill: #8dd3c7; opacity: 0.8; stroke: #808080; stroke-linejoin: miter"/>
   </g>
   <g id="patch_4">
    <path d="M 196.716314 800.1 
L 230.520421 800.1 
L 230.520421 603.634473 
L 196.716314 603.634473 
z
" clip-path="url(#p4871843f5f)" style="fill: #8dd3c7; opacity: 0.8; stroke: #808080; stroke-linejoin: miter"/>
   </g>
   <g id="patch_5">
    <path d="M 230.520421 800.1 
L 260.569424 800.1 
L 260.569424 601.791232 
L 230.520421 601.791232 
z
" clip-path="url(#p4871843f5f)" style="fill: #8dd3c7; opacity: 0.8; stroke: #808080; stroke-linejoin: miter"/>
   </g>
   <g id="patch_6">
    <path d="M 260.569424 800.1 
L 281.372266 800.1 
L 281.372266 596.080926 
L 260.569424 596.080926 
z
" clip-path="url(#p4871843f5f)" style="fill: #8dd3c7; opacity: 0.8; stroke: #808080; stroke-linejoin: miter"/>
   </g>
   <g id="patch_7">
    <path d="M 281.372266 800.1 
L 305.608213 800.1 
L 305.608213 599.88522 
L 281.372266 599.88522 
z
" clip-path="url(#p4871843f5f)" style="fill: #8dd3c7; opacity: 0.8; stroke: #808080; stroke-linejoin: miter"/>
   </g>
   <g id="patch_8">
    <path d="M 305.608213 800.1 
L 327.696468 800.1 
L 327.696468 597.163532 
L 305.608213 597.163532 
z
" clip-path="url(#p4871843f5f)" style="fill: #8dd3c7; opacity: 0.8; stroke: #808080; stroke-linejoin: miter"/>
   </g>
   <g id="patch_9">
    <path d="M 327.696468 800.1 
L 348.699005 800.1 
L 348.699005 598.338677 
L 327.696468 598.338677 
z
" clip-path="url(#p4871843f5f)" style="fill: #8dd3c7; opacity: 0.8; stroke: #808080; stroke-linejoin: miter"/>
   </g>
   <g id="patch_10">
    <path d="M 348.699005 800.1 
L 369.79474 800.1 
L 369.79474 600.464275 
L 348.699005 600.464275 
z
" clip-path="url(#p4871843f5f)" style="fill: #8dd3c7; opacity: 0.8; stroke: #808080; stroke-linejoin: miter"/>
   </g>
   <g id="patch_11">
    <path d="M 369.79474 800.1 
L 390.744931 800.1 
L 390.744931 594.73998 
L 369.79474 594.73998 
z
" clip-path="url(#p4871843f5f)" style="fill: #8dd3c7; opacity: 0.8; stroke: #808080; stroke-linejoin: miter"/>
   </g>
   <g id="patch_12">
    <path d="M 390.744931 800.1 
L 409.823425 800.1 
L 409.823425 596.207621 
L 390.744931 596.207621 
z
" clip-path="url(#p4871843f5f)" style="fill: #8dd3c7; opacity: 0.8; stroke: #808080; stroke-linejoin: miter"/>
   </g>
   <g id="patch_13">
    <path d="M 409.823425 800.1 
L 432.843671 800.1 
L 432.843671 593.533903 
L 409.823425 593.533903 
z
" clip-path="url(#p4871843f5f)" style="fill: #8dd3c7; opacity: 0.8; stroke: #808080; stroke-linejoin: miter"/>
   </g>
   <g id="patch_14">
    <path d="M 432.843671 800.1 
L 453.816661 800.1 
L 453.816661 593.107955 
L 432.843671 593.107955 
z
" clip-path="url(#p4871843f5f)" style="fill: #8dd3c7; opacity: 0.8; stroke: #808080; stroke-linejoin: miter"/>
   </g>
   <g id="patch_15">
    <path d="M 453.816661 800.1 
L 484.034999 800.1 
L 484.034999 593.111425 
L 453.816661 593.111425 
z
" clip-path="url(#p4871843f5f)" style="fill: #8dd3c7; opacity: 0.8; stroke: #808080; stroke-linejoin: miter"/>
   </g>
   <g id="patch_16">
    <path d="M 484.034999 800.1 
L 517.958959 800.1 
L 517.958959 591.852304 
L 484.034999 591.852304 
z
" clip-path="url(#p4871843f5f)" style="fill: #8dd3c7; opacity: 0.8; stroke: #808080; stroke-linejoin: miter"/>
   </g>
   <g id="patch_17">
    <path d="M 517.958959 800.1 
L 538.896397 800.1 
L 538.896397 590.368233 
L 517.958959 590.368233 
z
" clip-path="url(#p4871843f5f)" style="fill: #8dd3c7; opacity: 0.8; stroke: #808080; stroke-linejoin: miter"/>
   </g>
   <g id="patch_18">
    <path d="M 538.896397 800.1 
L 552.267223 800.1 
L 552.267223 589.158933 
L 538.896397 589.158933 
z
" clip-path="url(#p4871843f5f)" style="fill: #8dd3c7; opacity: 0.8; stroke: #808080; stroke-linejoin: miter"/>
   </g>
   <g id="patch_19">
    <path d="M 552.267223 800.1 
L 584.703203 800.1 
L 584.703203 589.080731 
L 552.267223 589.080731 
z
" clip-path="url(#p4871843f5f)" style="fill: #8dd3c7; opacity: 0.8; stroke: #808080; stroke-linejoin: miter"/>
   </g>
   <g id="patch_20">
    <path d="M 584.703203 800.1 
L 600.430608 800.1 
L 600.430608 588.304094 
L 584.703203 588.304094 
z
" clip-path="url(#p4871843f5f)" style="fill: #8dd3c7; opacity: 0.8; stroke: #808080; stroke-linejoin: miter"/>
   </g>
   <g id="patch_21">
    <path d="M 600.430608 800.1 
L 614.400078 800.1 
L 614.400078 574.752326 
L 600.430608 574.752326 
z
" clip-path="url(#p4871843f5f)" style="fill: #8dd3c7; opacity: 0.8; stroke: #808080; stroke-linejoin: miter"/>
   </g>
   <g id="patch_22">
    <path d="M 614.400078 800.1 
L 647.88006 800.1 
L 647.88006 576.471084 
L 614.400078 576.471084 
z
" clip-path="url(#p4871843f5f)" style="fill: #8dd3c7; opacity: 0.8; stroke: #808080; stroke-linejoin: miter"/>
   </g>
   <g id="patch_23">
    <path d="M 647.88006 800.1 
L 668.452573 800.1 
L 668.452573 572.421003 
L 647.88006 572.421003 
z
" clip-path="url(#p4871843f5f)" style="fill: #8dd3c7; opacity: 0.8; stroke: #808080; stroke-linejoin: miter"/>
   </g>
   <g id="patch_24">
    <path d="M 668.452573 800.1 
L 702.300238 800.1 
L 702.300238 582.240447 
L 668.452573 582.240447 
z
" clip-path="url(#p4871843f5f)" style="fill: #8dd3c7; opacity: 0.8; stroke: #808080; stroke-linejoin: miter"/>
   </g>
   <g id="patch_25">
    <path d="M 702.300238 800.1 
L 738.862172 800.1 
L 738.862172 570.890482 
L 702.300238 570.890482 
z
" clip-path="url(#p4871843f5f)" style="fill: #8dd3c7; opacity: 0.8; stroke: #808080; stroke-linejoin: miter"/>
   </g>
   <g id="patch_26">
    <path d="M 738.862172 800.1 
L 754.622511 800.1 
L 754.622511 579.181406 
L 738.862172 579.181406 
z
" clip-path="url(#p4871843f5f)" style="fill: #8dd3c7; opacity: 0.8; stroke: #808080; stroke-linejoin: miter"/>
   </g>
   <g id="patch_27">
    <path d="M 754.622511 800.1 
L 775.286954 800.1 
L 775.286954 567.053103 
L 754.622511 567.053103 
z
" clip-path="url(#p4871843f5f)" style="fill: #8dd3c7; opacity: 0.8; stroke: #808080; stroke-linejoin: miter"/>
   </g>
   <g id="patch_28">
    <path d="M 775.286954 800.1 
L 788.432012 800.1 
L 788.432012 575.227309 
L 775.286954 575.227309 
z
" clip-path="url(#p4871843f5f)" style="fill: #8dd3c7; opacity: 0.8; stroke: #808080; stroke-linejoin: miter"/>
   </g>
   <g id="patch_29">
    <path d="M 788.432012 800.1 
L 810.6197 800.1 
L 810.6197 565.962692 
L 788.432012 565.962692 
z
" clip-path="url(#p4871843f5f)" style="fill: #8dd3c7; opacity: 0.8; stroke: #808080; stroke-linejoin: miter"/>
   </g>
   <g id="patch_30">
    <path d="M 810.6197 800.1 
L 834.10336 800.1 
L 834.10336 569.135926 
L 810.6197 569.135926 
z
" clip-path="url(#p4871843f5f)" style="fill: #8dd3c7; opacity: 0.8; stroke: #808080; stroke-linejoin: miter"/>
   </g>
   <g id="patch_31">
    <path d="M 834.10336 800.1 
L 861.356336 800.1 
L 861.356336 566.57201 
L 834.10336 566.57201 
z
" clip-path="url(#p4871843f5f)" style="fill: #8dd3c7; opacity: 0.8; stroke: #808080; stroke-linejoin: miter"/>
   </g>
   <g id="patch_32">
    <path d="M 861.356336 800.1 
L 885.702955 800.1 
L 885.702955 552.938441 
L 861.356336 552.938441 
z
" clip-path="url(#p4871843f5f)" style="fill: #8dd3c7; opacity: 0.8; stroke: #808080; stroke-linejoin: miter"/>
   </g>
   <g id="patch_33">
    <path d="M 895.402668 800.1 
L 916.501618 800.1 
L 916.501618 550.881074 
L 895.402668 550.881074 
z
" clip-path="url(#p4871843f5f)" style="fill: #8dd3c7; opacity: 0.8; stroke: #808080; stroke-linejoin: miter"/>
   </g>
   <g id="patch_34">
    <path d="M 916.501618 800.1 
L 931.68804 800.1 
L 931.68804 549.497342 
L 916.501618 549.497342 
z
" clip-path="url(#p4871843f5f)" style="fill: #8dd3c7; opacity: 0.8; stroke: #808080; stroke-linejoin: miter"/>
   </g>
   <g id="patch_35">
    <path d="M 931.68804 800.1 
L 948.897818 800.1 
L 948.897818 543.280029 
L 931.68804 543.280029 
z
" clip-path="url(#p4871843f5f)" style="fill: #8dd3c7; opacity: 0.8; stroke: #808080; stroke-linejoin: miter"/>
   </g>
   <g id="patch_36">
    <path d="M 175.814182 606.951991 
L 196.716314 606.951991 
L 196.716314 435.842426 
L 175.814182 435.842426 
z
" clip-path="url(#p4871843f5f)" style="fill: url(#h68c4cae88c); opacity: 0.3; stroke: #808080; stroke-linejoin: miter"/>
   </g>
   <g id="patch_37">
    <path d="M 196.716314 603.634473 
L 230.520421 603.634473 
L 230.520421 432.515708 
L 196.716314 432.515708 
z
" clip-path="url(#p4871843f5f)" style="fill: url(#h68c4cae88c); opacity: 0.3; stroke: #808080; stroke-linejoin: miter"/>
   </g>
   <g id="patch_38">
    <path d="M 230.520421 601.791232 
L 260.569424 601.791232 
L 260.569424 431.028237 
L 230.520421 431.028237 
z
" clip-path="url(#p4871843f5f)" style="fill: url(#h68c4cae88c); opacity: 0.3; stroke: #808080; stroke-linejoin: miter"/>
   </g>
   <g id="patch_39">
    <path d="M 260.569424 596.080926 
L 281.372266 596.080926 
L 281.372266 427.735104 
L 260.569424 427.735104 
z
" clip-path="url(#p4871843f5f)" style="fill: url(#h68c4cae88c); opacity: 0.3; stroke: #808080; stroke-linejoin: miter"/>
   </g>
   <g id="patch_40">
    <path d="M 281.372266 599.88522 
L 305.608213 599.88522 
L 305.608213 425.926613 
L 281.372266 425.926613 
z
" clip-path="url(#p4871843f5f)" style="fill: url(#h68c4cae88c); opacity: 0.3; stroke: #808080; stroke-linejoin: miter"/>
   </g>
   <g id="patch_41">
    <path d="M 305.608213 597.163532 
L 327.696468 597.163532 
L 327.696468 424.452758 
L 305.608213 424.452758 
z
" clip-path="url(#p4871843f5f)" style="fill: url(#h68c4cae88c); opacity: 0.3; stroke: #808080; stroke-linejoin: miter"/>
   </g>
   <g id="patch_42">
    <path d="M 327.696468 598.338677 
L 348.699005 598.338677 
L 348.699005 424.434363 
L 327.696468 424.434363 
z
" clip-path="url(#p4871843f5f)" style="fill: url(#h68c4cae88c); opacity: 0.3; stroke: #808080; stroke-linejoin: miter"/>
   </g>
   <g id="patch_43">
    <path d="M 348.699005 600.464275 
L 369.79474 600.464275 
L 369.79474 423.965792 
L 348.699005 423.965792 
z
" clip-path="url(#p4871843f5f)" style="fill: url(#h68c4cae88c); opacity: 0.3; stroke: #808080; stroke-linejoin: miter"/>
   </g>
   <g id="patch_44">
    <path d="M 369.79474 594.73998 
L 390.744931 594.73998 
L 390.744931 422.292717 
L 369.79474 422.292717 
z
" clip-path="url(#p4871843f5f)" style="fill: url(#h68c4cae88c); opacity: 0.3; stroke: #808080; stroke-linejoin: miter"/>
   </g>
   <g id="patch_45">
    <path d="M 390.744931 596.207621 
L 409.823425 596.207621 
L 409.823425 421.853952 
L 390.744931 421.853952 
z
" clip-path="url(#p4871843f5f)" style="fill: url(#h68c4cae88c); opacity: 0.3; stroke: #808080; stroke-linejoin: miter"/>
   </g>
   <g id="patch_46">
    <path d="M 409.823425 593.533903 
L 432.843671 593.533903 
L 432.843671 421.718334 
L 409.823425 421.718334 
z
" clip-path="url(#p4871843f5f)" style="fill: url(#h68c4cae88c); opacity: 0.3; stroke: #808080; stroke-linejoin: miter"/>
   </g>
   <g id="patch_47">
    <path d="M 432.843671 593.107955 
L 453.816661 593.107955 
L 453.816661 420.026095 
L 432.843671 420.026095 
z
" clip-path="url(#p4871843f5f)" style="fill: url(#h68c4cae88c); opacity: 0.3; stroke: #808080; stroke-linejoin: miter"/>
   </g>
   <g id="patch_48">
    <path d="M 453.816661 593.111425 
L 484.034999 593.111425 
L 484.034999 419.071721 
L 453.816661 419.071721 
z
" clip-path="url(#p4871843f5f)" style="fill: url(#h68c4cae88c); opacity: 0.3; stroke: #808080; stroke-linejoin: miter"/>
   </g>
   <g id="patch_49">
    <path d="M 484.034999 591.852304 
L 517.958959 591.852304 
L 517.958959 418.670675 
L 484.034999 418.670675 
z
" clip-path="url(#p4871843f5f)" style="fill: url(#h68c4cae88c); opacity: 0.3; stroke: #808080; stroke-linejoin: miter"/>
   </g>
   <g id="patch_50">
    <path d="M 517.958959 590.368233 
L 538.896397 590.368233 
L 538.896397 418.275949 
L 517.958959 418.275949 
z
" clip-path="url(#p4871843f5f)" style="fill: url(#h68c4cae88c); opacity: 0.3; stroke: #808080; stroke-linejoin: miter"/>
   </g>
   <g id="patch_51">
    <path d="M 538.896397 589.158933 
L 552.267223 589.158933 
L 552.267223 416.932502 
L 538.896397 416.932502 
z
" clip-path="url(#p4871843f5f)" style="fill: url(#h68c4cae88c); opacity: 0.3; stroke: #808080; stroke-linejoin: miter"/>
   </g>
   <g id="patch_52">
    <path d="M 552.267223 589.080731 
L 584.703203 589.080731 
L 584.703203 412.925948 
L 552.267223 412.925948 
z
" clip-path="url(#p4871843f5f)" style="fill: url(#h68c4cae88c); opacity: 0.3; stroke: #808080; stroke-linejoin: miter"/>
   </g>
   <g id="patch_53">
    <path d="M 584.703203 588.304094 
L 600.430608 588.304094 
L 600.430608 412.300235 
L 584.703203 412.300235 
z
" clip-path="url(#p4871843f5f)" style="fill: url(#h68c4cae88c); opacity: 0.3; stroke: #808080; stroke-linejoin: miter"/>
   </g>
   <g id="patch_54">
    <path d="M 600.430608 574.752326 
L 614.400078 574.752326 
L 614.400078 411.030581 
L 600.430608 411.030581 
z
" clip-path="url(#p4871843f5f)" style="fill: url(#h68c4cae88c); opacity: 0.3; stroke: #808080; stroke-linejoin: miter"/>
   </g>
   <g id="patch_55">
    <path d="M 614.400078 576.471084 
L 647.88006 576.471084 
L 647.88006 410.930973 
L 614.400078 410.930973 
z
" clip-path="url(#p4871843f5f)" style="fill: url(#h68c4cae88c); opacity: 0.3; stroke: #808080; stroke-linejoin: miter"/>
   </g>
   <g id="patch_56">
    <path d="M 647.88006 572.421003 
L 668.452573 572.421003 
L 668.452573 410.486386 
L 647.88006 410.486386 
z
" clip-path="url(#p4871843f5f)" style="fill: url(#h68c4cae88c); opacity: 0.3; stroke: #808080; stroke-linejoin: miter"/>
   </g>
   <g id="patch_57">
    <path d="M 668.452573 582.240447 
L 702.300238 582.240447 
L 702.300238 410.371968 
L 668.452573 410.371968 
z
" clip-path="url(#p4871843f5f)" style="fill: url(#h68c4cae88c); opacity: 0.3; stroke: #808080; stroke-linejoin: miter"/>
   </g>
   <g id="patch_58">
    <path d="M 702.300238 570.890482 
L 738.862172 570.890482 
L 738.862172 408.859355 
L 702.300238 408.859355 
z
" clip-path="url(#p4871843f5f)" style="fill: url(#h68c4cae88c); opacity: 0.3; stroke: #808080; stroke-linejoin: miter"/>
   </g>
   <g id="patch_59">
    <path d="M 738.862172 579.181406 
L 754.622511 579.181406 
L 754.622511 407.948235 
L 738.862172 407.948235 
z
" clip-path="url(#p4871843f5f)" style="fill: url(#h68c4cae88c); opacity: 0.3; stroke: #808080; stroke-linejoin: miter"/>
   </g>
   <g id="patch_60">
    <path d="M 754.622511 567.053103 
L 775.286954 567.053103 
L 775.286954 402.559622 
L 754.622511 402.559622 
z
" clip-path="url(#p4871843f5f)" style="fill: url(#h68c4cae88c); opacity: 0.3; stroke: #808080; stroke-linejoin: miter"/>
   </g>
   <g id="patch_61">
    <path d="M 775.286954 575.227309 
L 788.432012 575.227309 
L 788.432012 402.296063 
L 775.286954 402.296063 
z
" clip-path="url(#p4871843f5f)" style="fill: url(#h68c4cae88c); opacity: 0.3; stroke: #808080; stroke-linejoin: miter"/>
   </g>
   <g id="patch_62">
    <path d="M 788.432012 565.962692 
L 810.6197 565.962692 
L 810.6197 399.057798 
L 788.432012 399.057798 
z
" clip-path="url(#p4871843f5f)" style="fill: url(#h68c4cae88c); opacity: 0.3; stroke: #808080; stroke-linejoin: miter"/>
   </g>
   <g id="patch_63">
    <path d="M 810.6197 569.135926 
L 834.10336 569.135926 
L 834.10336 393.790364 
L 810.6197 393.790364 
z
" clip-path="url(#p4871843f5f)" style="fill: url(#h68c4cae88c); opacity: 0.3; stroke: #808080; stroke-linejoin: miter"/>
   </g>
   <g id="patch_64">
    <path d="M 834.10336 566.57201 
L 861.356336 566.57201 
L 861.356336 390.271785 
L 834.10336 390.271785 
z
" clip-path="url(#p4871843f5f)" style="fill: url(#h68c4cae88c); opacity: 0.3; stroke: #808080; stroke-linejoin: miter"/>
   </g>
   <g id="patch_65">
    <path d="M 861.356336 552.938441 
L 885.702955 552.938441 
L 885.702955 387.826263 
L 861.356336 387.826263 
z
" clip-path="url(#p4871843f5f)" style="fill: url(#h68c4cae88c); opacity: 0.3; stroke: #808080; stroke-linejoin: miter"/>
   </g>
   <g id="patch_66">
    <path d="M 895.402668 550.881074 
L 916.501618 550.881074 
L 916.501618 374.293128 
L 895.402668 374.293128 
z
" clip-path="url(#p4871843f5f)" style="fill: url(#h68c4cae88c); opacity: 0.3; stroke: #808080; stroke-linejoin: miter"/>
   </g>
   <g id="patch_67">
    <path d="M 916.501618 549.497342 
L 931.68804 549.497342 
L 931.68804 373.095779 
L 916.501618 373.095779 
z
" clip-path="url(#p4871843f5f)" style="fill: url(#h68c4cae88c); opacity: 0.3; stroke: #808080; stroke-linejoin: miter"/>
   </g>
   <g id="patch_68">
    <path d="M 931.68804 543.280029 
L 948.897818 543.280029 
L 948.897818 363.702268 
L 931.68804 363.702268 
z
" clip-path="url(#p4871843f5f)" style="fill: url(#h68c4cae88c); opacity: 0.3; stroke: #808080; stroke-linejoin: miter"/>
   </g>
   <g id="patch_69">
    <path d="M 885.702955 800.1 
L 895.402668 800.1 
L 895.402668 571.304788 
L 885.702955 571.304788 
z
" clip-path="url(#p4871843f5f)" style="fill: #ffffb3; opacity: 0.8; stroke: #808080; stroke-linejoin: miter"/>
   </g>
   <g id="patch_70">
    <path d="M 885.702955 571.304788 
L 895.402668 571.304788 
L 895.402668 379.343177 
L 885.702955 379.343177 
z
" clip-path="url(#p4871843f5f)" style="fill: url(#h68c4cae88c); opacity: 0.3; stroke: #808080; stroke-linejoin: miter"/>
   </g>
   <g id="matplotlib.axis_1">
    <g id="xtick_1">
     <g id="line2d_1">
      <defs>
       <path id="md644a5e5b7" d="M 0 0 
L 0 3.5 
" style="stroke: #000000; stroke-width: 0.8"/>
      </defs>
      <g>
       <use xlink:href="#md644a5e5b7" x="175.814182" y="800.1" style="stroke: #000000; stroke-width: 0.8"/>
      </g>
     </g>
     <g id="text_1">
      <!-- 0.0% -->
      <g transform="translate(174.062689 833.571416)rotate(-70)scale(0.1 -0.1)">
       <defs>
        <path id="DejaVuSans-30" d="M 2034 4250 
Q 1547 4250 1301 3770 
Q 1056 3291 1056 2328 
Q 1056 1369 1301 889 
Q 1547 409 2034 409 
Q 2525 409 2770 889 
Q 3016 1369 3016 2328 
Q 3016 3291 2770 3770 
Q 2525 4250 2034 4250 
z
M 2034 4750 
Q 2819 4750 3233 4129 
Q 3647 3509 3647 2328 
Q 3647 1150 3233 529 
Q 2819 -91 2034 -91 
Q 1250 -91 836 529 
Q 422 1150 422 2328 
Q 422 3509 836 4129 
Q 1250 4750 2034 4750 
z
" transform="scale(0.015625)"/>
        <path id="DejaVuSans-2e" d="M 684 794 
L 1344 794 
L 1344 0 
L 684 0 
L 684 794 
z
" transform="scale(0.015625)"/>
        <path id="DejaVuSans-25" d="M 4653 2053 
Q 4381 2053 4226 1822 
Q 4072 1591 4072 1178 
Q 4072 772 4226 539 
Q 4381 306 4653 306 
Q 4919 306 5073 539 
Q 5228 772 5228 1178 
Q 5228 1588 5073 1820 
Q 4919 2053 4653 2053 
z
M 4653 2450 
Q 5147 2450 5437 2106 
Q 5728 1763 5728 1178 
Q 5728 594 5436 251 
Q 5144 -91 4653 -91 
Q 4153 -91 3862 251 
Q 3572 594 3572 1178 
Q 3572 1766 3864 2108 
Q 4156 2450 4653 2450 
z
M 1428 4353 
Q 1159 4353 1004 4120 
Q 850 3888 850 3481 
Q 850 3069 1003 2837 
Q 1156 2606 1428 2606 
Q 1700 2606 1854 2837 
Q 2009 3069 2009 3481 
Q 2009 3884 1853 4118 
Q 1697 4353 1428 4353 
z
M 4250 4750 
L 4750 4750 
L 1831 -91 
L 1331 -91 
L 4250 4750 
z
M 1428 4750 
Q 1922 4750 2215 4408 
Q 2509 4066 2509 3481 
Q 2509 2891 2217 2550 
Q 1925 2209 1428 2209 
Q 931 2209 642 2551 
Q 353 2894 353 3481 
Q 353 4063 643 4406 
Q 934 4750 1428 4750 
z
" transform="scale(0.015625)"/>
       </defs>
       <use xlink:href="#DejaVuSans-30"/>
       <use xlink:href="#DejaVuSans-2e" x="63.623047"/>
       <use xlink:href="#DejaVuSans-30" x="95.410156"/>
       <use xlink:href="#DejaVuSans-25" x="159.033203"/>
      </g>
     </g>
    </g>
    <g id="xtick_2">
     <g id="line2d_2">
      <g>
       <use xlink:href="#md644a5e5b7" x="326.239837" y="800.1" style="stroke: #000000; stroke-width: 0.8"/>
      </g>
     </g>
     <g id="text_2">
      <!-- 20.0% -->
      <g transform="translate(323.400293 839.55021)rotate(-70)scale(0.1 -0.1)">
       <defs>
        <path id="DejaVuSans-32" d="M 1228 531 
L 3431 531 
L 3431 0 
L 469 0 
L 469 531 
Q 828 903 1448 1529 
Q 2069 2156 2228 2338 
Q 2531 2678 2651 2914 
Q 2772 3150 2772 3378 
Q 2772 3750 2511 3984 
Q 2250 4219 1831 4219 
Q 1534 4219 1204 4116 
Q 875 4013 500 3803 
L 500 4441 
Q 881 4594 1212 4672 
Q 1544 4750 1819 4750 
Q 2544 4750 2975 4387 
Q 3406 4025 3406 3419 
Q 3406 3131 3298 2873 
Q 3191 2616 2906 2266 
Q 2828 2175 2409 1742 
Q 1991 1309 1228 531 
z
" transform="scale(0.015625)"/>
       </defs>
       <use xlink:href="#DejaVuSans-32"/>
       <use xlink:href="#DejaVuSans-30" x="63.623047"/>
       <use xlink:href="#DejaVuSans-2e" x="127.246094"/>
       <use xlink:href="#DejaVuSans-30" x="159.033203"/>
       <use xlink:href="#DejaVuSans-25" x="222.65625"/>
      </g>
     </g>
    </g>
    <g id="xtick_3">
     <g id="line2d_3">
      <g>
       <use xlink:href="#md644a5e5b7" x="476.665493" y="800.1" style="stroke: #000000; stroke-width: 0.8"/>
      </g>
     </g>
     <g id="text_3">
      <!-- 40.0% -->
      <g transform="translate(473.825948 839.55021)rotate(-70)scale(0.1 -0.1)">
       <defs>
        <path id="DejaVuSans-34" d="M 2419 4116 
L 825 1625 
L 2419 1625 
L 2419 4116 
z
M 2253 4666 
L 3047 4666 
L 3047 1625 
L 3713 1625 
L 3713 1100 
L 3047 1100 
L 3047 0 
L 2419 0 
L 2419 1100 
L 313 1100 
L 313 1709 
L 2253 4666 
z
" transform="scale(0.015625)"/>
       </defs>
       <use xlink:href="#DejaVuSans-34"/>
       <use xlink:href="#DejaVuSans-30" x="63.623047"/>
       <use xlink:href="#DejaVuSans-2e" x="127.246094"/>
       <use xlink:href="#DejaVuSans-30" x="159.033203"/>
       <use xlink:href="#DejaVuSans-25" x="222.65625"/>
      </g>
     </g>
    </g>
    <g id="xtick_4">
     <g id="line2d_4">
      <g>
       <use xlink:href="#md644a5e5b7" x="627.091149" y="800.1" style="stroke: #000000; stroke-width: 0.8"/>
      </g>
     </g>
     <g id="text_4">
      <!-- 60.0% -->
      <g transform="translate(624.251604 839.55021)rotate(-70)scale(0.1 -0.1)">
       <defs>
        <path id="DejaVuSans-36" d="M 2113 2584 
Q 1688 2584 1439 2293 
Q 1191 2003 1191 1497 
Q 1191 994 1439 701 
Q 1688 409 2113 409 
Q 2538 409 2786 701 
Q 3034 994 3034 1497 
Q 3034 2003 2786 2293 
Q 2538 2584 2113 2584 
z
M 3366 4563 
L 3366 3988 
Q 3128 4100 2886 4159 
Q 2644 4219 2406 4219 
Q 1781 4219 1451 3797 
Q 1122 3375 1075 2522 
Q 1259 2794 1537 2939 
Q 1816 3084 2150 3084 
Q 2853 3084 3261 2657 
Q 3669 2231 3669 1497 
Q 3669 778 3244 343 
Q 2819 -91 2113 -91 
Q 1303 -91 875 529 
Q 447 1150 447 2328 
Q 447 3434 972 4092 
Q 1497 4750 2381 4750 
Q 2619 4750 2861 4703 
Q 3103 4656 3366 4563 
z
" transform="scale(0.015625)"/>
       </defs>
       <use xlink:href="#DejaVuSans-36"/>
       <use xlink:href="#DejaVuSans-30" x="63.623047"/>
       <use xlink:href="#DejaVuSans-2e" x="127.246094"/>
       <use xlink:href="#DejaVuSans-30" x="159.033203"/>
       <use xlink:href="#DejaVuSans-25" x="222.65625"/>
      </g>
     </g>
    </g>
    <g id="xtick_5">
     <g id="line2d_5">
      <g>
       <use xlink:href="#md644a5e5b7" x="777.516804" y="800.1" style="stroke: #000000; stroke-width: 0.8"/>
      </g>
     </g>
     <g id="text_5">
      <!-- 80.0% -->
      <g transform="translate(774.67726 839.55021)rotate(-70)scale(0.1 -0.1)">
       <defs>
        <path id="DejaVuSans-38" d="M 2034 2216 
Q 1584 2216 1326 1975 
Q 1069 1734 1069 1313 
Q 1069 891 1326 650 
Q 1584 409 2034 409 
Q 2484 409 2743 651 
Q 3003 894 3003 1313 
Q 3003 1734 2745 1975 
Q 2488 2216 2034 2216 
z
M 1403 2484 
Q 997 2584 770 2862 
Q 544 3141 544 3541 
Q 544 4100 942 4425 
Q 1341 4750 2034 4750 
Q 2731 4750 3128 4425 
Q 3525 4100 3525 3541 
Q 3525 3141 3298 2862 
Q 3072 2584 2669 2484 
Q 3125 2378 3379 2068 
Q 3634 1759 3634 1313 
Q 3634 634 3220 271 
Q 2806 -91 2034 -91 
Q 1263 -91 848 271 
Q 434 634 434 1313 
Q 434 1759 690 2068 
Q 947 2378 1403 2484 
z
M 1172 3481 
Q 1172 3119 1398 2916 
Q 1625 2713 2034 2713 
Q 2441 2713 2670 2916 
Q 2900 3119 2900 3481 
Q 2900 3844 2670 4047 
Q 2441 4250 2034 4250 
Q 1625 4250 1398 4047 
Q 1172 3844 1172 3481 
z
" transform="scale(0.015625)"/>
       </defs>
       <use xlink:href="#DejaVuSans-38"/>
       <use xlink:href="#DejaVuSans-30" x="63.623047"/>
       <use xlink:href="#DejaVuSans-2e" x="127.246094"/>
       <use xlink:href="#DejaVuSans-30" x="159.033203"/>
       <use xlink:href="#DejaVuSans-25" x="222.65625"/>
      </g>
     </g>
    </g>
    <g id="xtick_6">
     <g id="line2d_6">
      <g>
       <use xlink:href="#md644a5e5b7" x="927.94246" y="800.1" style="stroke: #000000; stroke-width: 0.8"/>
      </g>
     </g>
     <g id="text_6">
      <!-- 100.0% -->
      <g transform="translate(924.014864 845.529005)rotate(-70)scale(0.1 -0.1)">
       <defs>
        <path id="DejaVuSans-31" d="M 794 531 
L 1825 531 
L 1825 4091 
L 703 3866 
L 703 4441 
L 1819 4666 
L 2450 4666 
L 2450 531 
L 3481 531 
L 3481 0 
L 794 0 
L 794 531 
z
" transform="scale(0.015625)"/>
       </defs>
       <use xlink:href="#DejaVuSans-31"/>
       <use xlink:href="#DejaVuSans-30" x="63.623047"/>
       <use xlink:href="#DejaVuSans-30" x="127.246094"/>
       <use xlink:href="#DejaVuSans-2e" x="190.869141"/>
       <use xlink:href="#DejaVuSans-30" x="222.65625"/>
       <use xlink:href="#DejaVuSans-25" x="286.279297"/>
      </g>
     </g>
    </g>
    <g id="text_7">
     <!-- Cummulative emission reduction  -->
     <g transform="translate(478.329437 857.838737)scale(0.1 -0.1)">
      <defs>
       <path id="DejaVuSans-43" d="M 4122 4306 
L 4122 3641 
Q 3803 3938 3442 4084 
Q 3081 4231 2675 4231 
Q 1875 4231 1450 3742 
Q 1025 3253 1025 2328 
Q 1025 1406 1450 917 
Q 1875 428 2675 428 
Q 3081 428 3442 575 
Q 3803 722 4122 1019 
L 4122 359 
Q 3791 134 3420 21 
Q 3050 -91 2638 -91 
Q 1578 -91 968 557 
Q 359 1206 359 2328 
Q 359 3453 968 4101 
Q 1578 4750 2638 4750 
Q 3056 4750 3426 4639 
Q 3797 4528 4122 4306 
z
" transform="scale(0.015625)"/>
       <path id="DejaVuSans-75" d="M 544 1381 
L 544 3500 
L 1119 3500 
L 1119 1403 
Q 1119 906 1312 657 
Q 1506 409 1894 409 
Q 2359 409 2629 706 
Q 2900 1003 2900 1516 
L 2900 3500 
L 3475 3500 
L 3475 0 
L 2900 0 
L 2900 538 
Q 2691 219 2414 64 
Q 2138 -91 1772 -91 
Q 1169 -91 856 284 
Q 544 659 544 1381 
z
M 1991 3584 
L 1991 3584 
z
" transform="scale(0.015625)"/>
       <path id="DejaVuSans-6d" d="M 3328 2828 
Q 3544 3216 3844 3400 
Q 4144 3584 4550 3584 
Q 5097 3584 5394 3201 
Q 5691 2819 5691 2113 
L 5691 0 
L 5113 0 
L 5113 2094 
Q 5113 2597 4934 2840 
Q 4756 3084 4391 3084 
Q 3944 3084 3684 2787 
Q 3425 2491 3425 1978 
L 3425 0 
L 2847 0 
L 2847 2094 
Q 2847 2600 2669 2842 
Q 2491 3084 2119 3084 
Q 1678 3084 1418 2786 
Q 1159 2488 1159 1978 
L 1159 0 
L 581 0 
L 581 3500 
L 1159 3500 
L 1159 2956 
Q 1356 3278 1631 3431 
Q 1906 3584 2284 3584 
Q 2666 3584 2933 3390 
Q 3200 3197 3328 2828 
z
" transform="scale(0.015625)"/>
       <path id="DejaVuSans-6c" d="M 603 4863 
L 1178 4863 
L 1178 0 
L 603 0 
L 603 4863 
z
" transform="scale(0.015625)"/>
       <path id="DejaVuSans-61" d="M 2194 1759 
Q 1497 1759 1228 1600 
Q 959 1441 959 1056 
Q 959 750 1161 570 
Q 1363 391 1709 391 
Q 2188 391 2477 730 
Q 2766 1069 2766 1631 
L 2766 1759 
L 2194 1759 
z
M 3341 1997 
L 3341 0 
L 2766 0 
L 2766 531 
Q 2569 213 2275 61 
Q 1981 -91 1556 -91 
Q 1019 -91 701 211 
Q 384 513 384 1019 
Q 384 1609 779 1909 
Q 1175 2209 1959 2209 
L 2766 2209 
L 2766 2266 
Q 2766 2663 2505 2880 
Q 2244 3097 1772 3097 
Q 1472 3097 1187 3025 
Q 903 2953 641 2809 
L 641 3341 
Q 956 3463 1253 3523 
Q 1550 3584 1831 3584 
Q 2591 3584 2966 3190 
Q 3341 2797 3341 1997 
z
" transform="scale(0.015625)"/>
       <path id="DejaVuSans-74" d="M 1172 4494 
L 1172 3500 
L 2356 3500 
L 2356 3053 
L 1172 3053 
L 1172 1153 
Q 1172 725 1289 603 
Q 1406 481 1766 481 
L 2356 481 
L 2356 0 
L 1766 0 
Q 1100 0 847 248 
Q 594 497 594 1153 
L 594 3053 
L 172 3053 
L 172 3500 
L 594 3500 
L 594 4494 
L 1172 4494 
z
" transform="scale(0.015625)"/>
       <path id="DejaVuSans-69" d="M 603 3500 
L 1178 3500 
L 1178 0 
L 603 0 
L 603 3500 
z
M 603 4863 
L 1178 4863 
L 1178 4134 
L 603 4134 
L 603 4863 
z
" transform="scale(0.015625)"/>
       <path id="DejaVuSans-76" d="M 191 3500 
L 800 3500 
L 1894 563 
L 2988 3500 
L 3597 3500 
L 2284 0 
L 1503 0 
L 191 3500 
z
" transform="scale(0.015625)"/>
       <path id="DejaVuSans-65" d="M 3597 1894 
L 3597 1613 
L 953 1613 
Q 991 1019 1311 708 
Q 1631 397 2203 397 
Q 2534 397 2845 478 
Q 3156 559 3463 722 
L 3463 178 
Q 3153 47 2828 -22 
Q 2503 -91 2169 -91 
Q 1331 -91 842 396 
Q 353 884 353 1716 
Q 353 2575 817 3079 
Q 1281 3584 2069 3584 
Q 2775 3584 3186 3129 
Q 3597 2675 3597 1894 
z
M 3022 2063 
Q 3016 2534 2758 2815 
Q 2500 3097 2075 3097 
Q 1594 3097 1305 2825 
Q 1016 2553 972 2059 
L 3022 2063 
z
" transform="scale(0.015625)"/>
       <path id="DejaVuSans-20" transform="scale(0.015625)"/>
       <path id="DejaVuSans-73" d="M 2834 3397 
L 2834 2853 
Q 2591 2978 2328 3040 
Q 2066 3103 1784 3103 
Q 1356 3103 1142 2972 
Q 928 2841 928 2578 
Q 928 2378 1081 2264 
Q 1234 2150 1697 2047 
L 1894 2003 
Q 2506 1872 2764 1633 
Q 3022 1394 3022 966 
Q 3022 478 2636 193 
Q 2250 -91 1575 -91 
Q 1294 -91 989 -36 
Q 684 19 347 128 
L 347 722 
Q 666 556 975 473 
Q 1284 391 1588 391 
Q 1994 391 2212 530 
Q 2431 669 2431 922 
Q 2431 1156 2273 1281 
Q 2116 1406 1581 1522 
L 1381 1569 
Q 847 1681 609 1914 
Q 372 2147 372 2553 
Q 372 3047 722 3315 
Q 1072 3584 1716 3584 
Q 2034 3584 2315 3537 
Q 2597 3491 2834 3397 
z
" transform="scale(0.015625)"/>
       <path id="DejaVuSans-6f" d="M 1959 3097 
Q 1497 3097 1228 2736 
Q 959 2375 959 1747 
Q 959 1119 1226 758 
Q 1494 397 1959 397 
Q 2419 397 2687 759 
Q 2956 1122 2956 1747 
Q 2956 2369 2687 2733 
Q 2419 3097 1959 3097 
z
M 1959 3584 
Q 2709 3584 3137 3096 
Q 3566 2609 3566 1747 
Q 3566 888 3137 398 
Q 2709 -91 1959 -91 
Q 1206 -91 779 398 
Q 353 888 353 1747 
Q 353 2609 779 3096 
Q 1206 3584 1959 3584 
z
" transform="scale(0.015625)"/>
       <path id="DejaVuSans-6e" d="M 3513 2113 
L 3513 0 
L 2938 0 
L 2938 2094 
Q 2938 2591 2744 2837 
Q 2550 3084 2163 3084 
Q 1697 3084 1428 2787 
Q 1159 2491 1159 1978 
L 1159 0 
L 581 0 
L 581 3500 
L 1159 3500 
L 1159 2956 
Q 1366 3272 1645 3428 
Q 1925 3584 2291 3584 
Q 2894 3584 3203 3211 
Q 3513 2838 3513 2113 
z
" transform="scale(0.015625)"/>
       <path id="DejaVuSans-72" d="M 2631 2963 
Q 2534 3019 2420 3045 
Q 2306 3072 2169 3072 
Q 1681 3072 1420 2755 
Q 1159 2438 1159 1844 
L 1159 0 
L 581 0 
L 581 3500 
L 1159 3500 
L 1159 2956 
Q 1341 3275 1631 3429 
Q 1922 3584 2338 3584 
Q 2397 3584 2469 3576 
Q 2541 3569 2628 3553 
L 2631 2963 
z
" transform="scale(0.015625)"/>
       <path id="DejaVuSans-64" d="M 2906 2969 
L 2906 4863 
L 3481 4863 
L 3481 0 
L 2906 0 
L 2906 525 
Q 2725 213 2448 61 
Q 2172 -91 1784 -91 
Q 1150 -91 751 415 
Q 353 922 353 1747 
Q 353 2572 751 3078 
Q 1150 3584 1784 3584 
Q 2172 3584 2448 3432 
Q 2725 3281 2906 2969 
z
M 947 1747 
Q 947 1113 1208 752 
Q 1469 391 1925 391 
Q 2381 391 2643 752 
Q 2906 1113 2906 1747 
Q 2906 2381 2643 2742 
Q 2381 3103 1925 3103 
Q 1469 3103 1208 2742 
Q 947 2381 947 1747 
z
" transform="scale(0.015625)"/>
       <path id="DejaVuSans-63" d="M 3122 3366 
L 3122 2828 
Q 2878 2963 2633 3030 
Q 2388 3097 2138 3097 
Q 1578 3097 1268 2742 
Q 959 2388 959 1747 
Q 959 1106 1268 751 
Q 1578 397 2138 397 
Q 2388 397 2633 464 
Q 2878 531 3122 666 
L 3122 134 
Q 2881 22 2623 -34 
Q 2366 -91 2075 -91 
Q 1284 -91 818 406 
Q 353 903 353 1747 
Q 353 2603 823 3093 
Q 1294 3584 2113 3584 
Q 2378 3584 2631 3529 
Q 2884 3475 3122 3366 
z
" transform="scale(0.015625)"/>
      </defs>
      <use xlink:href="#DejaVuSans-43"/>
      <use xlink:href="#DejaVuSans-75" x="69.824219"/>
      <use xlink:href="#DejaVuSans-6d" x="133.203125"/>
      <use xlink:href="#DejaVuSans-6d" x="230.615234"/>
      <use xlink:href="#DejaVuSans-75" x="328.027344"/>
      <use xlink:href="#DejaVuSans-6c" x="391.40625"/>
      <use xlink:href="#DejaVuSans-61" x="419.189453"/>
      <use xlink:href="#DejaVuSans-74" x="480.46875"/>
      <use xlink:href="#DejaVuSans-69" x="519.677734"/>
      <use xlink:href="#DejaVuSans-76" x="547.460938"/>
      <use xlink:href="#DejaVuSans-65" x="606.640625"/>
      <use xlink:href="#DejaVuSans-20" x="668.164062"/>
      <use xlink:href="#DejaVuSans-65" x="699.951172"/>
      <use xlink:href="#DejaVuSans-6d" x="761.474609"/>
      <use xlink:href="#DejaVuSans-69" x="858.886719"/>
      <use xlink:href="#DejaVuSans-73" x="886.669922"/>
      <use xlink:href="#DejaVuSans-73" x="938.769531"/>
      <use xlink:href="#DejaVuSans-69" x="990.869141"/>
      <use xlink:href="#DejaVuSans-6f" x="1018.652344"/>
      <use xlink:href="#DejaVuSans-6e" x="1079.833984"/>
      <use xlink:href="#DejaVuSans-20" x="1143.212891"/>
      <use xlink:href="#DejaVuSans-72" x="1175"/>
      <use xlink:href="#DejaVuSans-65" x="1213.863281"/>
      <use xlink:href="#DejaVuSans-64" x="1275.386719"/>
      <use xlink:href="#DejaVuSans-75" x="1338.863281"/>
      <use xlink:href="#DejaVuSans-63" x="1402.242188"/>
      <use xlink:href="#DejaVuSans-74" x="1457.222656"/>
      <use xlink:href="#DejaVuSans-69" x="1496.431641"/>
      <use xlink:href="#DejaVuSans-6f" x="1524.214844"/>
      <use xlink:href="#DejaVuSans-6e" x="1585.396484"/>
      <use xlink:href="#DejaVuSans-20" x="1648.775391"/>
     </g>
    </g>
   </g>
   <g id="matplotlib.axis_2">
    <g id="ytick_1">
     <g id="line2d_7">
      <defs>
       <path id="mdafd7a2d99" d="M 0 0 
L -3.5 0 
" style="stroke: #000000; stroke-width: 0.8"/>
      </defs>
      <g>
       <use xlink:href="#mdafd7a2d99" x="137.16" y="800.1" style="stroke: #000000; stroke-width: 0.8"/>
      </g>
     </g>
     <g id="text_8">
      <!-- 0 -->
      <g transform="translate(123.7975 803.899219)scale(0.1 -0.1)">
       <use xlink:href="#DejaVuSans-30"/>
      </g>
     </g>
    </g>
    <g id="ytick_2">
     <g id="line2d_8">
      <g>
       <use xlink:href="#mdafd7a2d99" x="137.16" y="701.475429" style="stroke: #000000; stroke-width: 0.8"/>
      </g>
     </g>
     <g id="text_9">
      <!-- 20 -->
      <g transform="translate(117.435 705.274647)scale(0.1 -0.1)">
       <use xlink:href="#DejaVuSans-32"/>
       <use xlink:href="#DejaVuSans-30" x="63.623047"/>
      </g>
     </g>
    </g>
    <g id="ytick_3">
     <g id="line2d_9">
      <g>
       <use xlink:href="#mdafd7a2d99" x="137.16" y="602.850857" style="stroke: #000000; stroke-width: 0.8"/>
      </g>
     </g>
     <g id="text_10">
      <!-- 40 -->
      <g transform="translate(117.435 606.650076)scale(0.1 -0.1)">
       <use xlink:href="#DejaVuSans-34"/>
       <use xlink:href="#DejaVuSans-30" x="63.623047"/>
      </g>
     </g>
    </g>
    <g id="ytick_4">
     <g id="line2d_10">
      <g>
       <use xlink:href="#mdafd7a2d99" x="137.16" y="504.226286" style="stroke: #000000; stroke-width: 0.8"/>
      </g>
     </g>
     <g id="text_11">
      <!-- 60 -->
      <g transform="translate(117.435 508.025504)scale(0.1 -0.1)">
       <use xlink:href="#DejaVuSans-36"/>
       <use xlink:href="#DejaVuSans-30" x="63.623047"/>
      </g>
     </g>
    </g>
    <g id="ytick_5">
     <g id="line2d_11">
      <g>
       <use xlink:href="#mdafd7a2d99" x="137.16" y="405.601714" style="stroke: #000000; stroke-width: 0.8"/>
      </g>
     </g>
     <g id="text_12">
      <!-- 80 -->
      <g transform="translate(117.435 409.400933)scale(0.1 -0.1)">
       <use xlink:href="#DejaVuSans-38"/>
       <use xlink:href="#DejaVuSans-30" x="63.623047"/>
      </g>
     </g>
    </g>
    <g id="ytick_6">
     <g id="line2d_12">
      <g>
       <use xlink:href="#mdafd7a2d99" x="137.16" y="306.977143" style="stroke: #000000; stroke-width: 0.8"/>
      </g>
     </g>
     <g id="text_13">
      <!-- 100 -->
      <g transform="translate(111.0725 310.776362)scale(0.1 -0.1)">
       <use xlink:href="#DejaVuSans-31"/>
       <use xlink:href="#DejaVuSans-30" x="63.623047"/>
       <use xlink:href="#DejaVuSans-30" x="127.246094"/>
      </g>
     </g>
    </g>
    <g id="ytick_7">
     <g id="line2d_13">
      <g>
       <use xlink:href="#mdafd7a2d99" x="137.16" y="208.352571" style="stroke: #000000; stroke-width: 0.8"/>
      </g>
     </g>
     <g id="text_14">
      <!-- 120 -->
      <g transform="translate(111.0725 212.15179)scale(0.1 -0.1)">
       <use xlink:href="#DejaVuSans-31"/>
       <use xlink:href="#DejaVuSans-32" x="63.623047"/>
       <use xlink:href="#DejaVuSans-30" x="127.246094"/>
      </g>
     </g>
    </g>
    <g id="ytick_8">
     <g id="line2d_14">
      <g>
       <use xlink:href="#mdafd7a2d99" x="137.16" y="109.728" style="stroke: #000000; stroke-width: 0.8"/>
      </g>
     </g>
     <g id="text_15">
      <!-- 140 -->
      <g transform="translate(111.0725 113.527219)scale(0.1 -0.1)">
       <use xlink:href="#DejaVuSans-31"/>
       <use xlink:href="#DejaVuSans-34" x="63.623047"/>
       <use xlink:href="#DejaVuSans-30" x="127.246094"/>
      </g>
     </g>
    </g>
    <g id="text_16">
     <!-- Added cost of cement in [$€/t_{cement}$] -->
     <g transform="translate(104.992812 541.664)rotate(-90)scale(0.1 -0.1)">
      <defs>
       <path id="DejaVuSans-41" d="M 2188 4044 
L 1331 1722 
L 3047 1722 
L 2188 4044 
z
M 1831 4666 
L 2547 4666 
L 4325 0 
L 3669 0 
L 3244 1197 
L 1141 1197 
L 716 0 
L 50 0 
L 1831 4666 
z
" transform="scale(0.015625)"/>
       <path id="DejaVuSans-66" d="M 2375 4863 
L 2375 4384 
L 1825 4384 
Q 1516 4384 1395 4259 
Q 1275 4134 1275 3809 
L 1275 3500 
L 2222 3500 
L 2222 3053 
L 1275 3053 
L 1275 0 
L 697 0 
L 697 3053 
L 147 3053 
L 147 3500 
L 697 3500 
L 697 3744 
Q 697 4328 969 4595 
Q 1241 4863 1831 4863 
L 2375 4863 
z
" transform="scale(0.015625)"/>
       <path id="DejaVuSans-5b" d="M 550 4863 
L 1875 4863 
L 1875 4416 
L 1125 4416 
L 1125 -397 
L 1875 -397 
L 1875 -844 
L 550 -844 
L 550 4863 
z
" transform="scale(0.015625)"/>
       <path id="DejaVuSans-20ac" d="M 3647 4306 
L 3647 3641 
Q 3363 3969 3098 4109 
Q 2834 4250 2516 4250 
Q 2025 4250 1709 3937 
Q 1394 3625 1294 3041 
L 3097 3041 
L 2925 2656 
L 1244 2656 
Q 1238 2581 1236 2509 
Q 1234 2438 1234 2328 
Q 1234 2228 1236 2156 
Q 1238 2084 1244 2009 
L 2638 2009 
L 2463 1625 
L 1294 1625 
Q 1394 1041 1709 725 
Q 2025 409 2516 409 
Q 2834 409 3098 550 
Q 3363 691 3647 1019 
L 3647 359 
Q 3369 134 3080 21 
Q 2791 -91 2491 -91 
Q 1750 -91 1267 362 
Q 784 816 659 1625 
L 0 1625 
L 172 2009 
L 606 2009 
Q 606 2081 604 2154 
Q 603 2228 603 2328 
Q 603 2438 604 2511 
Q 606 2584 606 2656 
L 0 2656 
L 172 3041 
L 659 3041 
Q 784 3844 1268 4297 
Q 1753 4750 2491 4750 
Q 2797 4750 3086 4639 
Q 3375 4528 3647 4306 
z
" transform="scale(0.015625)"/>
       <path id="DejaVuSans-2f" d="M 1625 4666 
L 2156 4666 
L 531 -594 
L 0 -594 
L 1625 4666 
z
" transform="scale(0.015625)"/>
       <path id="DejaVuSans-Oblique-74" d="M 2706 3500 
L 2619 3053 
L 1472 3053 
L 1100 1153 
Q 1081 1047 1072 975 
Q 1063 903 1063 863 
Q 1063 663 1183 572 
Q 1303 481 1569 481 
L 2150 481 
L 2053 0 
L 1503 0 
Q 991 0 739 200 
Q 488 400 488 806 
Q 488 878 497 964 
Q 506 1050 525 1153 
L 897 3053 
L 409 3053 
L 500 3500 
L 978 3500 
L 1172 4494 
L 1747 4494 
L 1556 3500 
L 2706 3500 
z
" transform="scale(0.015625)"/>
       <path id="DejaVuSans-Oblique-63" d="M 3431 3366 
L 3316 2797 
Q 3109 2947 2876 3022 
Q 2644 3097 2394 3097 
Q 2119 3097 1870 3000 
Q 1622 2903 1453 2725 
Q 1184 2453 1037 2087 
Q 891 1722 891 1331 
Q 891 859 1127 628 
Q 1363 397 1844 397 
Q 2081 397 2348 469 
Q 2616 541 2906 684 
L 2797 116 
Q 2547 13 2283 -39 
Q 2019 -91 1741 -91 
Q 1044 -91 669 257 
Q 294 606 294 1253 
Q 294 1797 489 2255 
Q 684 2713 1069 3078 
Q 1331 3328 1684 3456 
Q 2038 3584 2456 3584 
Q 2700 3584 2940 3529 
Q 3181 3475 3431 3366 
z
" transform="scale(0.015625)"/>
       <path id="DejaVuSans-Oblique-65" d="M 3078 2063 
Q 3088 2113 3092 2166 
Q 3097 2219 3097 2272 
Q 3097 2653 2873 2875 
Q 2650 3097 2266 3097 
Q 1838 3097 1509 2826 
Q 1181 2556 1013 2059 
L 3078 2063 
z
M 3578 1613 
L 903 1613 
Q 884 1494 878 1425 
Q 872 1356 872 1306 
Q 872 872 1139 634 
Q 1406 397 1894 397 
Q 2269 397 2603 481 
Q 2938 566 3225 728 
L 3116 159 
Q 2806 34 2476 -28 
Q 2147 -91 1806 -91 
Q 1078 -91 686 257 
Q 294 606 294 1247 
Q 294 1794 489 2264 
Q 684 2734 1063 3103 
Q 1306 3334 1642 3459 
Q 1978 3584 2356 3584 
Q 2950 3584 3301 3228 
Q 3653 2872 3653 2272 
Q 3653 2128 3634 1964 
Q 3616 1800 3578 1613 
z
" transform="scale(0.015625)"/>
       <path id="DejaVuSans-Oblique-6d" d="M 5747 2113 
L 5338 0 
L 4763 0 
L 5166 2094 
Q 5191 2228 5203 2325 
Q 5216 2422 5216 2491 
Q 5216 2772 5059 2928 
Q 4903 3084 4622 3084 
Q 4203 3084 3875 2770 
Q 3547 2456 3450 1953 
L 3066 0 
L 2491 0 
L 2900 2094 
Q 2925 2209 2937 2307 
Q 2950 2406 2950 2484 
Q 2950 2769 2794 2926 
Q 2638 3084 2363 3084 
Q 1938 3084 1609 2770 
Q 1281 2456 1184 1953 
L 800 0 
L 225 0 
L 909 3500 
L 1484 3500 
L 1375 2956 
Q 1609 3263 1923 3423 
Q 2238 3584 2597 3584 
Q 2978 3584 3223 3384 
Q 3469 3184 3519 2828 
Q 3781 3197 4126 3390 
Q 4472 3584 4856 3584 
Q 5306 3584 5551 3325 
Q 5797 3066 5797 2591 
Q 5797 2488 5784 2364 
Q 5772 2241 5747 2113 
z
" transform="scale(0.015625)"/>
       <path id="DejaVuSans-Oblique-6e" d="M 3566 2113 
L 3156 0 
L 2578 0 
L 2988 2091 
Q 3016 2238 3031 2350 
Q 3047 2463 3047 2528 
Q 3047 2791 2881 2937 
Q 2716 3084 2419 3084 
Q 1956 3084 1622 2776 
Q 1288 2469 1184 1941 
L 800 0 
L 225 0 
L 903 3500 
L 1478 3500 
L 1363 2950 
Q 1603 3253 1940 3418 
Q 2278 3584 2650 3584 
Q 3113 3584 3367 3334 
Q 3622 3084 3622 2631 
Q 3622 2519 3608 2391 
Q 3594 2263 3566 2113 
z
" transform="scale(0.015625)"/>
       <path id="DejaVuSans-5d" d="M 1947 4863 
L 1947 -844 
L 622 -844 
L 622 -397 
L 1369 -397 
L 1369 4416 
L 622 4416 
L 622 4863 
L 1947 4863 
z
" transform="scale(0.015625)"/>
      </defs>
      <use xlink:href="#DejaVuSans-41" transform="translate(0 0.015625)"/>
      <use xlink:href="#DejaVuSans-64" transform="translate(68.408203 0.015625)"/>
      <use xlink:href="#DejaVuSans-64" transform="translate(131.884766 0.015625)"/>
      <use xlink:href="#DejaVuSans-65" transform="translate(195.361328 0.015625)"/>
      <use xlink:href="#DejaVuSans-64" transform="translate(256.884766 0.015625)"/>
      <use xlink:href="#DejaVuSans-20" transform="translate(320.361328 0.015625)"/>
      <use xlink:href="#DejaVuSans-63" transform="translate(352.148438 0.015625)"/>
      <use xlink:href="#DejaVuSans-6f" transform="translate(407.128906 0.015625)"/>
      <use xlink:href="#DejaVuSans-73" transform="translate(468.310547 0.015625)"/>
      <use xlink:href="#DejaVuSans-74" transform="translate(520.410156 0.015625)"/>
      <use xlink:href="#DejaVuSans-20" transform="translate(559.619141 0.015625)"/>
      <use xlink:href="#DejaVuSans-6f" transform="translate(591.40625 0.015625)"/>
      <use xlink:href="#DejaVuSans-66" transform="translate(652.587891 0.015625)"/>
      <use xlink:href="#DejaVuSans-20" transform="translate(687.792969 0.015625)"/>
      <use xlink:href="#DejaVuSans-63" transform="translate(719.580078 0.015625)"/>
      <use xlink:href="#DejaVuSans-65" transform="translate(774.560547 0.015625)"/>
      <use xlink:href="#DejaVuSans-6d" transform="translate(836.083984 0.015625)"/>
      <use xlink:href="#DejaVuSans-65" transform="translate(933.496094 0.015625)"/>
      <use xlink:href="#DejaVuSans-6e" transform="translate(995.019531 0.015625)"/>
      <use xlink:href="#DejaVuSans-74" transform="translate(1058.398438 0.015625)"/>
      <use xlink:href="#DejaVuSans-20" transform="translate(1097.607422 0.015625)"/>
      <use xlink:href="#DejaVuSans-69" transform="translate(1129.394531 0.015625)"/>
      <use xlink:href="#DejaVuSans-6e" transform="translate(1157.177734 0.015625)"/>
      <use xlink:href="#DejaVuSans-20" transform="translate(1220.556641 0.015625)"/>
      <use xlink:href="#DejaVuSans-5b" transform="translate(1252.34375 0.015625)"/>
      <use xlink:href="#DejaVuSans-20ac" transform="translate(1291.357422 0.015625)"/>
      <use xlink:href="#DejaVuSans-2f" transform="translate(1354.980469 0.015625)"/>
      <use xlink:href="#DejaVuSans-Oblique-74" transform="translate(1388.671875 0.015625)"/>
      <use xlink:href="#DejaVuSans-Oblique-63" transform="translate(1427.880859 -16.390625)scale(0.7)"/>
      <use xlink:href="#DejaVuSans-Oblique-65" transform="translate(1466.367188 -16.390625)scale(0.7)"/>
      <use xlink:href="#DejaVuSans-Oblique-6d" transform="translate(1509.433594 -16.390625)scale(0.7)"/>
      <use xlink:href="#DejaVuSans-Oblique-65" transform="translate(1577.62207 -16.390625)scale(0.7)"/>
      <use xlink:href="#DejaVuSans-Oblique-6e" transform="translate(1620.688477 -16.390625)scale(0.7)"/>
      <use xlink:href="#DejaVuSans-Oblique-74" transform="translate(1665.053711 -16.390625)scale(0.7)"/>
      <use xlink:href="#DejaVuSans-5d" transform="translate(1695.234375 0.015625)"/>
     </g>
    </g>
   </g>
   <g id="patch_71">
    <path d="M 137.16 800.1 
L 137.16 109.728 
" style="fill: none; stroke: #000000; stroke-width: 0.8; stroke-linejoin: miter; stroke-linecap: square"/>
   </g>
   <g id="patch_72">
    <path d="M 987.552 800.1 
L 987.552 109.728 
" style="fill: none; stroke: #000000; stroke-width: 0.8; stroke-linejoin: miter; stroke-linecap: square"/>
   </g>
   <g id="patch_73">
    <path d="M 137.16 800.1 
L 987.552 800.1 
" style="fill: none; stroke: #000000; stroke-width: 0.8; stroke-linejoin: miter; stroke-linecap: square"/>
   </g>
   <g id="patch_74">
    <path d="M 137.16 109.728 
L 987.552 109.728 
" style="fill: none; stroke: #000000; stroke-width: 0.8; stroke-linejoin: miter; stroke-linecap: square"/>
   </g>
   <g id="legend_1">
    <g id="patch_75">
     <path d="M 795.619188 162.318625 
L 980.552 162.318625 
Q 982.552 162.318625 982.552 160.318625 
L 982.552 116.728 
Q 982.552 114.728 980.552 114.728 
L 795.619188 114.728 
Q 793.619188 114.728 793.619188 116.728 
L 793.619188 160.318625 
Q 793.619188 162.318625 795.619188 162.318625 
z
" style="fill: #ffffff; opacity: 0.8; stroke: #cccccc; stroke-linejoin: miter"/>
    </g>
    <g id="patch_76">
     <path d="M 797.619188 126.326437 
L 817.619188 126.326437 
L 817.619188 119.326437 
L 797.619188 119.326437 
z
" style="fill: #8dd3c7; opacity: 0.8; stroke: #808080; stroke-linejoin: miter"/>
    </g>
    <g id="text_17">
     <!-- CCS_CALCINED_CLAY_CEMENT -->
     <g transform="translate(825.619188 126.326437)scale(0.1 -0.1)">
      <defs>
       <path id="DejaVuSans-53" d="M 3425 4513 
L 3425 3897 
Q 3066 4069 2747 4153 
Q 2428 4238 2131 4238 
Q 1616 4238 1336 4038 
Q 1056 3838 1056 3469 
Q 1056 3159 1242 3001 
Q 1428 2844 1947 2747 
L 2328 2669 
Q 3034 2534 3370 2195 
Q 3706 1856 3706 1288 
Q 3706 609 3251 259 
Q 2797 -91 1919 -91 
Q 1588 -91 1214 -16 
Q 841 59 441 206 
L 441 856 
Q 825 641 1194 531 
Q 1563 422 1919 422 
Q 2459 422 2753 634 
Q 3047 847 3047 1241 
Q 3047 1584 2836 1778 
Q 2625 1972 2144 2069 
L 1759 2144 
Q 1053 2284 737 2584 
Q 422 2884 422 3419 
Q 422 4038 858 4394 
Q 1294 4750 2059 4750 
Q 2388 4750 2728 4690 
Q 3069 4631 3425 4513 
z
" transform="scale(0.015625)"/>
       <path id="DejaVuSans-5f" d="M 3263 -1063 
L 3263 -1509 
L -63 -1509 
L -63 -1063 
L 3263 -1063 
z
" transform="scale(0.015625)"/>
       <path id="DejaVuSans-4c" d="M 628 4666 
L 1259 4666 
L 1259 531 
L 3531 531 
L 3531 0 
L 628 0 
L 628 4666 
z
" transform="scale(0.015625)"/>
       <path id="DejaVuSans-49" d="M 628 4666 
L 1259 4666 
L 1259 0 
L 628 0 
L 628 4666 
z
" transform="scale(0.015625)"/>
       <path id="DejaVuSans-4e" d="M 628 4666 
L 1478 4666 
L 3547 763 
L 3547 4666 
L 4159 4666 
L 4159 0 
L 3309 0 
L 1241 3903 
L 1241 0 
L 628 0 
L 628 4666 
z
" transform="scale(0.015625)"/>
       <path id="DejaVuSans-45" d="M 628 4666 
L 3578 4666 
L 3578 4134 
L 1259 4134 
L 1259 2753 
L 3481 2753 
L 3481 2222 
L 1259 2222 
L 1259 531 
L 3634 531 
L 3634 0 
L 628 0 
L 628 4666 
z
" transform="scale(0.015625)"/>
       <path id="DejaVuSans-44" d="M 1259 4147 
L 1259 519 
L 2022 519 
Q 2988 519 3436 956 
Q 3884 1394 3884 2338 
Q 3884 3275 3436 3711 
Q 2988 4147 2022 4147 
L 1259 4147 
z
M 628 4666 
L 1925 4666 
Q 3281 4666 3915 4102 
Q 4550 3538 4550 2338 
Q 4550 1131 3912 565 
Q 3275 0 1925 0 
L 628 0 
L 628 4666 
z
" transform="scale(0.015625)"/>
       <path id="DejaVuSans-59" d="M -13 4666 
L 666 4666 
L 1959 2747 
L 3244 4666 
L 3922 4666 
L 2272 2222 
L 2272 0 
L 1638 0 
L 1638 2222 
L -13 4666 
z
" transform="scale(0.015625)"/>
       <path id="DejaVuSans-4d" d="M 628 4666 
L 1569 4666 
L 2759 1491 
L 3956 4666 
L 4897 4666 
L 4897 0 
L 4281 0 
L 4281 4097 
L 3078 897 
L 2444 897 
L 1241 4097 
L 1241 0 
L 628 0 
L 628 4666 
z
" transform="scale(0.015625)"/>
       <path id="DejaVuSans-54" d="M -19 4666 
L 3928 4666 
L 3928 4134 
L 2272 4134 
L 2272 0 
L 1638 0 
L 1638 4134 
L -19 4134 
L -19 4666 
z
" transform="scale(0.015625)"/>
      </defs>
      <use xlink:href="#DejaVuSans-43"/>
      <use xlink:href="#DejaVuSans-43" x="69.824219"/>
      <use xlink:href="#DejaVuSans-53" x="139.648438"/>
      <use xlink:href="#DejaVuSans-5f" x="203.125"/>
      <use xlink:href="#DejaVuSans-43" x="253.125"/>
      <use xlink:href="#DejaVuSans-41" x="322.949219"/>
      <use xlink:href="#DejaVuSans-4c" x="391.357422"/>
      <use xlink:href="#DejaVuSans-43" x="447.070312"/>
      <use xlink:href="#DejaVuSans-49" x="516.894531"/>
      <use xlink:href="#DejaVuSans-4e" x="546.386719"/>
      <use xlink:href="#DejaVuSans-45" x="621.191406"/>
      <use xlink:href="#DejaVuSans-44" x="684.375"/>
      <use xlink:href="#DejaVuSans-5f" x="761.376953"/>
      <use xlink:href="#DejaVuSans-43" x="811.376953"/>
      <use xlink:href="#DejaVuSans-4c" x="881.201172"/>
      <use xlink:href="#DejaVuSans-41" x="939.164062"/>
      <use xlink:href="#DejaVuSans-59" x="999.822266"/>
      <use xlink:href="#DejaVuSans-5f" x="1060.90625"/>
      <use xlink:href="#DejaVuSans-43" x="1110.90625"/>
      <use xlink:href="#DejaVuSans-45" x="1180.730469"/>
      <use xlink:href="#DejaVuSans-4d" x="1243.914062"/>
      <use xlink:href="#DejaVuSans-45" x="1330.193359"/>
      <use xlink:href="#DejaVuSans-4e" x="1393.376953"/>
      <use xlink:href="#DejaVuSans-54" x="1468.181641"/>
     </g>
    </g>
    <g id="patch_77">
     <path d="M 797.619188 141.282687 
L 817.619188 141.282687 
L 817.619188 134.282687 
L 797.619188 134.282687 
z
" style="fill: url(#h68c4cae88c); opacity: 0.3; stroke: #808080; stroke-linejoin: miter"/>
    </g>
    <g id="text_18">
     <!-- NETs -->
     <g transform="translate(825.619188 141.282687)scale(0.1 -0.1)">
      <use xlink:href="#DejaVuSans-4e"/>
      <use xlink:href="#DejaVuSans-45" x="74.804688"/>
      <use xlink:href="#DejaVuSans-54" x="137.988281"/>
      <use xlink:href="#DejaVuSans-73" x="182.572266"/>
     </g>
    </g>
    <g id="patch_78">
     <path d="M 797.619188 155.960812 
L 817.619188 155.960812 
L 817.619188 148.960812 
L 797.619188 148.960812 
z
" style="fill: #ffffb3; opacity: 0.8; stroke: #808080; stroke-linejoin: miter"/>
    </g>
    <g id="text_19">
     <!-- CCS_CEMENT -->
     <g transform="translate(825.619188 155.960812)scale(0.1 -0.1)">
      <use xlink:href="#DejaVuSans-43"/>
      <use xlink:href="#DejaVuSans-43" x="69.824219"/>
      <use xlink:href="#DejaVuSans-53" x="139.648438"/>
      <use xlink:href="#DejaVuSans-5f" x="203.125"/>
      <use xlink:href="#DejaVuSans-43" x="253.125"/>
      <use xlink:href="#DejaVuSans-45" x="322.949219"/>
      <use xlink:href="#DejaVuSans-4d" x="386.132812"/>
      <use xlink:href="#DejaVuSans-45" x="472.412109"/>
      <use xlink:href="#DejaVuSans-4e" x="535.595703"/>
      <use xlink:href="#DejaVuSans-54" x="610.400391"/>
     </g>
    </g>
   </g>
  </g>
 </g>
 <defs>
  <clipPath id="p4871843f5f">
   <rect x="137.16" y="109.728" width="850.392" height="690.372"/>
  </clipPath>
 </defs>
 <defs>
  <pattern id="h68c4cae88c" patternUnits="userSpaceOnUse" x="0" y="0" width="72" height="72">
   <rect x="0" y="0" width="73" height="73" fill="#ffa500"/>
   <path d="M -36 36 
L 36 -36 
M -30 42 
L 42 -30 
M -24 48 
L 48 -24 
M -18 54 
L 54 -18 
M -12 60 
L 60 -12 
M -6 66 
L 66 -6 
M 0 72 
L 72 0 
M 6 78 
L 78 6 
M 12 84 
L 84 12 
M 18 90 
L 90 18 
M 24 96 
L 96 24 
M 30 102 
L 102 30 
M 36 108 
L 108 36 
" style="fill: #808080; stroke: #808080; stroke-width: 1.0; stroke-linecap: butt; stroke-linejoin: miter; stroke-opacity: 0.3"/>
  </pattern>
 </defs>
</svg>
